<?xml version="1.0" encoding="UTF-8" standalone="no" ?><svg xmlns="http://www.w3.org/2000/svg" width="375.869" height="179.322" viewBox="0 -3298.4 12779.4 6096.8" xmlns:xlink="http://www.w3.org/1999/xlink" aria-hidden="true"><defs><path id="a" d="M52 289q7 42 54 97t116 56q35 0 64-18t43-45q42 63 101 63 37 0 64-22t28-59q0-29-14-47t-27-22-23-4q-19 0-31 11t-12 29q0 46 50 63-11 13-40 13-13 0-19-2-38-16-56-66-60-221-60-258 0-28 16-40t35-12q37 0 73 33t49 81q3 10 6 11t16 2h4q15 0 15-8 0-1-2-11-16-57-62-101T333-11q-70 0-106 63-41-62-94-62h-6q-49 0-70 26T35 71q0 32 19 52t45 20q43 0 43-42 0-20-12-35t-23-20-13-5l-3-1q0-1 6-4t16-7 19-3q36 0 62 45 9 16 23 68t28 108 16 66q5 27 5 39 0 28-15 40t-34 12q-40 0-75-32t-49-82q-2-9-5-10t-16-2H58q-6 6-6 11Z"/><path id="b" d="M56 347q0 13 14 20h637q15-8 15-20 0-11-14-19l-318-1H72q-16 5-16 20Zm0-194q0 15 16 20h636q14-10 14-20 0-13-15-20H70q-14 7-14 20Z"/><path id="c" d="M328 0q-21 3-148 3T32 0H21v46h22q49 0 63 3t20 11q2 3 2 282 0 278-2 281-4 5-8 7t-22 5-53 2H21v46h11q21-3 148-3t148 3h11v-46h-22q-49 0-63-3t-20-11q-2-3-2-281 0-279 2-282 4-5 8-7t22-5 53-2h22V0h-11Z"/><path id="d" d="M41 46h14q39 0 47 14v62q0 17 1 39t0 42v66q0 35-1 59v23q-3 19-14 25t-45 9H25v23q0 23 2 23l10 1q10 1 28 2t37 2q17 1 36 2t29 3 11 1h3v-40q0-38 1-38t5 5 12 15 19 18 29 19 38 16q20 5 51 5 114-4 127-113 1-7 1-139v-86q0-38 2-45t11-10q21-3 49-3h16V0h-8l-24 1q-23 1-50 1t-38 1Q319 3 310 0h-8v46h16q61 0 61 16 1 2 1 138-1 135-2 143-6 28-20 42t-24 17-26 2q-45 0-79-34-27-27-34-55t-8-83V108q0-30 1-40t3-13 9-6q21-3 49-3h16V0h-8l-23 1q-24 1-51 1t-38 1Q42 3 33 0h-8v46h16Z"/><path id="e" d="M27 422q53 4 82 56t32 122v15h40V431h135v-46H181V241q1-125 1-141t7-32q14-39 49-39 44 0 54 71 1 8 1 46v35h40v-47q0-77-42-117-27-27-70-27-34 0-59 12t-38 31-19 35-7 32q-1 7-1 148v137H18v37h9Z"/><path id="f" d="M701-940q0-3-6-9h-31q-2 2-28 27t-45 43-54 61-62 81-63 101-62 125-55 149-45 176-29 203-12 234q0 711 364 1110 23 25 43 44t33 32 15 13h31q6-6 6-9 0-5-20-26t-52-59-72-95-81-143-76-191-60-252-32-316q-2-38-2-109 0-389 94-680t290-494q11-12 11-16Z"/><path id="g" d="M109 429q-27 0-43 18t-16 44q0 71 53 123t132 52q91 0 152-56t62-145q0-43-20-82t-48-68-80-74q-36-31-100-92l-59-56 76-1q157 0 167 5 7 2 24 89v3h40v-3q-1-3-13-91T421 3V0H50v31q0 7 6 15t30 35q29 32 50 56 9 10 34 37t34 37 29 33 28 34 23 30 21 32 15 29 13 32 7 30 3 33q0 63-34 109t-97 46q-33 0-58-17t-35-33-10-19q0-1 5-1 18 0 37-14t19-46q0-25-16-42t-45-18Z"/><path id="h" d="m213 578-13-5q-14-5-40-10t-58-7H83v46h19q47 2 87 15t56 24 28 22q2 3 12 3 9 0 17-6V361l1-300q7-7 12-9t24-4 62-2h26V0h-11q-21 3-159 3-136 0-157-3H88v46h64q16 0 25 1t16 3 8 2 6 5 6 4v517Z"/><path id="i" d="M42 313q0 163 81 258t180 95q69 0 99-36t30-80q0-25-14-40t-39-15q-23 0-38 14t-15 39q0 44 47 53-22 22-62 25-71 0-117-60-47-66-47-202l1-4q5 6 8 13 41 60 107 60h4q46 0 81-19 24-14 48-40t39-57q21-49 21-107v-18q0-23-5-43-11-59-64-115T253-22q-28 0-54 8t-56 30-51 59-36 97-14 141Zm215 84q-30 0-52-17t-34-45-17-57-6-62q0-83 12-119t38-58q24-18 53-18 51 0 78 38 13 18 18 45t5 105q0 80-5 107t-18 45q-27 36-72 36Z"/><path id="j" d="M94 250q0 69 10 131t23 107 37 88 38 67 42 52 33 34 25 21h17q14 0 14-9 0-3-17-21t-41-53-49-86-42-138-17-193 17-192 41-139 49-86 42-53 17-21q0-9-15-9h-16l-28 24q-94 85-137 212T94 250Z"/><path id="k" d="M51 0q-5 4-5 7 0 2 169 350t173 352q3 7 28 7 23 0 28-7 3-4 172-352T786 7q0-3-5-7H51Zm456 344L384 596 137 92l246-1h247q0 2-123 253Z"/><path id="l" d="M84 237v13l14 20h581q15-8 15-20t-15-20H98q-14 7-14 20Z"/><path id="m" d="M41 46h14q39 0 47 14v107q0 24 1 50t0 55 0 57v153q0 34-1 60t0 44 0 17q-3 19-14 25t-45 9H25v23q0 23 2 23l10 1q10 1 29 2t37 2 37 2 30 3 11 1h3V367q60 75 144 75 123 0 135-113 1-7 1-139v-86q0-38 2-45t11-10q21-3 49-3h16V0h-8l-24 1q-23 1-50 1t-38 1Q319 3 310 0h-8v46h16q61 0 61 16 1 2 1 138-1 135-2 143-6 28-20 42t-24 17-26 2q-45 0-79-34-27-27-34-55t-8-83V108q0-30 1-40t3-13 9-6q21-3 49-3h16V0h-8l-23 1q-24 1-51 1t-38 1Q42 3 33 0h-8v46h16Z"/><path id="n" d="M78 250q0 24 17 42t43 18q24 0 42-16t19-43q0-25-17-43t-43-18-43 17-18 43Z"/><path id="o" d="M307-11q-73 0-139 66l-10-18q-2-3-5-9t-6-11-4-7l-5-9-20-1H98v298q0 301-1 305-3 19-14 25t-45 9H20v23q0 23 2 23l10 1q10 1 29 2t37 2 37 2 30 3 11 1h3V543q0-152 1-152l3 3q3 3 9 7t15 10 21 10 26 10 32 8 37 3q78 0 138-63t61-163q0-101-64-164T307-11ZM182 98q0-1 5-8t9-11 10-12 12-12 15-11 17-9 21-6 24-3q35 0 68 20t49 67q12 35 12 99 0 75-12 111-27 82-112 82-30 0-61-15t-51-43l-6-8V98Z"/><path id="p" d="m60 749 4 1h22l28-24q94-85 137-212t43-264q0-68-10-131T261 12t-37-88-38-67-41-51-32-33-23-19l-4-4H63q-3 0-5 3t-3 9q1 1 11 13Q221-64 221 250T66 725q-10 12-11 13 0 8 5 11Z"/><path id="q" d="M39 284q-21 0-21 10 0 7 27 44t54 60q35 27 65 31 6 2 168 2 160 0 165-2 20-5 20-27 0-14-9-26t-23-16q-6-2-96-2t-90-2q-1-1-16-82t-32-165-18-89q-5-15-18-24t-29-9q-33 0-33 33v10l50 162q11 36 24 80t21 64l6 21q0 1-46 1h-11q-9 0-14 1-78 0-122-64-5-8-8-9t-14-2Z"/><path id="r" d="M34 1438q0 8 3 10t13 2h21q2-2 28-27t45-43 54-61 62-81 63-101 62-124 55-149 45-176 29-203 12-234q0-117-7-198-47-572-357-913-23-25-43-44t-33-32-15-13H56q-13 0-17 2t-5 10q54 54 106 124Q428-430 428 251q0 202-26 377t-64 294-93 224-100 163-99 116l-4 4q-2 2-3 4t-3 3l-2 2Z"/><path id="s" d="M21 287q1 6 3 16t12 38 20 47 33 37 46 17q36 0 60-18t30-34 6-21q0-2 1-2l11 11q61 64 139 64 54 0 87-27t34-79-38-157-38-127q0-26 17-26 6 0 9 1 29 5 52 38t35 80q2 8 20 8 20 0 20-8 0-1-4-15-8-29-22-57t-46-56-69-27q-47 0-68 27t-21 56q0 19 36 120t37 152q0 59-44 59h-5q-86 0-145-101l-7-12-33-134Q156 26 151 16q-13-27-43-27-13 0-21 6T76 7t-2 10q0 13 38 163t40 163q1 5 1 23 0 39-24 39-38 0-63-100-6-20-6-21-2-6-19-6H27q-6 6-6 9Z"/><path id="t" d="M224-649v1799h51V-598h236v-51H224Z"/><path id="u" d="M252-598v1748h51V-649H16v51h236Z"/><path id="v" d="M118-162q2 0 6-2t11-3 12-1q13 0 24 13t16 29q10 27 34 153t46 240 22 115v3h-47q-47 0-50 2-4 3-4 10l7 28q2 5 8 5t47 1q48 0 48 1 0 2 9 50t12 58q37 165 146 165 37-2 61-22t24-53q0-36-21-52t-42-17q-44 0-44 42 0 19 11 33t24 21l9 5q-16 6-30 6-12 0-23-10t-15-28q-7-29-16-78t-16-83-7-36q0-2 55-2 45 0 52-1t11-6q1-4-2-17t-5-16q-2-5-9-5t-54-1h-56l-23-122Q301 15 282-47q-27-85-70-126-37-32-73-32-32 0-58 19t-26 54q0 37 21 54t42 17q44 0 44-42 0-19-11-33t-24-21l-9-5Z"/><path id="w" d="M41 46h14q39 0 47 14v62q0 17 1 39t0 42v66q0 35-1 59v23q-3 19-14 25t-45 9H25v23q0 23 2 23l10 1q10 1 28 2t37 2q17 1 36 2t29 3 11 1h3v-40q0-38 1-38t5 5 12 15 19 18 29 19 38 16q20 5 51 5 15 0 28-2t23-6 19-8 15-9 11-11 9-11 7-11 4-10 3-8l2-5 3 4 6 8q3 4 9 11t13 13 15 13 20 12 23 10 26 7 31 3q126 0 137-113 1-7 1-139v-86q0-38 2-45t11-10q21-3 49-3h16V0h-8l-23 1q-24 1-51 1t-38 1Q596 3 587 0h-8v46h16q61 0 61 16 1 2 1 138-1 135-2 143-6 28-20 42t-24 17-26 2q-45 0-79-34-27-27-34-55t-8-83V108q0-30 1-40t3-13 9-6q21-3 49-3h16V0h-8l-24 1q-23 1-50 1t-38 1Q319 3 310 0h-8v46h16q61 0 61 16 1 2 1 138-1 135-2 143-6 28-20 42t-24 17-26 2q-45 0-79-34-27-27-34-55t-8-83V108q0-30 1-40t3-13 9-6q21-3 49-3h16V0h-8l-23 1q-24 1-51 1t-38 1Q42 3 33 0h-8v46h16Z"/><path id="x" d="M28 214q0 95 65 164t157 70q90 0 155-68t66-165q0-95-64-160T250-10q-97 0-159 67T28 214ZM250 30q122 0 122 163v57q0 22-1 38t-7 38-16 36-31 28-49 20q-5 1-16 1-30 0-57-12-43-22-56-61t-13-92v-20q0-96 19-135 32-61 105-61Z"/><path id="y" d="M376 495v40q0 24 1 33 0 45-10 56t-51 13h-18v23q0 23 2 23l10 1q10 1 29 2t37 2 37 2 30 3 11 1h3V390q0-306 1-309 3-20 14-26t45-9h18V0q-2 0-76-5t-79-6h-7v55l-8-7q-58-48-130-48-77 0-139 61T34 215q0 100 63 163t147 64q75 0 132-49v102Zm-3-153q-45 63-113 63-49 0-87-36-27-28-34-64t-8-94q0-56 7-91t35-61q30-33 78-33 71 0 122 77v239Z"/></defs><g data-mml-node="math" stroke="currentColor" fill="currentColor" stroke-width="0"><g data-mml-node="mtable"><g data-mml-node="mtr"><g data-mml-node="mtd"><use data-c="1D465" xlink:href="#a" data-mml-node="mi" transform="matrix(1 0 0 -1 28 -1754.5)"/></g><g data-mml-node="mtd"><use data-c="3D" xlink:href="#b" data-mml-node="mo" transform="matrix(1 0 0 -1 877.8 -1754.5)"/><g data-mml-node="TeXAtom" data-mjx-texclass="ORD"><use data-c="49" xlink:href="#c" data-mml-node="mi" transform="matrix(1 0 0 -1 1933.6 -1754.5)"/><use data-c="6E" xlink:href="#d" data-mml-node="mi" transform="matrix(1 0 0 -1 2294.6 -1754.5)"/><use data-c="74" xlink:href="#e" data-mml-node="mi" transform="matrix(1 0 0 -1 2850.6 -1754.5)"/></g><g data-mml-node="mrow"><use data-c="28" xlink:href="#f" data-mml-node="mo" transform="matrix(1 0 0 -1 3406.2 -1754)"/><g data-mml-node="mfrac"><g data-mml-node="mrow"><g data-mml-node="msup"><use data-c="32" xlink:href="#g" data-mml-node="mn" transform="matrix(1 0 0 -1 4362.2 -2464.5)"/><g data-mml-node="TeXAtom" data-mjx-texclass="ORD"><g data-mml-node="mn" transform="matrix(.707 0 0 -.707 4895.2 -2827.5)"><use data-c="31" xlink:href="#h"/><use data-c="36" xlink:href="#i" transform="translate(500)"/></g></g></g><use data-c="28" xlink:href="#j" data-mml-node="mo" transform="matrix(1 0 0 -1 5652.3 -2464.5)"/><use data-c="394" xlink:href="#k" data-mml-node="mi" transform="matrix(1 0 0 -1 6041.3 -2464.5)"/><use data-c="74" xlink:href="#e" data-mml-node="mi" transform="matrix(1 0 0 -1 6874.3 -2464.5)"/><use data-c="2212" xlink:href="#l" data-mml-node="mo" transform="matrix(1 0 0 -1 7485.5 -2464.5)"/><use data-c="394" xlink:href="#k" data-mml-node="mi" transform="matrix(1 0 0 -1 8485.8 -2464.5)"/><use data-c="68" xlink:href="#m" data-mml-node="mi" transform="matrix(1 0 0 -1 9318.8 -2464.5)"/><use data-c="22C5" xlink:href="#n" data-mml-node="mo" transform="matrix(1 0 0 -1 10097 -2464.5)"/><g data-mml-node="msub"><use data-c="49" xlink:href="#c" data-mml-node="mi" transform="matrix(1 0 0 -1 10597.2 -2464.5)"/><g data-mml-node="TeXAtom" data-mjx-texclass="ORD"><use data-c="62" xlink:href="#o" data-mml-node="mi" transform="matrix(.707 0 0 -.707 10991.2 -2314.5)"/></g></g><use data-c="29" xlink:href="#p" data-mml-node="mo" transform="matrix(1 0 0 -1 11434.3 -2464.5)"/></g><use data-c="1D70F" xlink:href="#q" data-mml-node="mi" transform="matrix(1 0 0 -1 7834.3 -1068.5)"/><path d="M4262.2-1974.5h7661.1v-60H4262.2z" stroke="none"/></g><use data-c="29" xlink:href="#r" data-mml-node="mo" transform="matrix(1 0 0 -1 12043.3 -1754)"/></g></g></g><g data-mml-node="mtr"><g data-mml-node="mtd"><use data-c="1D45B" xlink:href="#s" data-mml-node="mi" transform="matrix(1 0 0 -1 0 644.5)"/></g><g data-mml-node="mtd"><use data-c="3D" xlink:href="#b" data-mml-node="mo" transform="matrix(1 0 0 -1 877.8 644.5)"/><g data-mml-node="mrow"><use data-c="230A" xlink:href="#t" data-mml-node="mo" transform="matrix(1 0 0 -1 1933.6 645)"/><g data-mml-node="mfrac"><use data-c="1D465" xlink:href="#a" data-mml-node="mi" transform="matrix(1 0 0 -1 3040.7 -31.5)"/><g data-mml-node="msup"><use data-c="32" xlink:href="#g" data-mml-node="mn" transform="matrix(1 0 0 -1 2681.6 1364.4)"/><g data-mml-node="TeXAtom" data-mjx-texclass="ORD"><g data-mml-node="mn" transform="matrix(.707 0 0 -.707 3214.6 1075.4)"><use data-c="31" xlink:href="#h"/><use data-c="36" xlink:href="#i" transform="translate(500)"/></g></g></g><path d="M2581.6 424.5h1490.1v-60H2581.6z" stroke="none"/></g><use data-c="230B" xlink:href="#u" data-mml-node="mo" transform="matrix(1 0 0 -1 4191.7 645)"/></g></g></g><g data-mml-node="mtr"><g data-mml-node="mtd"><use data-c="1D453" xlink:href="#v" data-mml-node="mi" transform="matrix(1 0 0 -1 50 2548.4)"/></g><g data-mml-node="mtd"><use data-c="3D" xlink:href="#b" data-mml-node="mo" transform="matrix(1 0 0 -1 877.8 2548.4)"/><use data-c="1D465" xlink:href="#a" data-mml-node="mi" transform="matrix(1 0 0 -1 1933.6 2548.4)"/><g data-mml-node="mo" transform="matrix(1 0 0 -1 2783.3 2548.4)"><use data-c="6D" xlink:href="#w"/><use data-c="6F" xlink:href="#x" transform="translate(833)"/><use data-c="64" xlink:href="#y" transform="translate(1333)"/></g><g data-mml-node="TeXAtom" data-mjx-texclass="ORD"><g data-mml-node="msup"><use data-c="32" xlink:href="#g" data-mml-node="mn" transform="matrix(1 0 0 -1 4950.1 2548.4)"/><g data-mml-node="TeXAtom" data-mjx-texclass="ORD"><g data-mml-node="mn" transform="matrix(.707 0 0 -.707 5483.1 2135.4)"><use data-c="31" xlink:href="#h"/><use data-c="36" xlink:href="#i" transform="translate(500)"/></g></g></g></g></g></g></g></g></svg>