<?xml version="1.0" encoding="UTF-8" standalone="no" ?><svg xmlns="http://www.w3.org/2000/svg" width="883.428" height="344.045" viewBox="0 -6098.7 30036.7 11697.4" xmlns:xlink="http://www.w3.org/1999/xlink" aria-hidden="true"><defs><path id="a" d="M40 437q-19 0-19 8 0 5 16 56t34 101l17 49q5 18 13 26h558q32 0 38-1t7-9q0-6-17-114t-19-109q0-7-19-7h-12q-3 0-6 5l-2 3q0 6 6 45t6 61q0 35-13 53t-55 25q-5 1-58 2-46 0-58-1t-18-8q-1-1-71-279T298 60q0-12 88-14 32 0 41-1t9-9q0-5-3-14-4-18-9-21l-2-1h-7q-5 0-52 1T228 2Q99 2 64 0H49q-6 6-6 9t2 18q4 13 10 19h39q80 0 95 9 1 1 2 1 5 3 10 20t40 157q17 68 28 111 70 275 70 281 0 5-29 5h-31q-67 0-88-6-45-10-70-41T67 467q-7-22-10-26t-14-4h-3Z"/><path id="b" d="M234 637h-8q-25 0-30 1t-5 11q0 27 11 33 2 1 97 1h88q11 0 14-6 211-496 215-509l54 213q53 211 53 225 0 27-64 31-24 0-24 11 0 2 2 12 4 16 6 19t10 4q3 0 31-1t83-2q50 0 76 1t30 1q15 0 15-10 0-22-8-30-2-5-22-5-71-4-89-40L620 7q-2-7-21-7-14 0-17 2-3 3-129 303L326 604l-65-260Q196 88 196 79q5-33 72-33h10q6-5 6-8t-2-19q-4-13-10-19h-13q-31 2-108 2H63Q49 2 46 1q-15 0-15 9 0 4 3 16t5 14q2 6 23 6 68 3 88 39 4 6 71 277l68 272q-2 1-55 3Z"/><path id="c" d="M56 347q0 13 14 20h637q15-8 15-20 0-11-14-19l-318-1H72q-16 5-16 20Zm0-194q0 15 16 20h636q14-10 14-20 0-13-15-20H70q-14 7-14 20Z"/><path id="d" d="M41 46h14q39 0 47 14v62q0 17 1 39t0 42v66q0 35-1 59v23q-3 19-14 25t-45 9H25v23q0 23 2 23l10 1q10 1 28 2t37 2q17 1 36 2t29 3 11 1h3v-40q0-38 1-38t5 5 12 15 19 18 29 19 38 16q20 5 51 5 15 0 28-2t23-6 19-8 15-9 11-11 9-11 7-11 4-10 3-8l2-5 3 4 6 8q3 4 9 11t13 13 15 13 20 12 23 10 26 7 31 3q126 0 137-113 1-7 1-139v-86q0-38 2-45t11-10q21-3 49-3h16V0h-8l-23 1q-24 1-51 1t-38 1Q596 3 587 0h-8v46h16q61 0 61 16 1 2 1 138-1 135-2 143-6 28-20 42t-24 17-26 2q-45 0-79-34-27-27-34-55t-8-83V108q0-30 1-40t3-13 9-6q21-3 49-3h16V0h-8l-24 1q-23 1-50 1t-38 1Q319 3 310 0h-8v46h16q61 0 61 16 1 2 1 138-1 135-2 143-6 28-20 42t-24 17-26 2q-45 0-79-34-27-27-34-55t-8-83V108q0-30 1-40t3-13 9-6q21-3 49-3h16V0h-8l-23 1q-24 1-51 1t-38 1Q42 3 33 0h-8v46h16Z"/><path id="e" d="M69 609q0 28 18 44t44 16q23-2 40-17t17-43q0-30-17-45t-42-15q-25 0-42 15t-18 45ZM247 0q-15 3-104 3h-37Q80 3 56 1L34 0h-8v46h16q28 0 49 3 9 4 11 11t2 42v191q0 52-2 66t-14 19q-14 7-47 7H30v23q0 23 2 23l10 1q10 1 28 2t36 2 36 2 29 3 11 1h3V62q5-10 12-12t35-4h23V0h-8Z"/><path id="f" d="M41 46h14q39 0 47 14v62q0 17 1 39t0 42v66q0 35-1 59v23q-3 19-14 25t-45 9H25v23q0 23 2 23l10 1q10 1 28 2t37 2q17 1 36 2t29 3 11 1h3v-40q0-38 1-38t5 5 12 15 19 18 29 19 38 16q20 5 51 5 114-4 127-113 1-7 1-139v-86q0-38 2-45t11-10q21-3 49-3h16V0h-8l-24 1q-23 1-50 1t-38 1Q319 3 310 0h-8v46h16q61 0 61 16 1 2 1 138-1 135-2 143-6 28-20 42t-24 17-26 2q-45 0-79-34-27-27-34-55t-8-83V108q0-30 1-40t3-13 9-6q21-3 49-3h16V0h-8l-23 1q-24 1-51 1t-38 1Q42 3 33 0h-8v46h16Z"/><path id="g" d="M152 251q0 395 236 599h28q6-6 6-9 0-4-19-25t-46-63-55-104-47-167-19-232q0-126 19-231t46-166 55-104 47-64 19-25q0-3-6-9h-28q-29 24-56 53t-61 83-59 116-42 153-18 195Z"/><path id="h" d="M137 305h-22l-37 15-15 39q0 35 34 62t121 27q73 0 118-32t60-76q5-14 5-31t1-115v-70q0-48 5-66t21-18q15 0 20 16t5 53v36h40v-39q-1-40-3-47-9-30-35-47T400-6t-47 18-24 42v4l-2-3q-2-3-5-6t-8-9-12-11-15-12-18-11-22-8-26-6-31-3q-60 0-108 31t-48 87q0 21 7 40t27 41 48 37 78 28 110 15h14v22q0 34-6 50-22 71-97 71-18 0-34-1t-25-4-8-3q22-15 22-44 0-25-16-39Zm-11-199q0-31 24-55t59-25q38 0 67 23t39 60q2 7 3 66 0 58-1 58-8 0-21-1t-45-9-58-20-46-37-21-60Z"/><path id="i" d="M201 0q-12 3-99 3-76 0-85-3h-6v46h14q23 1 42 6t29 9 25 17 18 18 21 26 20 28l46 60-58 78q-9 13-19 27t-16 21-11 15-9 12-6 7-7 6-6 3-6 2-8 2q-6 0-36 2H16v46h7q36-2 103-2 93 0 103 2h8v-46q-36-4-36-16 0-2 10-16t28-38 29-41l4-4 25 34q32 41 32 54 0 6-2 11t-5 7-5 4-7 4l-3 1h-5v46h7q15-3 99-3 79 0 85 3h6v-46h-7q-49 0-81-17-17-8-34-27t-65-84l-16-21 62-85q66-90 71-94t17-7q18-4 53-4h17V0h-14q-8 1-20 1t-25 1-25 0-18 1h-37q-26 0-50-2l-23-1h-9v46h3q11 0 22 5t11 12q0 2-40 57l-41 55q-1-1-31-42t-34-45q-4-5-4-14 0-11 7-19t18-9q2 0 2-23V0h-7Z"/><path id="j" d="M202-349V850h40V-309h207v-40H202Z"/><path id="k" d="M131 289q0 32 16 65t56 61 97 27q62 0 90-27t29-60q0-32-17-47t-38-16q-13 0-24 8t-12 26q0 16 9 28t17 18 13 6q1 0 1 1 0 3-7 9t-25 11-39 6q-48 0-70-26t-23-53q0-25 19-35t55-17 52-15q66-29 66-96 0-28-11-56t-33-56-63-44-94-17q-77 0-109 29T53 87q0 39 21 56t44 17q15 0 28-9t14-31q0-26-18-44t-31-18q-2-1-3-1t-1-2q1-3 8-8t31-13 55-7q36 0 62 11t38 28 17 31 5 25q0 28-21 42t-48 17-59 15-47 35q-17 25-17 58Z"/><path id="l" d="M78 250q0 24 17 42t43 18q24 0 42-16t19-43q0-25-17-43t-43-18-43 17-18 43Z"/><path id="m" d="M48 1Q31 1 31 11q0 2 3 14 4 16 8 18t23 3q27 0 60 3 14 3 19 12 2 5 71 281t70 280q0 7-4 7-8 3-53 5h-31q-6 6-6 8t2 17q4 17 10 21h539q7-4 7-11 0-5-13-112t-14-110q-2-7-20-7h-12q-7 5-7 13 0 1 3 24t3 53q0 30-7 49t-19 31-37 16-51 7-72 1h-23q-82-1-87-3t-7-8q-1-1-34-131l-32-129h78q20 0 28 1t22 3 24 7 17 12q13 12 22 33t13 38 5 18q3 5 19 5h12q7-5 7-10 0-3-31-131t-34-132q-2-7-20-7h-12q-7 6-7 12 0 3 5 22t5 40q0 29-20 36t-89 7h-55l-32-127Q245 66 245 60q0-14 89-14h25q6-6 6-7t-2-20q-4-13-10-19h-17q-41 2-151 2H86Q52 2 48 1Z"/><path id="n" d="M109 429q-27 0-43 18t-16 44q0 71 53 123t132 52q91 0 152-56t62-145q0-43-20-82t-48-68-80-74q-36-31-100-92l-59-56 76-1q157 0 167 5 7 2 24 89v3h40v-3q-1-3-13-91T421 3V0H50v31q0 7 6 15t30 35q29 32 50 56 9 10 34 37t34 37 29 33 28 34 23 30 21 32 15 29 13 32 7 30 3 33q0 63-34 109t-97 46q-33 0-58-17t-35-33-10-19q0-1 5-1 18 0 37-14t19-46q0-25-16-42t-45-18Z"/><path id="o" d="M21 287q1 6 3 16t12 38 20 47 33 37 46 17q36 0 60-18t30-34 6-21q0-2 1-2l11 11q61 64 139 64 54 0 87-27t34-79-38-157-38-127q0-26 17-26 6 0 9 1 29 5 52 38t35 80q2 8 20 8 20 0 20-8 0-1-4-15-8-29-22-57t-46-56-69-27q-47 0-68 27t-21 56q0 19 36 120t37 152q0 59-44 59h-5q-86 0-145-101l-7-12-33-134Q156 26 151 16q-13-27-43-27-13 0-21 6T76 7t-2 10q0 13 38 163t40 163q1 5 1 23 0 39-24 39-38 0-63-100-6-20-6-21-2-6-19-6H27q-6 6-6 9Z"/><path id="p" d="M84 237v13l14 20h581q15-8 15-20t-15-20H98q-14 7-14 20Z"/><path id="q" d="m213 578-13-5q-14-5-40-10t-58-7H83v46h19q47 2 87 15t56 24 28 22q2 3 12 3 9 0 17-6V361l1-300q7-7 12-9t24-4 62-2h26V0h-11q-21 3-159 3-136 0-157-3H88v46h64q16 0 25 1t16 3 8 2 6 5 6 4v517Z"/><path id="r" d="M42 313q0 163 81 258t180 95q69 0 99-36t30-80q0-25-14-40t-39-15q-23 0-38 14t-15 39q0 44 47 53-22 22-62 25-71 0-117-60-47-66-47-202l1-4q5 6 8 13 41 60 107 60h4q46 0 81-19 24-14 48-40t39-57q21-49 21-107v-18q0-23-5-43-11-59-64-115T253-22q-28 0-54 8t-56 30-51 59-36 97-14 141Zm215 84q-30 0-52-17t-34-45-17-57-6-62q0-83 12-119t38-58q24-18 53-18 51 0 78 38 13 18 18 45t5 105q0 80-5 107t-18 45q-27 36-72 36Z"/><path id="s" d="M229-309V850h40V-349H22v40h207Z"/><path id="t" d="M78 35v25l16 43 43 18q28 0 50-25t23-88q0-35-9-68t-21-57-26-41-24-27-13-9q-4 0-13 9t-9 13q0 4 11 16t25 30 26 50 16 73V9l-1-1q-2-1-5-2t-6-3-9-2-12-1q-27 0-44 17Z"/><path id="u" d="M305 251q0-396-236-600H56q-13 0-17 2t-4 9q2 5 25 31t48 68 52 103 44 163 17 223-17 223-44 163-52 104-48 67-25 32q0 11 15 11h19q128-107 187-284 49-141 49-315Z"/><path id="v" d="M21 287q0 8 9 31t25 52 44 50 59 22q46 0 69-25t23-59q0-18-34-112t-34-141q0-43 14-60t42-18 53 17 37 34l11 17q2 4 38 152 30 120 36 140t14 29q17 15 36 15 17 0 25-10t8-19L420 84q-1-5-1-16 0-25 7-33t21-9q22 3 35 31t30 88q2 8 20 8 19 0 19-9-1-5-2-14t-9-32-17-43-25-38-36-25q-8-2-24-2-66 0-91 56-2-1-11-10t-18-15-22-15-29-12-34-5q-44 0-78 18-52 31-52 106 0 57 35 149t35 117v14q0 3-4 7t-11 4h-4q-23 0-42-19t-30-41-17-42-8-22q-2-2-16-2H27q-6 6-6 9Z"/><path id="w" d="M73 647q0 10 4 23t12 13q1 0 72 5t73 6q12 0 12-9t-34-143q-8-34-17-70t-15-54l-4-19q0-3 6 3 49 40 101 40 62 0 100-46t39-116q0-111-79-201T173-11q-50 0-91 38T40 150v9q0 21 8 58t49 197q50 197 50 209t-38 14H83q-3 0-7 3t-3 7Zm263-322v6q0 74-61 74-17 0-35-8t-33-21-26-24-18-22l-6-8-21-86q-22-86-22-122 0-48 24-72 16-16 40-16 33 0 67 32 25 23 40 56t33 105q18 72 18 106Z"/><path id="x" d="M624 444q12-3 98-3 75 0 78 3h5v-62h-64L593 11l-3-3-4-4-2-2-3-2q-3-2-2-2t-4-1-4 0-4-1-6 0-8 0h-11q-17 0-24 10t-28 64q-16 40-27 67l-48 120-48-120q-10-26-26-65-21-55-28-65T289-4h-12q-18 0-24 2t-15 13L90 382H25v62h7q15-3 108-3 103 0 121 3h9v-62h-48l88-218 72 178-16 40h-63v62h7q12-3 97-3 101 0 116 3h8v-62h-25q-25 0-25-2 1-4 48-121t48-117l97 240h-57v62h7Z"/><path id="y" d="m40 686 91 4q91 4 92 4h6V533l1-161 8 9q10 13 26 26t53 28 81 15q30 0 50-3t43-13 38-32 22-56q2-11 3-148V62h69V0h-9q-18 3-125 3-115 0-124-3h-9v62h69v213q0 73-9 98t-45 26q-45 0-83-29t-50-80q-2-9-3-119V62h69V0h-9q-18 3-124 3Q64 3 46 0h-9v62h69v391q0 66 1 81 0 59-2 71t-14 15q-14 4-41 4H37v62h3Z"/><path id="z" d="M32 225q0 107 70 167t170 60h11q99 0 153-51 58-58 58-158 0-17-8-21t-46-5h-46q-37 0-67 1H175v-9q0-32 4-55t17-47 40-38 70-19q6-1 17-1 53 0 87 36 11 14 17 26t7 16 8 6 21 2h5q26 0 26-18 0-7-5-20t-21-31-37-34-58-27-81-11Q181-6 107 55T32 225Zm351 51q-6 70-35 98t-68 28q-27 0-50-12t-35-33q-16-26-19-78v-13h207v10Z"/><path id="A" d="M405 293h-31l-50 19-19 49q0 17 7 33 3 3 3 5-10 0-21-5t-28-19-28-46-16-80q-1-8-1-100V62h87V0h-10q-18 3-137 3Q47 3 38 0h-9v62h69v241q0 50-2 60t-13 13q-14 4-41 4H29v62h3l86 4q86 4 87 4h5v-36l1-36q36 71 104 71h6q63 0 92-27t29-62q0-28-18-47Z"/><path id="B" d="M52 289q7 42 54 97t116 56q35 0 64-18t43-45q42 63 101 63 37 0 64-22t28-59q0-29-14-47t-27-22-23-4q-19 0-31 11t-12 29q0 46 50 63-11 13-40 13-13 0-19-2-38-16-56-66-60-221-60-258 0-28 16-40t35-12q37 0 73 33t49 81q3 10 6 11t16 2h4q15 0 15-8 0-1-2-11-16-57-62-101T333-11q-70 0-106 63-41-62-94-62h-6q-49 0-70 26T35 71q0 32 19 52t45 20q43 0 43-42 0-20-12-35t-23-20-13-5l-3-1q0-1 6-4t16-7 19-3q36 0 62 45 9 16 23 68t28 108 16 66q5 27 5 39 0 28-15 40t-34 12q-40 0-75-32t-49-82q-2-9-5-10t-16-2H58q-6 6-6 11Z"/><path id="C" d="M328 0q-21 3-148 3T32 0H21v46h22q49 0 63 3t20 11q2 3 2 282 0 278-2 281-4 5-8 7t-22 5-53 2H21v46h11q21-3 148-3t148 3h11v-46h-22q-49 0-63-3t-20-11q-2-3-2-281 0-279 2-282 4-5 8-7t22-5 53-2h22V0h-11Z"/><path id="D" d="M27 422q53 4 82 56t32 122v15h40V431h135v-46H181V241q1-125 1-141t7-32q14-39 49-39 44 0 54 71 1 8 1 46v35h40v-47q0-77-42-117-27-27-70-27-34 0-59 12t-38 31-19 35-7 32q-1 7-1 148v137H18v37h9Z"/><path id="E" d="M701-940q0-3-6-9h-31q-2 2-28 27t-45 43-54 61-62 81-63 101-62 125-55 149-45 176-29 203-12 234q0 711 364 1110 23 25 43 44t33 32 15 13h31q6-6 6-9 0-5-20-26t-52-59-72-95-81-143-76-191-60-252-32-316q-2-38-2-109 0-389 94-680t290-494q11-12 11-16Z"/><path id="F" d="M94 250q0 69 10 131t23 107 37 88 38 67 42 52 33 34 25 21h17q14 0 14-9 0-3-17-21t-41-53-49-86-42-138-17-193 17-192 41-139 49-86 42-53 17-21q0-9-15-9h-16l-28 24q-94 85-137 212T94 250Z"/><path id="G" d="M51 0q-5 4-5 7 0 2 169 350t173 352q3 7 28 7 23 0 28-7 3-4 172-352T786 7q0-3-5-7H51Zm456 344L384 596 137 92l246-1h247q0 2-123 253Z"/><path id="H" d="M41 46h14q39 0 47 14v107q0 24 1 50t0 55 0 57v153q0 34-1 60t0 44 0 17q-3 19-14 25t-45 9H25v23q0 23 2 23l10 1q10 1 29 2t37 2 37 2 30 3 11 1h3V367q60 75 144 75 123 0 135-113 1-7 1-139v-86q0-38 2-45t11-10q21-3 49-3h16V0h-8l-24 1q-23 1-50 1t-38 1Q319 3 310 0h-8v46h16q61 0 61 16 1 2 1 138-1 135-2 143-6 28-20 42t-24 17-26 2q-45 0-79-34-27-27-34-55t-8-83V108q0-30 1-40t3-13 9-6q21-3 49-3h16V0h-8l-23 1q-24 1-51 1t-38 1Q42 3 33 0h-8v46h16Z"/><path id="I" d="M307-11q-73 0-139 66l-10-18q-2-3-5-9t-6-11-4-7l-5-9-20-1H98v298q0 301-1 305-3 19-14 25t-45 9H20v23q0 23 2 23l10 1q10 1 29 2t37 2 37 2 30 3 11 1h3V543q0-152 1-152l3 3q3 3 9 7t15 10 21 10 26 10 32 8 37 3q78 0 138-63t61-163q0-101-64-164T307-11ZM182 98q0-1 5-8t9-11 10-12 12-12 15-11 17-9 21-6 24-3q35 0 68 20t49 67q12 35 12 99 0 75-12 111-27 82-112 82-30 0-61-15t-51-43l-6-8V98Z"/><path id="J" d="m60 749 4 1h22l28-24q94-85 137-212t43-264q0-68-10-131T261 12t-37-88-38-67-41-51-32-33-23-19l-4-4H63q-3 0-5 3t-3 9q1 1 11 13Q221-64 221 250T66 725q-10 12-11 13 0 8 5 11Z"/><path id="K" d="M39 284q-21 0-21 10 0 7 27 44t54 60q35 27 65 31 6 2 168 2 160 0 165-2 20-5 20-27 0-14-9-26t-23-16q-6-2-96-2t-90-2q-1-1-16-82t-32-165-18-89q-5-15-18-24t-29-9q-33 0-33 33v10l50 162q11 36 24 80t21 64l6 21q0 1-46 1h-11q-9 0-14 1-78 0-122-64-5-8-8-9t-14-2Z"/><path id="L" d="M34 1438q0 8 3 10t13 2h21q2-2 28-27t45-43 54-61 62-81 63-101 62-124 55-149 45-176 29-203 12-234q0-117-7-198-47-572-357-913-23-25-43-44t-33-32-15-13H56q-13 0-17 2t-5 10q54 54 106 124Q428-430 428 251q0 202-26 377t-64 294-93 224-100 163-99 116l-4 4q-2 2-3 4t-3 3l-2 2Z"/><path id="M" d="M224-649v1799h51V-598h236v-51H224Z"/><path id="N" d="M252-598v1748h51V-649H16v51h236Z"/><path id="O" d="M118-162q2 0 6-2t11-3 12-1q13 0 24 13t16 29q10 27 34 153t46 240 22 115v3h-47q-47 0-50 2-4 3-4 10l7 28q2 5 8 5t47 1q48 0 48 1 0 2 9 50t12 58q37 165 146 165 37-2 61-22t24-53q0-36-21-52t-42-17q-44 0-44 42 0 19 11 33t24 21l9 5q-16 6-30 6-12 0-23-10t-15-28q-7-29-16-78t-16-83-7-36q0-2 55-2 45 0 52-1t11-6q1-4-2-17t-5-16q-2-5-9-5t-54-1h-56l-23-122Q301 15 282-47q-27-85-70-126-37-32-73-32-32 0-58 19t-26 54q0 37 21 54t42 17q44 0 44-42 0-19-11-33t-24-21l-9-5Z"/><path id="P" d="M28 214q0 95 65 164t157 70q90 0 155-68t66-165q0-95-64-160T250-10q-97 0-159 67T28 214ZM250 30q122 0 122 163v57q0 22-1 38t-7 38-16 36-31 28-49 20q-5 1-16 1-30 0-57-12-43-22-56-61t-13-92v-20q0-96 19-135 32-61 105-61Z"/><path id="Q" d="M376 495v40q0 24 1 33 0 45-10 56t-51 13h-18v23q0 23 2 23l10 1q10 1 29 2t37 2 37 2 30 3 11 1h3V390q0-306 1-309 3-20 14-26t45-9h18V0q-2 0-76-5t-79-6h-7v55l-8-7q-58-48-130-48-77 0-139 61T34 215q0 100 63 163t147 64q75 0 132-49v102Zm-3-153q-45 63-113 63-49 0-87-36-27-28-34-64t-8-94q0-56 7-91t35-61q30-33 78-33 71 0 122 77v239Z"/><path id="R" d="M56 237v13l14 20h299v150l1 150q10 13 19 13 13 0 20-15V270h298q15-8 15-20t-15-20H409V-68q-8-14-18-14h-4q-12 0-18 14v298H70q-14 7-14 20Z"/><path id="S" d="M246-949v2399h62V-887h263v-62H246Z"/><path id="T" d="M352 287q-48-76-120-76-78 0-128 59T44 396q-2 16-2 40v8q0 93 69 162 60 60 132 60h6q4 0 8-1h4q12 0 25-2t37-12 47-32 43-59q43-88 43-226 0-140-60-237-35-56-84-87T208-22q-61 0-100 29T68 93t53 56q22 0 37-14t15-39q0-18-9-31t-16-16-13-5l-4-1q0-2 7-6t26-10 42-5h6q60 0 101 64 39 56 39 194v7Zm-108-39q48 0 77 49t30 133q0 78-8 112-2 10-6 20t-14 26-30 27-47 10q-38 0-65-27-21-22-27-52t-7-105q0-83 5-112t20-47q25-34 72-34Z"/><path id="U" d="M164 157q0-24-16-40t-39-16h-7q46-79 122-79 70 0 102 60 19 33 19 128 0 103-27 139-26 33-58 33h-6q-78 0-118-68-4-7-7-8t-15-2q-17 0-19 6-2 4-2 175v129q0 50 5 50 2 2 4 2 1 0 21-8t55-16 75-8q71 0 136 28 8 4 13 4 8 0 8-18v-13q-82-97-205-97-31 0-56 6l-10 2V374q19 14 30 22t36 16 51 8q81 0 137-65t56-154q0-92-64-157T229-22q-81 0-130 54T50 154q0 24 11 38t23 18 23 4q25 0 41-17t16-40Z"/><path id="V" d="M55 458q1 2 17 109l16 107q0 2 20 2h20v-4q0-10 15-17t52-9 169-2h121v-39l-68-93-30-40q-21-28-27-37t-21-32-20-36-14-37-13-46-8-54-6-68-3-82V52q0-14-1-24v-9q-4-17-19-29t-34-12q-11 0-21 3T179 0t-11 40q0 158 97 328 20 32 84 121l46 63h-93q-174 0-183-6-6-3-11-24t-10-43l-3-21v-3H55v3Z"/><path id="W" d="M462 0q-18 3-129 3-116 0-134-3h-9v46h58q7 0 17 2t14 5 7 8q1 2 1 54v50H28v46l151 231q153 232 155 233 2 2 21 2h18l6-6V211h92v-46h-92V66q0-7 6-12 8-7 57-8h29V0h-9ZM293 211v334L74 212l109-1h110Z"/><path id="X" d="M127 463q-27 0-42 17t-16 44q0 55 48 98t116 43q35 0 44-1 74-12 113-53t40-89q0-52-34-101t-94-71l-3-2q0-1 9-3t29-9 38-21q82-53 82-140 0-79-62-138T238-22q-80 0-138 43T42 130q0 28 18 45t45 18q28 0 46-18t18-45q0-11-3-20t-7-16-11-12-12-8-10-4-8-3l-4-1q51-45 124-45 55 0 83 53 17 33 17 101v20q0 95-64 127-15 6-61 7l-42 1-3 2q-2 3-2 16 0 18 8 18 28 0 58 5 34 5 62 42t28 112v8q0 57-35 79-22 14-47 14-32 0-59-11t-38-23-11-12h3q3-1 8-2t10-5 12-7 10-11 8-15 3-20q0-22-14-39t-45-18Z"/><path id="Y" d="M96 585q56 81 153 81 48 0 96-26t78-92q37-83 37-228 0-155-43-237-20-42-55-67t-61-31-51-7q-26 0-52 6t-61 32-55 67q-43 82-43 237 0 174 57 265Zm225 12q-30 32-71 32-42 0-72-32-25-26-33-72t-8-192q0-158 8-208t36-79q28-30 69-30 40 0 68 30 29 30 36 84t8 203q0 145-8 191t-33 73Z"/><path id="Z" d="M70 417v77l54 124 124 48q71 0 126-42t55-109q0-30-11-56t-26-42-31-28-26-18-11-8l14-9 28-20q14-10 16-11 75-59 75-149 0-79-58-137T249-22q-90 0-148 51T43 155q0 108 129 180l-18 13q-21 13-27 20-57 49-57 126Zm216-31 6 4 9 6q3 2 10 7t12 10 11 12 11 13 10 16 9 17 5 20 2 22q0 43-29 73t-67 38q-7 1-33 1-41 0-77-26t-37-65q0-23 13-42t26-29 50-32q7-5 11-7l58-38ZM250 21q58 0 100 34t42 82q0 17-5 32t-12 25-22 22-23 18-29 19-27 17q-14 9-30 19t-26 17l-8 5q-6 0-29-17t-48-55-26-82q0-59 43-97t100-39Z"/><path id="aa" d="M274-887v2337h62V-949H11v62h263Z"/></defs><g data-mml-node="math" stroke="currentColor" fill="currentColor" stroke-width="0"><g data-mml-node="mtable"><g data-mml-node="mtr"><g data-mml-node="mtd"><g data-mml-node="msub"><use data-c="1D447" xlink:href="#a" data-mml-node="mi" transform="matrix(1 0 0 -1 1703.1 -5214.8)"/><g data-mml-node="TeXAtom" data-mjx-texclass="ORD"><use data-c="1D441" xlink:href="#b" data-mml-node="mi" transform="matrix(.707 0 0 -.707 2320.1 -5064.8)"/></g></g></g><g data-mml-node="mtd"><use data-c="3D" xlink:href="#c" data-mml-node="mo" transform="matrix(1 0 0 -1 3275.8 -5214.8)"/><g data-mml-node="TeXAtom" data-mjx-texclass="ORD"><g data-mml-node="mi" transform="matrix(1 0 0 -1 4331.6 -5214.8)"><use data-c="6D" xlink:href="#d"/><use data-c="69" xlink:href="#e" transform="translate(833)"/><use data-c="6E" xlink:href="#f" transform="translate(1111)"/></g></g><g data-mml-node="mrow"><use data-c="28" xlink:href="#g" data-mml-node="mo" transform="matrix(1 0 0 -1 6165.2 -5214.3)"/><g data-mml-node="TeXAtom" data-mjx-texclass="ORD"><g data-mml-node="mi" transform="matrix(1 0 0 -1 6623.2 -5214.8)"><use data-c="6D" xlink:href="#d"/><use data-c="61" xlink:href="#h" transform="translate(833)"/><use data-c="78" xlink:href="#i" transform="translate(1333)"/></g></g><g data-mml-node="mrow"><use data-c="28" xlink:href="#g" data-mml-node="mo" transform="matrix(1 0 0 -1 8650.9 -5214.3)"/><g data-mml-node="mrow"><use data-c="230A" xlink:href="#j" data-mml-node="mo" transform="matrix(1 0 0 -1 9108.9 -5214.3)"/><g data-mml-node="msub"><use data-c="1D447" xlink:href="#a" data-mml-node="mi" transform="matrix(1 0 0 -1 9580.9 -5214.8)"/><g data-mml-node="TeXAtom" data-mjx-texclass="ORD"><use data-c="1D460" xlink:href="#k" data-mml-node="mi" transform="matrix(.707 0 0 -.707 10197.9 -5064.8)"/></g></g><use data-c="22C5" xlink:href="#l" data-mml-node="mo" transform="matrix(1 0 0 -1 10801.8 -5214.8)"/><use data-c="1D439" xlink:href="#m" data-mml-node="mi" transform="matrix(1 0 0 -1 11302 -5214.8)"/><use data-c="22C5" xlink:href="#l" data-mml-node="mo" transform="matrix(1 0 0 -1 12273.2 -5214.8)"/><g data-mml-node="msup"><use data-c="32" xlink:href="#n" data-mml-node="mn" transform="matrix(1 0 0 -1 12773.4 -5214.8)"/><g data-mml-node="TeXAtom" data-mjx-texclass="ORD"><use data-c="1D45B" xlink:href="#o" data-mml-node="mi" transform="matrix(.707 0 0 -.707 13306.4 -5627.8)"/><use data-c="2212" xlink:href="#p" data-mml-node="mo" transform="matrix(.707 0 0 -.707 13730.6 -5627.8)"/><g data-mml-node="mn" transform="matrix(.707 0 0 -.707 14280.646 -5627.8)"><use data-c="31" xlink:href="#q"/><use data-c="36" xlink:href="#r" transform="translate(500)"/></g></g></g><use data-c="230B" xlink:href="#s" data-mml-node="mo" transform="matrix(1 0 0 -1 15037.9 -5214.3)"/></g><use data-c="2C" xlink:href="#t" data-mml-node="mo" transform="matrix(1 0 0 -1 15509.9 -5214.8)"/><use data-c="31" xlink:href="#q" data-mml-node="mn" transform="matrix(1 0 0 -1 15954.6 -5214.8)"/><use data-c="29" xlink:href="#u" data-mml-node="mo" transform="matrix(1 0 0 -1 16454.6 -5214.3)"/></g><use data-c="2C" xlink:href="#t" data-mml-node="mo" transform="matrix(1 0 0 -1 16912.6 -5214.8)"/><g data-mml-node="msub"><use data-c="1D447" xlink:href="#a" data-mml-node="mi" transform="matrix(1 0 0 -1 17357.2 -5214.8)"/><g data-mml-node="TeXAtom" data-mjx-texclass="ORD"><use data-c="1D462" xlink:href="#v" data-mml-node="mi" transform="matrix(.707 0 0 -.707 17974.2 -5064.8)"/><use data-c="1D44F" xlink:href="#w" data-mml-node="mi" transform="matrix(.707 0 0 -.707 18378.604 -5064.8)"/></g></g><use data-c="29" xlink:href="#u" data-mml-node="mo" transform="matrix(1 0 0 -1 18732 -5214.3)"/></g></g></g><g data-mml-node="mtr"><g data-mml-node="mtd"><g data-mml-node="mtext" transform="matrix(1 0 0 -1 0 -3815.3)"><use data-c="1D430" xlink:href="#x"/><use data-c="1D421" xlink:href="#y" transform="translate(831)"/><use data-c="1D41E" xlink:href="#z" transform="translate(1470)"/><use data-c="1D42B" xlink:href="#A" transform="translate(1997)"/><use data-c="1D41E" xlink:href="#z" transform="translate(2471)"/></g></g></g><g data-mml-node="mtr"><g data-mml-node="mtd"><use data-c="1D465" xlink:href="#B" data-mml-node="mi" transform="matrix(1 0 0 -1 2426 -1721.4)"/></g><g data-mml-node="mtd"><use data-c="3D" xlink:href="#c" data-mml-node="mo" transform="matrix(1 0 0 -1 3275.8 -1721.4)"/><g data-mml-node="TeXAtom" data-mjx-texclass="ORD"><use data-c="49" xlink:href="#C" data-mml-node="mi" transform="matrix(1 0 0 -1 4331.6 -1721.4)"/><use data-c="6E" xlink:href="#f" data-mml-node="mi" transform="matrix(1 0 0 -1 4692.6 -1721.4)"/><use data-c="74" xlink:href="#D" data-mml-node="mi" transform="matrix(1 0 0 -1 5248.6 -1721.4)"/></g><g data-mml-node="mrow"><use data-c="28" xlink:href="#E" data-mml-node="mo" transform="matrix(1 0 0 -1 5804.2 -1720.9)"/><g data-mml-node="mfrac"><g data-mml-node="mrow"><g data-mml-node="msup"><use data-c="32" xlink:href="#n" data-mml-node="mn" transform="matrix(1 0 0 -1 6760.2 -2431.4)"/><g data-mml-node="TeXAtom" data-mjx-texclass="ORD"><g data-mml-node="mn" transform="matrix(.707 0 0 -.707 7293.2 -2794.4)"><use data-c="31" xlink:href="#q"/><use data-c="36" xlink:href="#r" transform="translate(500)"/></g></g></g><use data-c="28" xlink:href="#F" data-mml-node="mo" transform="matrix(1 0 0 -1 8050.3 -2431.4)"/><use data-c="394" xlink:href="#G" data-mml-node="mi" transform="matrix(1 0 0 -1 8439.3 -2431.4)"/><use data-c="74" xlink:href="#D" data-mml-node="mi" transform="matrix(1 0 0 -1 9272.3 -2431.4)"/><use data-c="2212" xlink:href="#p" data-mml-node="mo" transform="matrix(1 0 0 -1 9883.5 -2431.4)"/><use data-c="394" xlink:href="#G" data-mml-node="mi" transform="matrix(1 0 0 -1 10883.8 -2431.4)"/><use data-c="68" xlink:href="#H" data-mml-node="mi" transform="matrix(1 0 0 -1 11716.8 -2431.4)"/><use data-c="22C5" xlink:href="#l" data-mml-node="mo" transform="matrix(1 0 0 -1 12495 -2431.4)"/><g data-mml-node="msub"><use data-c="49" xlink:href="#C" data-mml-node="mi" transform="matrix(1 0 0 -1 12995.2 -2431.4)"/><g data-mml-node="TeXAtom" data-mjx-texclass="ORD"><use data-c="62" xlink:href="#I" data-mml-node="mi" transform="matrix(.707 0 0 -.707 13389.2 -2281.4)"/></g></g><use data-c="29" xlink:href="#J" data-mml-node="mo" transform="matrix(1 0 0 -1 13832.3 -2431.4)"/></g><use data-c="1D70F" xlink:href="#K" data-mml-node="mi" transform="matrix(1 0 0 -1 10232.3 -1035.4)"/><path d="M6660.2-1941.4h7661.1v-60H6660.2z" stroke="none"/></g><use data-c="29" xlink:href="#L" data-mml-node="mo" transform="matrix(1 0 0 -1 14441.3 -1720.9)"/></g></g></g><g data-mml-node="mtr"><g data-mml-node="mtd"><use data-c="1D45B" xlink:href="#o" data-mml-node="mi" transform="matrix(1 0 0 -1 2398 677.6)"/></g><g data-mml-node="mtd"><use data-c="3D" xlink:href="#c" data-mml-node="mo" transform="matrix(1 0 0 -1 3275.8 677.6)"/><g data-mml-node="mrow"><use data-c="230A" xlink:href="#M" data-mml-node="mo" transform="matrix(1 0 0 -1 4331.6 678.1)"/><g data-mml-node="mfrac"><use data-c="1D465" xlink:href="#B" data-mml-node="mi" transform="matrix(1 0 0 -1 5438.7 1.6)"/><g data-mml-node="msup"><use data-c="32" xlink:href="#n" data-mml-node="mn" transform="matrix(1 0 0 -1 5079.6 1397.5)"/><g data-mml-node="TeXAtom" data-mjx-texclass="ORD"><g data-mml-node="mn" transform="matrix(.707 0 0 -.707 5612.6 1108.5)"><use data-c="31" xlink:href="#q"/><use data-c="36" xlink:href="#r" transform="translate(500)"/></g></g></g><path d="M4979.6 457.6h1490.1v-60H4979.6z" stroke="none"/></g><use data-c="230B" xlink:href="#N" data-mml-node="mo" transform="matrix(1 0 0 -1 6589.7 678.1)"/></g></g></g><g data-mml-node="mtr"><g data-mml-node="mtd"><use data-c="1D453" xlink:href="#O" data-mml-node="mi" transform="matrix(1 0 0 -1 2448 2581.5)"/></g><g data-mml-node="mtd"><use data-c="3D" xlink:href="#c" data-mml-node="mo" transform="matrix(1 0 0 -1 3275.8 2581.5)"/><use data-c="1D465" xlink:href="#B" data-mml-node="mi" transform="matrix(1 0 0 -1 4331.6 2581.5)"/><g data-mml-node="mo" transform="matrix(1 0 0 -1 5181.3 2581.5)"><use data-c="6D" xlink:href="#d"/><use data-c="6F" xlink:href="#P" transform="translate(833)"/><use data-c="64" xlink:href="#Q" transform="translate(1333)"/></g><g data-mml-node="TeXAtom" data-mjx-texclass="ORD"><g data-mml-node="msup"><use data-c="32" xlink:href="#n" data-mml-node="mn" transform="matrix(1 0 0 -1 7348.1 2581.5)"/><g data-mml-node="TeXAtom" data-mjx-texclass="ORD"><g data-mml-node="mn" transform="matrix(.707 0 0 -.707 7881.1 2168.5)"><use data-c="31" xlink:href="#q"/><use data-c="36" xlink:href="#r" transform="translate(500)"/></g></g></g></g></g></g><g data-mml-node="mtr"><g data-mml-node="mtd"><use data-c="1D439" xlink:href="#m" data-mml-node="mi" transform="matrix(1 0 0 -1 2249 4649.2)"/></g><g data-mml-node="mtd"><use data-c="3D" xlink:href="#c" data-mml-node="mo" transform="matrix(1 0 0 -1 3275.8 4649.2)"/><g data-mml-node="msup"><use data-c="32" xlink:href="#n" data-mml-node="mn" transform="matrix(1 0 0 -1 4331.6 4649.2)"/><g data-mml-node="TeXAtom" data-mjx-texclass="ORD"><g data-mml-node="mn" transform="matrix(.707 0 0 -.707 4864.6 4236.2)"><use data-c="31" xlink:href="#q"/><use data-c="36" xlink:href="#r" transform="translate(500)"/></g></g></g><use data-c="2B" xlink:href="#R" data-mml-node="mo" transform="matrix(1 0 0 -1 5843.9 4649.2)"/><g data-mml-node="mrow"><use data-c="230A" xlink:href="#S" data-mml-node="mo" transform="matrix(1 0 0 -1 6844.1 4649.7)"/><g data-mml-node="mfrac"><g data-mml-node="mrow"><g data-mml-node="mn" transform="matrix(1 0 0 -1 7647.1 3973.2)"><use data-c="31" xlink:href="#q"/><use data-c="39" xlink:href="#T" transform="translate(500)"/><use data-c="35" xlink:href="#U" transform="translate(1000)"/><use data-c="37" xlink:href="#V" transform="translate(1500)"/><use data-c="36" xlink:href="#r" transform="translate(2000)"/><use data-c="36" xlink:href="#r" transform="translate(2500)"/><use data-c="34" xlink:href="#W" transform="translate(3000)"/><use data-c="32" xlink:href="#n" transform="translate(3500)"/><use data-c="33" xlink:href="#X" transform="translate(4000)"/><use data-c="32" xlink:href="#n" transform="translate(4500)"/><use data-c="34" xlink:href="#W" transform="translate(5000)"/><use data-c="35" xlink:href="#U" transform="translate(5500)"/><use data-c="30" xlink:href="#Y" transform="translate(6000)"/><use data-c="34" xlink:href="#W" transform="translate(6500)"/><use data-c="39" xlink:href="#T" transform="translate(7000)"/></g><use data-c="1D453" xlink:href="#O" data-mml-node="mi" transform="matrix(1 0 0 -1 15147.1 3973.2)"/><use data-c="2B" xlink:href="#R" data-mml-node="mo" transform="matrix(1 0 0 -1 15919.3 3973.2)"/><g data-mml-node="mn" transform="matrix(1 0 0 -1 16919.5 3973.2)"><use data-c="39" xlink:href="#T"/><use data-c="37" xlink:href="#V" transform="translate(500)"/><use data-c="31" xlink:href="#q" transform="translate(1000)"/><use data-c="38" xlink:href="#Z" transform="translate(1500)"/><use data-c="32" xlink:href="#n" transform="translate(2000)"/><use data-c="31" xlink:href="#q" transform="translate(2500)"/><use data-c="33" xlink:href="#X" transform="translate(3000)"/><use data-c="37" xlink:href="#V" transform="translate(3500)"/><use data-c="36" xlink:href="#r" transform="translate(4000)"/></g><g data-mml-node="msup"><use data-c="1D453" xlink:href="#O" data-mml-node="mi" transform="matrix(1 0 0 -1 21419.5 3973.2)"/><g data-mml-node="TeXAtom" data-mjx-texclass="ORD"><use data-c="32" xlink:href="#n" data-mml-node="mn" transform="matrix(.707 0 0 -.707 22055.5 3610.2)"/></g></g><use data-c="2B" xlink:href="#R" data-mml-node="mo" transform="matrix(1 0 0 -1 22681.3 3973.2)"/><g data-mml-node="mn" transform="matrix(1 0 0 -1 23681.5 3973.2)"><use data-c="35" xlink:href="#U"/><use data-c="31" xlink:href="#q" transform="translate(500)"/><use data-c="32" xlink:href="#n" transform="translate(1000)"/><use data-c="37" xlink:href="#V" transform="translate(1500)"/></g><g data-mml-node="msup"><use data-c="1D453" xlink:href="#O" data-mml-node="mi" transform="matrix(1 0 0 -1 25681.5 3973.2)"/><g data-mml-node="TeXAtom" data-mjx-texclass="ORD"><use data-c="33" xlink:href="#X" data-mml-node="mn" transform="matrix(.707 0 0 -.707 26317.5 3610.2)"/></g></g><use data-c="2B" xlink:href="#R" data-mml-node="mo" transform="matrix(1 0 0 -1 26943.3 3973.2)"/><g data-mml-node="msup"><use data-c="32" xlink:href="#n" data-mml-node="mn" transform="matrix(1 0 0 -1 27943.5 3973.2)"/><g data-mml-node="TeXAtom" data-mjx-texclass="ORD"><g data-mml-node="mn" transform="matrix(.707 0 0 -.707 28476.5 3610.2)"><use data-c="34" xlink:href="#W"/><use data-c="37" xlink:href="#V" transform="translate(500)"/></g></g></g></g><g data-mml-node="msup"><use data-c="32" xlink:href="#n" data-mml-node="mn" transform="matrix(1 0 0 -1 17795.3 5376.9)"/><g data-mml-node="TeXAtom" data-mjx-texclass="ORD"><g data-mml-node="mn" transform="matrix(.707 0 0 -.707 18328.3 5087.9)"><use data-c="34" xlink:href="#W"/><use data-c="38" xlink:href="#Z" transform="translate(500)"/></g></g></g><path d="M7547.1 4429.2h21786.5v-60H7547.1z" stroke="none"/></g><use data-c="230B" xlink:href="#aa" data-mml-node="mo" transform="matrix(1 0 0 -1 29453.6 4649.7)"/></g></g></g></g></g></svg>