<?xml version="1.0" encoding="UTF-8" standalone="no" ?><svg xmlns="http://www.w3.org/2000/svg" width="1066.234" height="28.405" viewBox="0 -883.9 36251.8 965.9" xmlns:xlink="http://www.w3.org/1999/xlink" aria-hidden="true"><defs><path id="a" d="M109 429q-27 0-43 18t-16 44q0 71 53 123t132 52q91 0 152-56t62-145q0-43-20-82t-48-68-80-74q-36-31-100-92l-59-56 76-1q157 0 167 5 7 2 24 89v3h40v-3q-1-3-13-91T421 3V0H50v31q0 7 6 15t30 35q29 32 50 56 9 10 34 37t34 37 29 33 28 34 23 30 21 32 15 29 13 32 7 30 3 33q0 63-34 109t-97 46q-33 0-58-17t-35-33-10-19q0-1 5-1 18 0 37-14t19-46q0-25-16-42t-45-18Z"/><path id="b" d="m213 578-13-5q-14-5-40-10t-58-7H83v46h19q47 2 87 15t56 24 28 22q2 3 12 3 9 0 17-6V361l1-300q7-7 12-9t24-4 62-2h26V0h-11q-21 3-159 3-136 0-157-3H88v46h64q16 0 25 1t16 3 8 2 6 5 6 4v517Z"/><path id="c" d="M42 313q0 163 81 258t180 95q69 0 99-36t30-80q0-25-14-40t-39-15q-23 0-38 14t-15 39q0 44 47 53-22 22-62 25-71 0-117-60-47-66-47-202l1-4q5 6 8 13 41 60 107 60h4q46 0 81-19 24-14 48-40t39-57q21-49 21-107v-18q0-23-5-43-11-59-64-115T253-22q-28 0-54 8t-56 30-51 59-36 97-14 141Zm215 84q-30 0-52-17t-34-45-17-57-6-62q0-83 12-119t38-58q24-18 53-18 51 0 78 38 13 18 18 45t5 105q0 80-5 107t-18 45q-27 36-72 36Z"/><path id="d" d="M78 250q0 24 17 42t43 18q24 0 42-16t19-43q0-25-17-43t-43-18-43 17-18 43Z"/><path id="e" d="M52 289q7 42 54 97t116 56q35 0 64-18t43-45q42 63 101 63 37 0 64-22t28-59q0-29-14-47t-27-22-23-4q-19 0-31 11t-12 29q0 46 50 63-11 13-40 13-13 0-19-2-38-16-56-66-60-221-60-258 0-28 16-40t35-12q37 0 73 33t49 81q3 10 6 11t16 2h4q15 0 15-8 0-1-2-11-16-57-62-101T333-11q-70 0-106 63-41-62-94-62h-6q-49 0-70 26T35 71q0 32 19 52t45 20q43 0 43-42 0-20-12-35t-23-20-13-5l-3-1q0-1 6-4t16-7 19-3q36 0 62 45 9 16 23 68t28 108 16 66q5 27 5 39 0 28-15 40t-34 12q-40 0-75-32t-49-82q-2-9-5-10t-16-2H58q-6 6-6 11Z"/><path id="f" d="M55 319q0 41 17 74t42 51 49 28 42 10h8q6 0 10 1 39 0 73-15t97-55l50-32q59-35 110-35 56 0 96 29t45 79q0 11 4 20t10 9q14 0 14-31 0-66-47-114t-120-49q-41 0-87 21t-80 47-80 47-84 22q-60 0-99-33t-42-75q-2-29-14-29-14 0-14 30Zm0-234q0 41 17 74t42 51 49 28 42 10h8q6 0 10 1 39 0 73-15t97-55l50-32q59-35 110-35 56 0 96 29t45 79q0 29 14 29t14-32q0-64-47-113T555 55q-41 0-87 21t-80 47-80 47-84 22q-60 0-99-33T83 84q-3-29-14-29-14 0-14 30Z"/><path id="g" d="M56 237v13l14 20h299v150l1 150q10 13 19 13 13 0 20-15V270h298q15-8 15-20t-15-20H409V-68q-8-14-18-14h-4q-12 0-18 14v298H70q-14 7-14 20Z"/><path id="h" d="M96 585q56 81 153 81 48 0 96-26t78-92q37-83 37-228 0-155-43-237-20-42-55-67t-61-31-51-7q-26 0-52 6t-61 32-55 67q-43 82-43 237 0 174 57 265Zm225 12q-30 32-71 32-42 0-72-32-25-26-33-72t-8-192q0-158 8-208t36-79q28-30 69-30 40 0 68 30 29 30 36 84t8 203q0 145-8 191t-33 73Z"/><path id="i" d="M78 60q0 24 17 42t43 18q24 0 42-16t19-43q0-25-17-43T139 0 96 17 78 60Z"/><path id="j" d="M352 287q-48-76-120-76-78 0-128 59T44 396q-2 16-2 40v8q0 93 69 162 60 60 132 60h6q4 0 8-1h4q12 0 25-2t37-12 47-32 43-59q43-88 43-226 0-140-60-237-35-56-84-87T208-22q-61 0-100 29T68 93t53 56q22 0 37-14t15-39q0-18-9-31t-16-16-13-5l-4-1q0-2 7-6t26-10 42-5h6q60 0 101 64 39 56 39 194v7Zm-108-39q48 0 77 49t30 133q0 78-8 112-2 10-6 20t-14 26-30 27-47 10q-38 0-65-27-21-22-27-52t-7-105q0-83 5-112t20-47q25-34 72-34Z"/><path id="k" d="M164 157q0-24-16-40t-39-16h-7q46-79 122-79 70 0 102 60 19 33 19 128 0 103-27 139-26 33-58 33h-6q-78 0-118-68-4-7-7-8t-15-2q-17 0-19 6-2 4-2 175v129q0 50 5 50 2 2 4 2 1 0 21-8t55-16 75-8q71 0 136 28 8 4 13 4 8 0 8-18v-13q-82-97-205-97-31 0-56 6l-10 2V374q19 14 30 22t36 16 51 8q81 0 137-65t56-154q0-92-64-157T229-22q-81 0-130 54T50 154q0 24 11 38t23 18 23 4q25 0 41-17t16-40Z"/><path id="l" d="M462 0q-18 3-129 3-116 0-134-3h-9v46h58q7 0 17 2t14 5 7 8q1 2 1 54v50H28v46l151 231q153 232 155 233 2 2 21 2h18l6-6V211h92v-46h-92V66q0-7 6-12 8-7 57-8h29V0h-9ZM293 211v334L74 212l109-1h110Z"/><path id="m" d="M55 458q1 2 17 109l16 107q0 2 20 2h20v-4q0-10 15-17t52-9 169-2h121v-39l-68-93-30-40q-21-28-27-37t-21-32-20-36-14-37-13-46-8-54-6-68-3-82V52q0-14-1-24v-9q-4-17-19-29t-34-12q-11 0-21 3T179 0t-11 40q0 158 97 328 20 32 84 121l46 63h-93q-174 0-183-6-6-3-11-24t-10-43l-3-21v-3H55v3Z"/><path id="n" d="M127 463q-27 0-42 17t-16 44q0 55 48 98t116 43q35 0 44-1 74-12 113-53t40-89q0-52-34-101t-94-71l-3-2q0-1 9-3t29-9 38-21q82-53 82-140 0-79-62-138T238-22q-80 0-138 43T42 130q0 28 18 45t45 18q28 0 46-18t18-45q0-11-3-20t-7-16-11-12-12-8-10-4-8-3l-4-1q51-45 124-45 55 0 83 53 17 33 17 101v20q0 95-64 127-15 6-61 7l-42 1-3 2q-2 3-2 16 0 18 8 18 28 0 58 5 34 5 62 42t28 112v8q0 57-35 79-22 14-47 14-32 0-59-11t-38-23-11-12h3q3-1 8-2t10-5 12-7 10-11 8-15 3-20q0-22-14-39t-45-18Z"/><path id="o" d="M70 417v77l54 124 124 48q71 0 126-42t55-109q0-30-11-56t-26-42-31-28-26-18-11-8l14-9 28-20q14-10 16-11 75-59 75-149 0-79-58-137T249-22q-90 0-148 51T43 155q0 108 129 180l-18 13q-21 13-27 20-57 49-57 126Zm216-31 6 4 9 6q3 2 10 7t12 10 11 12 11 13 10 16 9 17 5 20 2 22q0 43-29 73t-67 38q-7 1-33 1-41 0-77-26t-37-65q0-23 13-42t26-29 50-32q7-5 11-7l58-38ZM250 21q58 0 100 34t42 82q0 17-5 32t-12 25-22 22-23 18-29 19-27 17q-14 9-30 19t-26 17l-8 5q-6 0-29-17t-48-55-26-82q0-59 43-97t100-39Z"/></defs><g data-mml-node="math" stroke="currentColor" fill="currentColor" stroke-width="0"><g data-mml-node="msup"><use data-c="32" xlink:href="#a" data-mml-node="mn" transform="scale(1 -1)"/><g data-mml-node="TeXAtom" data-mjx-texclass="ORD"><g data-mml-node="mn" transform="matrix(.707 0 0 -.707 533 -413)"><use data-c="31" xlink:href="#b"/><use data-c="36" xlink:href="#c" transform="translate(500)"/></g></g></g><use data-c="22C5" xlink:href="#d" data-mml-node="mo" transform="matrix(1 0 0 -1 1512.3 0)"/><g data-mml-node="msup"><use data-c="32" xlink:href="#a" data-mml-node="mn" transform="matrix(1 0 0 -1 2012.6 0)"/><use data-c="1D465" xlink:href="#e" data-mml-node="mi" transform="matrix(.707 0 0 -.707 2545.6 -413)"/></g><use data-c="2248" xlink:href="#f" data-mml-node="mo" transform="matrix(1 0 0 -1 3277.8 0)"/><g data-mml-node="msup"><use data-c="32" xlink:href="#a" data-mml-node="mn" transform="matrix(1 0 0 -1 4333.6 0)"/><g data-mml-node="TeXAtom" data-mjx-texclass="ORD"><g data-mml-node="mn" transform="matrix(.707 0 0 -.707 4866.6 -413)"><use data-c="31" xlink:href="#b"/><use data-c="36" xlink:href="#c" transform="translate(500)"/></g></g></g><use data-c="2B" xlink:href="#g" data-mml-node="mo" transform="matrix(1 0 0 -1 5845.9 0)"/><g data-mml-node="msup"><use data-c="32" xlink:href="#a" data-mml-node="mn" transform="matrix(1 0 0 -1 6846.1 0)"/><g data-mml-node="TeXAtom" data-mjx-texclass="ORD"><g data-mml-node="mn" transform="matrix(.707 0 0 -.707 7379.1 -413)"><use data-c="31" xlink:href="#b"/><use data-c="36" xlink:href="#c" transform="translate(500)"/></g></g></g><use data-c="22C5" xlink:href="#d" data-mml-node="mo" transform="matrix(1 0 0 -1 8358.5 0)"/><g data-mml-node="mn" transform="matrix(1 0 0 -1 8858.7 0)"><use data-c="30" xlink:href="#h"/><use data-c="2E" xlink:href="#i" transform="translate(500)"/><use data-c="36" xlink:href="#c" transform="translate(778)"/><use data-c="39" xlink:href="#j" transform="translate(1278)"/><use data-c="35" xlink:href="#k" transform="translate(1778)"/><use data-c="35" xlink:href="#k" transform="translate(2278)"/><use data-c="30" xlink:href="#h" transform="translate(2778)"/><use data-c="32" xlink:href="#a" transform="translate(3278)"/><use data-c="30" xlink:href="#h" transform="translate(3778)"/><use data-c="34" xlink:href="#l" transform="translate(4278)"/><use data-c="39" xlink:href="#j" transform="translate(4778)"/><use data-c="37" xlink:href="#m" transform="translate(5278)"/><use data-c="31" xlink:href="#b" transform="translate(5778)"/><use data-c="32" xlink:href="#a" transform="translate(6278)"/><use data-c="35" xlink:href="#k" transform="translate(6778)"/><use data-c="33" xlink:href="#n" transform="translate(7278)"/><use data-c="33" xlink:href="#n" transform="translate(7778)"/></g><use data-c="1D465" xlink:href="#e" data-mml-node="mi" transform="matrix(1 0 0 -1 17136.7 0)"/><use data-c="2B" xlink:href="#g" data-mml-node="mo" transform="matrix(1 0 0 -1 17930.9 0)"/><g data-mml-node="msup"><use data-c="32" xlink:href="#a" data-mml-node="mn" transform="matrix(1 0 0 -1 18931.1 0)"/><g data-mml-node="TeXAtom" data-mjx-texclass="ORD"><g data-mml-node="mn" transform="matrix(.707 0 0 -.707 19464.1 -413)"><use data-c="31" xlink:href="#b"/><use data-c="36" xlink:href="#c" transform="translate(500)"/></g></g></g><use data-c="22C5" xlink:href="#d" data-mml-node="mo" transform="matrix(1 0 0 -1 20443.4 0)"/><g data-mml-node="mn" transform="matrix(1 0 0 -1 20943.7 0)"><use data-c="30" xlink:href="#h"/><use data-c="2E" xlink:href="#i" transform="translate(500)"/><use data-c="32" xlink:href="#a" transform="translate(778)"/><use data-c="32" xlink:href="#a" transform="translate(1278)"/><use data-c="36" xlink:href="#c" transform="translate(1778)"/><use data-c="32" xlink:href="#a" transform="translate(2278)"/><use data-c="36" xlink:href="#c" transform="translate(2778)"/><use data-c="39" xlink:href="#j" transform="translate(3278)"/><use data-c="37" xlink:href="#m" transform="translate(3778)"/><use data-c="39" xlink:href="#j" transform="translate(4278)"/><use data-c="36" xlink:href="#c" transform="translate(4778)"/><use data-c="34" xlink:href="#l" transform="translate(5278)"/></g><g data-mml-node="msup"><use data-c="1D465" xlink:href="#e" data-mml-node="mi" transform="matrix(1 0 0 -1 26721.7 0)"/><use data-c="32" xlink:href="#a" data-mml-node="mn" transform="matrix(.707 0 0 -.707 27326.7 -413)"/></g><use data-c="2B" xlink:href="#g" data-mml-node="mo" transform="matrix(1 0 0 -1 27952.4 0)"/><g data-mml-node="msup"><use data-c="32" xlink:href="#a" data-mml-node="mn" transform="matrix(1 0 0 -1 28952.7 0)"/><g data-mml-node="TeXAtom" data-mjx-texclass="ORD"><g data-mml-node="mn" transform="matrix(.707 0 0 -.707 29485.7 -413)"><use data-c="31" xlink:href="#b"/><use data-c="36" xlink:href="#c" transform="translate(500)"/></g></g></g><use data-c="22C5" xlink:href="#d" data-mml-node="mo" transform="matrix(1 0 0 -1 30465 0)"/><g data-mml-node="mn" transform="matrix(1 0 0 -1 30965.2 0)"><use data-c="30" xlink:href="#h"/><use data-c="2E" xlink:href="#i" transform="translate(500)"/><use data-c="30" xlink:href="#h" transform="translate(778)"/><use data-c="37" xlink:href="#m" transform="translate(1278)"/><use data-c="38" xlink:href="#o" transform="translate(1778)"/><use data-c="32" xlink:href="#a" transform="translate(2278)"/><use data-c="33" xlink:href="#n" transform="translate(2778)"/><use data-c="31" xlink:href="#b" transform="translate(3278)"/><use data-c="38" xlink:href="#o" transform="translate(3778)"/></g><g data-mml-node="msup"><use data-c="1D465" xlink:href="#e" data-mml-node="mi" transform="matrix(1 0 0 -1 35243.2 0)"/><use data-c="33" xlink:href="#n" data-mml-node="mn" transform="matrix(.707 0 0 -.707 35848.2 -413)"/></g></g></svg>