<?xml version="1.0" encoding="UTF-8" standalone="no" ?><svg xmlns="http://www.w3.org/2000/svg" width="514.319" height="36.283" viewBox="0 -883.9 17487 1233.4" xmlns:xlink="http://www.w3.org/1999/xlink" aria-hidden="true"><defs><path id="a" d="M40 437q-19 0-19 8 0 5 16 56t34 101l17 49q5 18 13 26h558q32 0 38-1t7-9q0-6-17-114t-19-109q0-7-19-7h-12q-3 0-6 5l-2 3q0 6 6 45t6 61q0 35-13 53t-55 25q-5 1-58 2-46 0-58-1t-18-8q-1-1-71-279T298 60q0-12 88-14 32 0 41-1t9-9q0-5-3-14-4-18-9-21l-2-1h-7q-5 0-52 1T228 2Q99 2 64 0H49q-6 6-6 9t2 18q4 13 10 19h39q80 0 95 9 1 1 2 1 5 3 10 20t40 157q17 68 28 111 70 275 70 281 0 5-29 5h-31q-67 0-88-6-45-10-70-41T67 467q-7-22-10-26t-14-4h-3Z"/><path id="b" d="M234 637h-8q-25 0-30 1t-5 11q0 27 11 33 2 1 97 1h88q11 0 14-6 211-496 215-509l54 213q53 211 53 225 0 27-64 31-24 0-24 11 0 2 2 12 4 16 6 19t10 4q3 0 31-1t83-2q50 0 76 1t30 1q15 0 15-10 0-22-8-30-2-5-22-5-71-4-89-40L620 7q-2-7-21-7-14 0-17 2-3 3-129 303L326 604l-65-260Q196 88 196 79q5-33 72-33h10q6-5 6-8t-2-19q-4-13-10-19h-13q-31 2-108 2H63Q49 2 46 1q-15 0-15 9 0 4 3 16t5 14q2 6 23 6 68 3 88 39 4 6 71 277l68 272q-2 1-55 3Z"/><path id="c" d="M56 347q0 13 14 20h637q15-8 15-20 0-11-14-19l-318-1H72q-16 5-16 20Zm0-194q0 15 16 20h636q14-10 14-20 0-13-15-20H70q-14 7-14 20Z"/><path id="d" d="M41 46h14q39 0 47 14v62q0 17 1 39t0 42v66q0 35-1 59v23q-3 19-14 25t-45 9H25v23q0 23 2 23l10 1q10 1 28 2t37 2q17 1 36 2t29 3 11 1h3v-40q0-38 1-38t5 5 12 15 19 18 29 19 38 16q20 5 51 5 15 0 28-2t23-6 19-8 15-9 11-11 9-11 7-11 4-10 3-8l2-5 3 4 6 8q3 4 9 11t13 13 15 13 20 12 23 10 26 7 31 3q126 0 137-113 1-7 1-139v-86q0-38 2-45t11-10q21-3 49-3h16V0h-8l-23 1q-24 1-51 1t-38 1Q596 3 587 0h-8v46h16q61 0 61 16 1 2 1 138-1 135-2 143-6 28-20 42t-24 17-26 2q-45 0-79-34-27-27-34-55t-8-83V108q0-30 1-40t3-13 9-6q21-3 49-3h16V0h-8l-24 1q-23 1-50 1t-38 1Q319 3 310 0h-8v46h16q61 0 61 16 1 2 1 138-1 135-2 143-6 28-20 42t-24 17-26 2q-45 0-79-34-27-27-34-55t-8-83V108q0-30 1-40t3-13 9-6q21-3 49-3h16V0h-8l-23 1q-24 1-51 1t-38 1Q42 3 33 0h-8v46h16Z"/><path id="e" d="M69 609q0 28 18 44t44 16q23-2 40-17t17-43q0-30-17-45t-42-15q-25 0-42 15t-18 45ZM247 0q-15 3-104 3h-37Q80 3 56 1L34 0h-8v46h16q28 0 49 3 9 4 11 11t2 42v191q0 52-2 66t-14 19q-14 7-47 7H30v23q0 23 2 23l10 1q10 1 28 2t36 2 36 2 29 3 11 1h3V62q5-10 12-12t35-4h23V0h-8Z"/><path id="f" d="M41 46h14q39 0 47 14v62q0 17 1 39t0 42v66q0 35-1 59v23q-3 19-14 25t-45 9H25v23q0 23 2 23l10 1q10 1 28 2t37 2q17 1 36 2t29 3 11 1h3v-40q0-38 1-38t5 5 12 15 19 18 29 19 38 16q20 5 51 5 114-4 127-113 1-7 1-139v-86q0-38 2-45t11-10q21-3 49-3h16V0h-8l-24 1q-23 1-50 1t-38 1Q319 3 310 0h-8v46h16q61 0 61 16 1 2 1 138-1 135-2 143-6 28-20 42t-24 17-26 2q-45 0-79-34-27-27-34-55t-8-83V108q0-30 1-40t3-13 9-6q21-3 49-3h16V0h-8l-23 1q-24 1-51 1t-38 1Q42 3 33 0h-8v46h16Z"/><path id="g" d="M152 251q0 395 236 599h28q6-6 6-9 0-4-19-25t-46-63-55-104-47-167-19-232q0-126 19-231t46-166 55-104 47-64 19-25q0-3-6-9h-28q-29 24-56 53t-61 83-59 116-42 153-18 195Z"/><path id="h" d="M137 305h-22l-37 15-15 39q0 35 34 62t121 27q73 0 118-32t60-76q5-14 5-31t1-115v-70q0-48 5-66t21-18q15 0 20 16t5 53v36h40v-39q-1-40-3-47-9-30-35-47T400-6t-47 18-24 42v4l-2-3q-2-3-5-6t-8-9-12-11-15-12-18-11-22-8-26-6-31-3q-60 0-108 31t-48 87q0 21 7 40t27 41 48 37 78 28 110 15h14v22q0 34-6 50-22 71-97 71-18 0-34-1t-25-4-8-3q22-15 22-44 0-25-16-39Zm-11-199q0-31 24-55t59-25q38 0 67 23t39 60q2 7 3 66 0 58-1 58-8 0-21-1t-45-9-58-20-46-37-21-60Z"/><path id="i" d="M201 0q-12 3-99 3-76 0-85-3h-6v46h14q23 1 42 6t29 9 25 17 18 18 21 26 20 28l46 60-58 78q-9 13-19 27t-16 21-11 15-9 12-6 7-7 6-6 3-6 2-8 2q-6 0-36 2H16v46h7q36-2 103-2 93 0 103 2h8v-46q-36-4-36-16 0-2 10-16t28-38 29-41l4-4 25 34q32 41 32 54 0 6-2 11t-5 7-5 4-7 4l-3 1h-5v46h7q15-3 99-3 79 0 85 3h6v-46h-7q-49 0-81-17-17-8-34-27t-65-84l-16-21 62-85q66-90 71-94t17-7q18-4 53-4h17V0h-14q-8 1-20 1t-25 1-25 0-18 1h-37q-26 0-50-2l-23-1h-9v46h3q11 0 22 5t11 12q0 2-40 57l-41 55q-1-1-31-42t-34-45q-4-5-4-14 0-11 7-19t18-9q2 0 2-23V0h-7Z"/><path id="j" d="M202-349V850h40V-309h207v-40H202Z"/><path id="k" d="M131 289q0 32 16 65t56 61 97 27q62 0 90-27t29-60q0-32-17-47t-38-16q-13 0-24 8t-12 26q0 16 9 28t17 18 13 6q1 0 1 1 0 3-7 9t-25 11-39 6q-48 0-70-26t-23-53q0-25 19-35t55-17 52-15q66-29 66-96 0-28-11-56t-33-56-63-44-94-17q-77 0-109 29T53 87q0 39 21 56t44 17q15 0 28-9t14-31q0-26-18-44t-31-18q-2-1-3-1t-1-2q1-3 8-8t31-13 55-7q36 0 62 11t38 28 17 31 5 25q0 28-21 42t-48 17-59 15-47 35q-17 25-17 58Z"/><path id="l" d="M78 250q0 24 17 42t43 18q24 0 42-16t19-43q0-25-17-43t-43-18-43 17-18 43Z"/><path id="m" d="M48 1Q31 1 31 11q0 2 3 14 4 16 8 18t23 3q27 0 60 3 14 3 19 12 2 5 71 281t70 280q0 7-4 7-8 3-53 5h-31q-6 6-6 8t2 17q4 17 10 21h539q7-4 7-11 0-5-13-112t-14-110q-2-7-20-7h-12q-7 5-7 13 0 1 3 24t3 53q0 30-7 49t-19 31-37 16-51 7-72 1h-23q-82-1-87-3t-7-8q-1-1-34-131l-32-129h78q20 0 28 1t22 3 24 7 17 12q13 12 22 33t13 38 5 18q3 5 19 5h12q7-5 7-10 0-3-31-131t-34-132q-2-7-20-7h-12q-7 6-7 12 0 3 5 22t5 40q0 29-20 36t-89 7h-55l-32-127Q245 66 245 60q0-14 89-14h25q6-6 6-7t-2-20q-4-13-10-19h-17q-41 2-151 2H86Q52 2 48 1Z"/><path id="n" d="M109 429q-27 0-43 18t-16 44q0 71 53 123t132 52q91 0 152-56t62-145q0-43-20-82t-48-68-80-74q-36-31-100-92l-59-56 76-1q157 0 167 5 7 2 24 89v3h40v-3q-1-3-13-91T421 3V0H50v31q0 7 6 15t30 35q29 32 50 56 9 10 34 37t34 37 29 33 28 34 23 30 21 32 15 29 13 32 7 30 3 33q0 63-34 109t-97 46q-33 0-58-17t-35-33-10-19q0-1 5-1 18 0 37-14t19-46q0-25-16-42t-45-18Z"/><path id="o" d="M21 287q1 6 3 16t12 38 20 47 33 37 46 17q36 0 60-18t30-34 6-21q0-2 1-2l11 11q61 64 139 64 54 0 87-27t34-79-38-157-38-127q0-26 17-26 6 0 9 1 29 5 52 38t35 80q2 8 20 8 20 0 20-8 0-1-4-15-8-29-22-57t-46-56-69-27q-47 0-68 27t-21 56q0 19 36 120t37 152q0 59-44 59h-5q-86 0-145-101l-7-12-33-134Q156 26 151 16q-13-27-43-27-13 0-21 6T76 7t-2 10q0 13 38 163t40 163q1 5 1 23 0 39-24 39-38 0-63-100-6-20-6-21-2-6-19-6H27q-6 6-6 9Z"/><path id="p" d="M84 237v13l14 20h581q15-8 15-20t-15-20H98q-14 7-14 20Z"/><path id="q" d="m213 578-13-5q-14-5-40-10t-58-7H83v46h19q47 2 87 15t56 24 28 22q2 3 12 3 9 0 17-6V361l1-300q7-7 12-9t24-4 62-2h26V0h-11q-21 3-159 3-136 0-157-3H88v46h64q16 0 25 1t16 3 8 2 6 5 6 4v517Z"/><path id="r" d="M42 313q0 163 81 258t180 95q69 0 99-36t30-80q0-25-14-40t-39-15q-23 0-38 14t-15 39q0 44 47 53-22 22-62 25-71 0-117-60-47-66-47-202l1-4q5 6 8 13 41 60 107 60h4q46 0 81-19 24-14 48-40t39-57q21-49 21-107v-18q0-23-5-43-11-59-64-115T253-22q-28 0-54 8t-56 30-51 59-36 97-14 141Zm215 84q-30 0-52-17t-34-45-17-57-6-62q0-83 12-119t38-58q24-18 53-18 51 0 78 38 13 18 18 45t5 105q0 80-5 107t-18 45q-27 36-72 36Z"/><path id="s" d="M229-309V850h40V-349H22v40h207Z"/><path id="t" d="M78 35v25l16 43 43 18q28 0 50-25t23-88q0-35-9-68t-21-57-26-41-24-27-13-9q-4 0-13 9t-9 13q0 4 11 16t25 30 26 50 16 73V9l-1-1q-2-1-5-2t-6-3-9-2-12-1q-27 0-44 17Z"/><path id="u" d="M305 251q0-396-236-600H56q-13 0-17 2t-4 9q2 5 25 31t48 68 52 103 44 163 17 223-17 223-44 163-52 104-48 67-25 32q0 11 15 11h19q128-107 187-284 49-141 49-315Z"/><path id="v" d="M21 287q0 8 9 31t25 52 44 50 59 22q46 0 69-25t23-59q0-18-34-112t-34-141q0-43 14-60t42-18 53 17 37 34l11 17q2 4 38 152 30 120 36 140t14 29q17 15 36 15 17 0 25-10t8-19L420 84q-1-5-1-16 0-25 7-33t21-9q22 3 35 31t30 88q2 8 20 8 19 0 19-9-1-5-2-14t-9-32-17-43-25-38-36-25q-8-2-24-2-66 0-91 56-2-1-11-10t-18-15-22-15-29-12-34-5q-44 0-78 18-52 31-52 106 0 57 35 149t35 117v14q0 3-4 7t-11 4h-4q-23 0-42-19t-30-41-17-42-8-22q-2-2-16-2H27q-6 6-6 9Z"/><path id="w" d="M73 647q0 10 4 23t12 13q1 0 72 5t73 6q12 0 12-9t-34-143q-8-34-17-70t-15-54l-4-19q0-3 6 3 49 40 101 40 62 0 100-46t39-116q0-111-79-201T173-11q-50 0-91 38T40 150v9q0 21 8 58t49 197q50 197 50 209t-38 14H83q-3 0-7 3t-3 7Zm263-322v6q0 74-61 74-17 0-35-8t-33-21-26-24-18-22l-6-8-21-86q-22-86-22-122 0-48 24-72 16-16 40-16 33 0 67 32 25 23 40 56t33 105q18 72 18 106Z"/></defs><g data-mml-node="math" stroke="currentColor" fill="currentColor" stroke-width="0"><g data-mml-node="msub"><use data-c="1D447" xlink:href="#a" data-mml-node="mi" transform="scale(1 -1)"/><g data-mml-node="TeXAtom" data-mjx-texclass="ORD"><use data-c="1D441" xlink:href="#b" data-mml-node="mi" transform="matrix(.707 0 0 -.707 617 150)"/></g></g><use data-c="3D" xlink:href="#c" data-mml-node="mo" transform="matrix(1 0 0 -1 1572.7 0)"/><g data-mml-node="TeXAtom" data-mjx-texclass="ORD"><g data-mml-node="mi" transform="matrix(1 0 0 -1 2628.5 0)"><use data-c="6D" xlink:href="#d"/><use data-c="69" xlink:href="#e" transform="translate(833)"/><use data-c="6E" xlink:href="#f" transform="translate(1111)"/></g></g><g data-mml-node="mrow"><use data-c="28" xlink:href="#g" data-mml-node="mo" transform="matrix(1 0 0 -1 4462.1 .5)"/><g data-mml-node="TeXAtom" data-mjx-texclass="ORD"><g data-mml-node="mi" transform="matrix(1 0 0 -1 4920.1 0)"><use data-c="6D" xlink:href="#d"/><use data-c="61" xlink:href="#h" transform="translate(833)"/><use data-c="78" xlink:href="#i" transform="translate(1333)"/></g></g><g data-mml-node="mrow"><use data-c="28" xlink:href="#g" data-mml-node="mo" transform="matrix(1 0 0 -1 6947.8 .5)"/><g data-mml-node="mrow"><use data-c="230A" xlink:href="#j" data-mml-node="mo" transform="matrix(1 0 0 -1 7405.8 .5)"/><g data-mml-node="msub"><use data-c="1D447" xlink:href="#a" data-mml-node="mi" transform="matrix(1 0 0 -1 7877.8 0)"/><g data-mml-node="TeXAtom" data-mjx-texclass="ORD"><use data-c="1D460" xlink:href="#k" data-mml-node="mi" transform="matrix(.707 0 0 -.707 8494.8 150)"/></g></g><use data-c="22C5" xlink:href="#l" data-mml-node="mo" transform="matrix(1 0 0 -1 9098.7 0)"/><use data-c="1D439" xlink:href="#m" data-mml-node="mi" transform="matrix(1 0 0 -1 9598.9 0)"/><use data-c="22C5" xlink:href="#l" data-mml-node="mo" transform="matrix(1 0 0 -1 10570.1 0)"/><g data-mml-node="msup"><use data-c="32" xlink:href="#n" data-mml-node="mn" transform="matrix(1 0 0 -1 11070.3 0)"/><g data-mml-node="TeXAtom" data-mjx-texclass="ORD"><use data-c="1D45B" xlink:href="#o" data-mml-node="mi" transform="matrix(.707 0 0 -.707 11603.3 -413)"/><use data-c="2212" xlink:href="#p" data-mml-node="mo" transform="matrix(.707 0 0 -.707 12027.5 -413)"/><g data-mml-node="mn" transform="matrix(.707 0 0 -.707 12577.546 -413)"><use data-c="31" xlink:href="#q"/><use data-c="36" xlink:href="#r" transform="translate(500)"/></g></g></g><use data-c="230B" xlink:href="#s" data-mml-node="mo" transform="matrix(1 0 0 -1 13334.8 .5)"/></g><use data-c="2C" xlink:href="#t" data-mml-node="mo" transform="matrix(1 0 0 -1 13806.8 0)"/><use data-c="31" xlink:href="#q" data-mml-node="mn" transform="matrix(1 0 0 -1 14251.5 0)"/><use data-c="29" xlink:href="#u" data-mml-node="mo" transform="matrix(1 0 0 -1 14751.5 .5)"/></g><use data-c="2C" xlink:href="#t" data-mml-node="mo" transform="matrix(1 0 0 -1 15209.5 0)"/><g data-mml-node="msub"><use data-c="1D447" xlink:href="#a" data-mml-node="mi" transform="matrix(1 0 0 -1 15654.1 0)"/><g data-mml-node="TeXAtom" data-mjx-texclass="ORD"><use data-c="1D462" xlink:href="#v" data-mml-node="mi" transform="matrix(.707 0 0 -.707 16271.1 150)"/><use data-c="1D44F" xlink:href="#w" data-mml-node="mi" transform="matrix(.707 0 0 -.707 16675.504 150)"/></g></g><use data-c="29" xlink:href="#u" data-mml-node="mo" transform="matrix(1 0 0 -1 17028.9 .5)"/></g></g></svg>