<?xml version="1.0" encoding="UTF-8"?><svg xmlns="http://www.w3.org/2000/svg" xmlns:xlink="http://www.w3.org/1999/xlink" color-interpolation="auto" stroke="#000" stroke-linecap="square" width="701" stroke-miterlimit="10" height="534" font-family="'Dialog'" font-size="12"><g text-rendering="geometricPrecision" shape-rendering="geometricPrecision"><path clip-path="url(#a)" d="M1670 710h701v534h-701z" transform="translate(-1670 -710)" fill="#fff" stroke="none"/><g fill="#F5F5F5" transform="translate(-1670 -710)" stroke="none"><rect x="1685.762" y="725.9888" clip-path="url(#a)" width="670" rx="4" ry="4" height="502.6788"/><path clip-path="url(#a)" fill="#EBEBEB" d="M1685.762 725.9888h670v22.3765h-670z"/></g><g font-size="15" stroke-linecap="butt" transform="translate(-1670 -710)" font-family="sans-serif" stroke-miterlimit="1.45"><text x="1944.4802" xml:space="preserve" y="743.0694" clip-path="url(#a)" stroke="none">Difficulty Bits Encoding</text><rect x="1685.762" y="725.9888" clip-path="url(#a)" fill="none" width="670" rx="4" ry="4" height="502.6788"/></g><path clip-path="url(#a)" d="M1720.762 807.9076h20v20h-20z" fill="url(#b)" transform="translate(-1670 -710)" stroke="none"/><path fill="none" clip-path="url(#a)" d="M1720.762 807.9076h20v20h-20z" transform="translate(-1670 -710)" stroke-miterlimit="1.45" stroke-linecap="butt"/><path clip-path="url(#a)" d="M1880.762 807.9076h20v20h-20z" fill="url(#c)" transform="translate(-1670 -710)" stroke="none"/><g stroke-miterlimit="1.45" stroke-linecap="butt"><path fill="none" clip-path="url(#a)" d="M1880.762 807.9076h20v20h-20z" transform="translate(-1670 -710)"/><text x="1884.0881" xml:space="preserve" y="845.972" clip-path="url(#a)" font-family="sans-serif" stroke="none" transform="translate(-1670 -710)">22</text></g><path clip-path="url(#a)" d="M1900.762 807.9076h20v20h-20z" fill="url(#d)" transform="translate(-1670 -710)" stroke="none"/><path fill="none" clip-path="url(#a)" d="M1900.762 807.9076h20v20h-20z" transform="translate(-1670 -710)" stroke-miterlimit="1.45" stroke-linecap="butt"/><path clip-path="url(#a)" d="M1920.762 807.9076h20v20h-20z" fill="url(#e)" transform="translate(-1670 -710)" stroke="none"/><path fill="none" clip-path="url(#a)" d="M1920.762 807.9076h20v20h-20z" transform="translate(-1670 -710)" stroke-miterlimit="1.45" stroke-linecap="butt"/><path clip-path="url(#a)" d="M1940.762 807.9076h20v20h-20z" fill="url(#f)" transform="translate(-1670 -710)" stroke="none"/><path fill="none" clip-path="url(#a)" d="M1940.762 807.9076h20v20h-20z" transform="translate(-1670 -710)" stroke-miterlimit="1.45" stroke-linecap="butt"/><path clip-path="url(#a)" d="M1960.762 807.9076h20v20h-20z" fill="url(#g)" transform="translate(-1670 -710)" stroke="none"/><g stroke-miterlimit="1.45" stroke-linecap="butt"><path fill="none" clip-path="url(#a)" d="M1960.762 807.9076h20v20h-20z" transform="translate(-1670 -710)"/><text x="1850.0842" xml:space="preserve" y="777.4509" clip-path="url(#a)" font-family="sans-serif" stroke="none" transform="translate(-1670 -710)">Sign Bit</text></g><path clip-path="url(#a)" d="M1860.762 807.9076h20v20h-20z" fill="url(#h)" transform="translate(-1670 -710)" stroke="none"/><g stroke-miterlimit="1.45" stroke-linecap="butt"><path fill="none" clip-path="url(#a)" d="M1860.762 807.9076h20v20h-20z" transform="translate(-1670 -710)"/><text x="1864.0881" xml:space="preserve" y="845.972" clip-path="url(#a)" font-family="sans-serif" stroke="none" transform="translate(-1670 -710)">23</text></g><path clip-path="url(#a)" d="M1980.762 807.9076h20v20h-20z" fill="url(#i)" transform="translate(-1670 -710)" stroke="none"/><path fill="none" clip-path="url(#a)" d="M1980.762 807.9076h20v20h-20z" transform="translate(-1670 -710)" stroke-miterlimit="1.45" stroke-linecap="butt"/><path clip-path="url(#a)" d="M2000.762 807.9076h20v20h-20z" fill="url(#j)" transform="translate(-1670 -710)" stroke="none"/><path fill="none" clip-path="url(#a)" d="M2000.762 807.9076h20v20h-20z" transform="translate(-1670 -710)" stroke-miterlimit="1.45" stroke-linecap="butt"/><path clip-path="url(#a)" d="M2020.762 807.9076h20v20h-20z" fill="url(#k)" transform="translate(-1670 -710)" stroke="none"/><path fill="none" clip-path="url(#a)" d="M2020.762 807.9076h20v20h-20z" transform="translate(-1670 -710)" stroke-miterlimit="1.45" stroke-linecap="butt"/><path clip-path="url(#a)" d="M2040.762 807.9076h20v20h-20z" fill="url(#l)" transform="translate(-1670 -710)" stroke="none"/><path fill="none" clip-path="url(#a)" d="M2040.762 807.9076h20v20h-20z" transform="translate(-1670 -710)" stroke-miterlimit="1.45" stroke-linecap="butt"/><path clip-path="url(#a)" d="M2060.762 807.9076h20v20h-20z" fill="url(#m)" transform="translate(-1670 -710)" stroke="none"/><path fill="none" clip-path="url(#a)" d="M2060.762 807.9076h20v20h-20z" transform="translate(-1670 -710)" stroke-miterlimit="1.45" stroke-linecap="butt"/><path clip-path="url(#a)" d="M2080.762 807.9076h20v20h-20z" fill="url(#n)" transform="translate(-1670 -710)" stroke="none"/><path fill="none" clip-path="url(#a)" d="M2080.762 807.9076h20v20h-20z" transform="translate(-1670 -710)" stroke-miterlimit="1.45" stroke-linecap="butt"/><path clip-path="url(#a)" d="M2100.762 807.9076h20v20h-20z" fill="url(#o)" transform="translate(-1670 -710)" stroke="none"/><path fill="none" clip-path="url(#a)" d="M2100.762 807.9076h20v20h-20z" transform="translate(-1670 -710)" stroke-miterlimit="1.45" stroke-linecap="butt"/><path clip-path="url(#a)" d="M2120.762 807.9076h20v20h-20z" fill="url(#p)" transform="translate(-1670 -710)" stroke="none"/><path fill="none" clip-path="url(#a)" d="M2120.762 807.9076h20v20h-20z" transform="translate(-1670 -710)" stroke-miterlimit="1.45" stroke-linecap="butt"/><path clip-path="url(#a)" d="M2140.762 807.9076h20v20h-20z" fill="url(#q)" transform="translate(-1670 -710)" stroke="none"/><path fill="none" clip-path="url(#a)" d="M2140.762 807.9076h20v20h-20z" transform="translate(-1670 -710)" stroke-miterlimit="1.45" stroke-linecap="butt"/><path clip-path="url(#a)" d="M2160.762 807.9076h20v20h-20z" fill="url(#r)" transform="translate(-1670 -710)" stroke="none"/><path fill="none" clip-path="url(#a)" d="M2160.762 807.9076h20v20h-20z" transform="translate(-1670 -710)" stroke-miterlimit="1.45" stroke-linecap="butt"/><path clip-path="url(#a)" d="M2180.762 807.9076h20v20h-20z" fill="url(#s)" transform="translate(-1670 -710)" stroke="none"/><path fill="none" clip-path="url(#a)" d="M2180.762 807.9076h20v20h-20z" transform="translate(-1670 -710)" stroke-miterlimit="1.45" stroke-linecap="butt"/><path clip-path="url(#a)" d="M2200.762 807.9076h20v20h-20z" fill="url(#t)" transform="translate(-1670 -710)" stroke="none"/><path fill="none" clip-path="url(#a)" d="M2200.762 807.9076h20v20h-20z" transform="translate(-1670 -710)" stroke-miterlimit="1.45" stroke-linecap="butt"/><path clip-path="url(#a)" d="M2220.762 807.9076h20v20h-20z" fill="url(#u)" transform="translate(-1670 -710)" stroke="none"/><path fill="none" clip-path="url(#a)" d="M2220.762 807.9076h20v20h-20z" transform="translate(-1670 -710)" stroke-miterlimit="1.45" stroke-linecap="butt"/><path clip-path="url(#a)" d="M2240.762 807.9076h20v20h-20z" fill="url(#v)" transform="translate(-1670 -710)" stroke="none"/><path fill="none" clip-path="url(#a)" d="M2240.762 807.9076h20v20h-20z" transform="translate(-1670 -710)" stroke-miterlimit="1.45" stroke-linecap="butt"/><path clip-path="url(#a)" d="M2260.762 807.9076h20v20h-20z" fill="url(#w)" transform="translate(-1670 -710)" stroke="none"/><path fill="none" clip-path="url(#a)" d="M2260.762 807.9076h20v20h-20z" transform="translate(-1670 -710)" stroke-miterlimit="1.45" stroke-linecap="butt"/><path clip-path="url(#a)" d="M2280.762 807.9076h20v20h-20z" fill="url(#x)" transform="translate(-1670 -710)" stroke="none"/><path fill="none" clip-path="url(#a)" d="M2280.762 807.9076h20v20h-20z" transform="translate(-1670 -710)" stroke-miterlimit="1.45" stroke-linecap="butt"/><path clip-path="url(#a)" d="M2300.762 807.9076h20v20h-20z" fill="url(#y)" transform="translate(-1670 -710)" stroke="none"/><path fill="none" clip-path="url(#a)" d="M2300.762 807.9076h20v20h-20z" transform="translate(-1670 -710)" stroke-miterlimit="1.45" stroke-linecap="butt"/><path clip-path="url(#a)" d="M2320.762 807.9076h20v20h-20z" fill="url(#z)" transform="translate(-1670 -710)" stroke="none"/><g stroke-miterlimit="1.45" stroke-linecap="butt"><path fill="none" clip-path="url(#a)" d="M2320.762 807.9076h20v20h-20z" transform="translate(-1670 -710)"/><text x="2326.5908" font-size="15" y="848.9882" clip-path="url(#a)" font-family="sans-serif" stroke="none" xml:space="preserve" transform="translate(-1670 -710)">0</text></g><path clip-path="url(#a)" d="M1740.762 807.9076h20v20h-20z" fill="url(#A)" transform="translate(-1670 -710)" stroke="none"/><path fill="none" clip-path="url(#a)" d="M1740.762 807.9076h20v20h-20z" transform="translate(-1670 -710)" stroke-miterlimit="1.45" stroke-linecap="butt"/><path clip-path="url(#a)" d="M1760.762 807.9076h20v20h-20z" fill="url(#B)" transform="translate(-1670 -710)" stroke="none"/><path fill="none" clip-path="url(#a)" d="M1760.762 807.9076h20v20h-20z" transform="translate(-1670 -710)" stroke-miterlimit="1.45" stroke-linecap="butt"/><path clip-path="url(#a)" d="M1780.762 807.9076h20v20h-20z" fill="url(#C)" transform="translate(-1670 -710)" stroke="none"/><path fill="none" clip-path="url(#a)" d="M1780.762 807.9076h20v20h-20z" transform="translate(-1670 -710)" stroke-miterlimit="1.45" stroke-linecap="butt"/><path clip-path="url(#a)" d="M1800.762 807.9076h20v20h-20z" fill="url(#D)" transform="translate(-1670 -710)" stroke="none"/><path fill="none" clip-path="url(#a)" d="M1800.762 807.9076h20v20h-20z" transform="translate(-1670 -710)" stroke-miterlimit="1.45" stroke-linecap="butt"/><path clip-path="url(#a)" d="M1820.762 807.9076h20v20h-20z" fill="url(#E)" transform="translate(-1670 -710)" stroke="none"/><path fill="none" clip-path="url(#a)" d="M1820.762 807.9076h20v20h-20z" transform="translate(-1670 -710)" stroke-miterlimit="1.45" stroke-linecap="butt"/><path clip-path="url(#a)" d="M1840.762 807.9076h20v20h-20z" fill="url(#F)" transform="translate(-1670 -710)" stroke="none"/><g stroke-miterlimit="1.45" stroke-linecap="butt"><path fill="none" clip-path="url(#a)" d="M1840.762 807.9076h20v20h-20z" transform="translate(-1670 -710)"/><text x="1844.0881" xml:space="preserve" y="845.972" clip-path="url(#a)" font-family="sans-serif" stroke="none" transform="translate(-1670 -710)">24</text></g><path clip-path="url(#a)" d="M1700.762 807.9076h20v20h-20z" fill="url(#G)" transform="translate(-1670 -710)" stroke="none"/><g stroke-miterlimit="1.45" stroke-linecap="butt"><path fill="none" clip-path="url(#a)" d="M1700.762 807.9076h20v20h-20z" transform="translate(-1670 -710)"/><text x="1704.0881" xml:space="preserve" y="845.972" clip-path="url(#a)" font-family="sans-serif" stroke="none" transform="translate(-1670 -710)">31</text></g><g clip-path="url(#H)" transform="matrix(2.7711 0 0 .4425 207.2625 75.8237)"><svg:svg xmlns:i="http://ns.adobe.com/AdobeIllustrator/10.0/" xmlns:svg="http://www.w3.org/2000/svg" xmlns:sodipodi="http://sodipodi.sourceforge.net/DTD/sodipodi-0.dtd" xmlns:xap="http://ns.adobe.com/xap/1.0/" xmlns:xapGImg="http://ns.adobe.com/xap/1.0/g/img/" xmlns:ns0="http://ns.adobe.com/SaveForWeb/1.0/" xmlns:ns1="http://ns.adobe.com/Flows/1.0/" xmlns:ns2="http://ns.adobe.com/Extensibility/1.0/" xmlns:ns="http://ns.adobe.com/Variables/1.0/" xmlns:inkscape="http://www.inkscape.org/namespaces/inkscape" xmlns:dc="http://purl.org/dc/elements/1.1/" xmlns:cc="http://creativecommons.org/ns#" xmlns:x="adobe:ns:meta/" xmlns:rdf="http://www.w3.org/1999/02/22-rdf-syntax-ns#" xml:space="preserve" opacity="1" i:viewBoxInterpretation="asCropBox" writing-mode="lr-tb" stop-color="#000" shape-rendering="auto" glyph-orientation-horizontal="0deg" color-profile="auto" lighting-color="#FFF" color="#000" font-weight="400" font-style="normal" alignment-baseline="auto" version="1.0" color-interpolation-filters="linearrgb" text-anchor="start" stroke-linecap="butt" color-interpolation="srgb" font-variant="normal" word-spacing="normal" fill-opacity="1" sodipodi:modified="true" text-rendering="auto" clip-path="none" text-decoration="none" letter-spacing="normal" viewBox="-.6 -.6 46.667 167.666" glyph-orientation-vertical="auto" font-size-adjust="none" display="inline" overflow="hidden" font-stretch="normal" fill="#000" stroke-dasharray="none" inkscape:version="0.48.0 r9654" stroke-miterlimit="4" stop-opacity="1" font-size="12" color-rendering="auto" pointer-events="visiblepainted" mask="none" direction="ltr" baseline-shift="baseline" sodipodi:docname="GullBraceDown.svg" enable-background="new -.6 -.6 46.667 167.666" fill-rule="nonzero" image-rendering="auto" stroke-dashoffset="0" inkscape:output_extension="org.inkscape.output.svg.inkscape" marker-end="none" width="167.67" clip="auto" cursor="auto" stroke="none" filter="none" visibility="visible" kerning="auto" stroke-width="1" font-family="&quot;Arial&quot;,&quot;Helvetica&quot;,sans-serif" i:pageBounds="8 817 603.2754 -24.8896" i:rulerOrigin="-8 24.8896" flood-opacity="1" clip-rule="nonzero" src="none" height="46.67" unicode-bidi="normal" sodipodi:version=".32" stroke-linejoin="miter" stroke-opacity="1" flood-color="#000" i:viewOrigin="247.6001 506.4004" dominant-baseline="auto" marker-start="none" marker-mid="none"><svg:defs/><svg:metadata/><svg:g i:rgbTrio="#4F008000FFFF" i:dimmedPercent="3" i:layer="yes" transform="rotate(-90 -55.0787 218.8353) scale(3.59259)"><svg:switch i:objectNS="http://ns.adobe.com/Flows/1.0/" display="none" i:objectType="pointText"><svg:foreignObject x="0" requiredExtensions="http://ns.adobe.com/Flows/1.0/" y="0" display="inline" width="1" height="1" overflow="visible"/><svg:text display="inline" transform="translate(-37.6001 148.4)"><svg:tspan x="0" y="0" font-size="200" font-family="LetterGothicStd">}</svg:tspan></svg:text></svg:switch><svg:g i:knockout="Off"><svg:path i:knockout="Off" d="M 19.8,25.8 C 19.8,11.2 15.6,2.2 0,0.4 L 0.4,0 C 23,0.4 29.2,7.2 29.2,29 l 0,30.2 c 0,13.4 1.4,19.8 16,23.4 l 0,0.4 c -14.4,3.6 -16,10 -16,23.2 l 0,32.2 c 0,21 -7.8,27 -28.8,27.6 L 0,165.601 c 16,-2.4 19.8,-10.4 19.8,-25.601 l 0,-32.2 C 19.8,94.2 21.6,86.4 36.6,83 l 0,-0.4 C 21.4,79 19.8,70.6 19.8,57 l 0,-31.2 z" inkscape:connector-curvature="0"/></svg:g></svg:g></svg:svg></g><text x="2063.4124" xml:space="preserve" y="777.4297" clip-path="url(#a)" stroke="none" transform="translate(-1670 -710)" stroke-miterlimit="1.45" font-family="sans-serif" stroke-linecap="butt">Mantissa (23 bits)</text><g clip-path="url(#I)" transform="matrix(.9639 0 0 .4425 29.5448 75.8237)"><svg:svg xmlns:i="http://ns.adobe.com/AdobeIllustrator/10.0/" xmlns:svg="http://www.w3.org/2000/svg" xmlns:sodipodi="http://sodipodi.sourceforge.net/DTD/sodipodi-0.dtd" xmlns:xap="http://ns.adobe.com/xap/1.0/" xmlns:xapGImg="http://ns.adobe.com/xap/1.0/g/img/" xmlns:ns0="http://ns.adobe.com/SaveForWeb/1.0/" xmlns:ns1="http://ns.adobe.com/Flows/1.0/" xmlns:ns2="http://ns.adobe.com/Extensibility/1.0/" xmlns:ns="http://ns.adobe.com/Variables/1.0/" xmlns:inkscape="http://www.inkscape.org/namespaces/inkscape" xmlns:dc="http://purl.org/dc/elements/1.1/" xmlns:cc="http://creativecommons.org/ns#" xmlns:x="adobe:ns:meta/" xmlns:rdf="http://www.w3.org/1999/02/22-rdf-syntax-ns#" xml:space="preserve" opacity="1" i:viewBoxInterpretation="asCropBox" writing-mode="lr-tb" stop-color="#000" shape-rendering="auto" glyph-orientation-horizontal="0deg" color-profile="auto" lighting-color="#FFF" color="#000" font-weight="400" font-style="normal" alignment-baseline="auto" version="1.0" color-interpolation-filters="linearrgb" text-anchor="start" stroke-linecap="butt" color-interpolation="srgb" font-variant="normal" word-spacing="normal" fill-opacity="1" sodipodi:modified="true" text-rendering="auto" clip-path="none" text-decoration="none" letter-spacing="normal" viewBox="-.6 -.6 46.667 167.666" glyph-orientation-vertical="auto" font-size-adjust="none" display="inline" overflow="hidden" font-stretch="normal" fill="#000" stroke-dasharray="none" inkscape:version="0.48.0 r9654" stroke-miterlimit="4" stop-opacity="1" font-size="12" color-rendering="auto" pointer-events="visiblepainted" mask="none" direction="ltr" baseline-shift="baseline" sodipodi:docname="GullBraceDown.svg" enable-background="new -.6 -.6 46.667 167.666" fill-rule="nonzero" image-rendering="auto" stroke-dashoffset="0" inkscape:output_extension="org.inkscape.output.svg.inkscape" marker-end="none" width="167.67" clip="auto" cursor="auto" stroke="none" filter="none" visibility="visible" kerning="auto" stroke-width="1" font-family="&quot;Arial&quot;,&quot;Helvetica&quot;,sans-serif" i:pageBounds="8 817 603.2754 -24.8896" i:rulerOrigin="-8 24.8896" flood-opacity="1" clip-rule="nonzero" src="none" height="46.67" unicode-bidi="normal" sodipodi:version=".32" stroke-linejoin="miter" stroke-opacity="1" flood-color="#000" i:viewOrigin="247.6001 506.4004" dominant-baseline="auto" marker-start="none" marker-mid="none"><svg:defs/><svg:metadata/><svg:g i:rgbTrio="#4F008000FFFF" i:dimmedPercent="3" i:layer="yes" transform="rotate(-90 -55.0787 218.8353) scale(3.59259)"><svg:switch i:objectNS="http://ns.adobe.com/Flows/1.0/" display="none" i:objectType="pointText"><svg:foreignObject x="0" requiredExtensions="http://ns.adobe.com/Flows/1.0/" y="0" display="inline" width="1" height="1" overflow="visible"/><svg:text display="inline" transform="translate(-37.6001 148.4)"><svg:tspan x="0" y="0" font-size="200" font-family="LetterGothicStd">}</svg:tspan></svg:text></svg:switch><svg:g i:knockout="Off"><svg:path i:knockout="Off" d="M 19.8,25.8 C 19.8,11.2 15.6,2.2 0,0.4 L 0.4,0 C 23,0.4 29.2,7.2 29.2,29 l 0,30.2 c 0,13.4 1.4,19.8 16,23.4 l 0,0.4 c -14.4,3.6 -16,10 -16,23.2 l 0,32.2 c 0,21 -7.8,27 -28.8,27.6 L 0,165.601 c 16,-2.4 19.8,-10.4 19.8,-25.601 l 0,-32.2 C 19.8,94.2 21.6,86.4 36.6,83 l 0,-0.4 C 21.4,79 19.8,70.6 19.8,57 l 0,-31.2 z" inkscape:connector-curvature="0"/></svg:g></svg:g></svg:svg></g><g stroke-miterlimit="1.45" font-family="sans-serif" stroke-linecap="butt"><text x="1725.2297" xml:space="preserve" y="777.4297" clip-path="url(#a)" stroke="none" transform="translate(-1670 -710)">Exponent + 3 (8 bits)</text><path fill="none" clip-path="url(#a)" d="M1700.762 867.9076h640v345.76h-640z" transform="translate(-1670 -710)"/></g><g clip-path="url(#J)" transform="matrix(.8261 0 0 .8102 49.4898 172.6649)"><svg aria-hidden="true" shape-rendering="auto" color-profile="auto" lighting-color="#FFF" color="#000" font-weight="400" alignment-baseline="auto" color-interpolation-filters="linearrgb" stroke-linecap="butt" color-interpolation="srgb" text-rendering="auto" clip-path="none" viewBox="0 -6824.4 24754.9 13148.9" overflow="hidden" stroke-miterlimit="4" pointer-events="visiblepainted" enable-background="accumulate" width="728.091" cursor="auto" stroke="none" filter="none" font-family="&quot;Arial&quot;,&quot;Helvetica&quot;,sans-serif" flood-opacity="1" height="386.737" flood-color="#000"><defs><path id="K" d="M723 286q-2-2-23-141T677 3V0H39v62h108v556H39v62h621v-4q2-6 15-124t16-124v-4h-62v4q0 1-2 20t-9 46-17 47q-27 52-74 64t-145 13h-78V384h57q5 0 15 2t16 4 15 7 14 10 11 16q10 21 11 59v19h62V205h-62v19q-1 34-8 54t-24 29-31 11-44 4h-32V62h145q20 0 48 4t44 10 36 19 32 31 23 44 19 62q10 55 10 57h62v-3Z"/><path id="L" d="M40 442q177 8 178 8h6v-43l1-42q8 13 20 26t44 31 73 26q12 2 36 2 30 0 50-3t43-13 38-32 22-56q2-11 3-148V62h69V0h-9q-18 3-125 3-115 0-124-3h-9v62h69v213q0 73-9 98t-45 26q-45 0-83-29t-50-80q-2-9-3-119V62h69V0h-9q-18 3-124 3Q64 3 46 0h-9v62h69v241q0 50-2 60t-13 13q-14 4-41 4H37v62h3Z"/><path id="M" d="M447 131h11q20 0 20-14 0-5-7-22t-32-44-62-42Q330-6 286-6q-90 0-151 41-96 61-96 187 0 102 62 162 68 69 185 69 73 0 125-22t53-78q0-34-19-51t-50-18q-35 0-52 21t-18 48q0 27 13 43h-5q-16 2-38 2h-3q-12 0-21-1t-26-7-27-17-21-35-14-55q-1-8-1-52 0-32 2-51t9-48 27-47 50-28q19-7 47-7h9q59 0 88 65 5 12 9 14t24 2Z"/><path id="N" d="M287-5q-59 0-105 15t-73 38-46 54-24 59-7 58q0 53 18 95t44 68 60 41 60 23 51 6h14q40 0 47-1 102-12 159-75t57-155q0-65-28-113t-72-75Q384-5 287-5Zm112 235v20q0 30-1 48t-7 40-19 34-34 20-56 9q-41 0-70-21-22-17-29-46t-8-104v-41q0-13 2-36t6-35 12-27 20-23 30-12 42-6q61 0 87 34 14 17 19 48t6 98Z"/><path id="O" d="m351 686 91 4q91 4 92 4h6V253q0-74-1-90 0-66 2-80t14-17q14-4 41-4h13V31q0-31-1-31-20 0-98-3t-98-3q-1 0-1 22v22l-10-7Q337-6 265-6 159-6 99 58T38 224q0 41 13 79t41 72 73 54 107 20q87 0 145-37v143q0 42-2 52t-13 13q-14 4-41 4h-13v62h3Zm60-336q-49 49-120 49-13 0-35-7t-38-21q-23-20-29-51t-7-82v-17q0-42 1-62t8-44 21-41q29-28 76-28 70 0 116 54l7 9v241Z"/><path id="P" d="M32 225q0 107 70 167t170 60h11q99 0 153-51 58-58 58-158 0-17-8-21t-46-5h-46q-37 0-67 1H175v-9q0-32 4-55t17-47 40-38 70-19q6-1 17-1 53 0 87 36 11 14 17 26t7 16 8 6 21 2h5q26 0 26-18 0-7-5-20t-21-31-37-34-58-27-81-11Q181-6 107 55T32 225Zm351 51q-6 70-35 98t-68 28q-27 0-50-12t-35-33q-16-26-19-78v-13h207v10Z"/><path id="Q" d="M74 359q0 35 24 60t60 25q42 0 64-27t23-59q0-29-21-56t-64-28q-44 0-65 27t-21 58Zm0-274q0 36 25 61t57 25q44 0 66-28t23-58q0-29-21-56T160 1q-42 0-64 26T74 85Z"/><path id="R" d="M492 213q-20 0-20 13 0 4 5 24t5 35q0 31-21 38t-97 7h-52q-1-2-35-138T243 52q0-4 11-4t80-2q94 0 124 2t60 13q49 16 81 56t71 131q10 22 13 24 7 2 15 2 20 0 20-13Q613 7 608 2q-3-2-286-2H133Q31 0 31 11q0 2 3 14 4 16 8 18t23 3q27 0 60 3 14 3 19 12 2 5 71 281t70 280q0 7-4 7-8 3-53 5h-31q-6 6-6 8t2 17q4 17 10 21h554q7-4 7-11 0-5-13-112t-14-110q-2-7-20-7h-12q-7 5-7 13l3 23q3 24 3 52 0 30-7 50t-19 31-35 16-47 7-64 2h-47q-88-1-93-3-4-2-6-9-1-3-31-123t-31-122q23-1 48-1h26q66 0 91 15t45 81q4 16 6 18t17 3h8q3 0 5-1t2-1 2-4 3-4l-33-132q-33-133-36-135-3-3-16-3Z"/><path id="S" d="M94 250q0 69 10 131t23 107 37 88 38 67 42 52 33 34 25 21h17q14 0 14-9 0-3-17-21t-41-53-49-86-42-138-17-193 17-192 41-139 49-86 42-53 17-21q0-9-15-9h-16l-28 24q-94 85-137 212T94 250Z"/><path id="T" d="M40 437q-19 0-19 8 0 5 16 56t34 101l17 49q5 18 13 26h558q32 0 38-1t7-9q0-6-17-114t-19-109q0-7-19-7h-12q-3 0-6 5l-2 3q0 6 6 45t6 61q0 35-13 53t-55 25q-5 1-58 2-46 0-58-1t-18-8q-1-1-71-279T298 60q0-12 88-14 32 0 41-1t9-9q0-5-3-14-4-18-9-21l-2-1h-7q-5 0-52 1T228 2Q99 2 64 0H49q-6 6-6 9t2 18q4 13 10 19h39q80 0 95 9 1 1 2 1 5 3 10 20t40 157q17 68 28 111 70 275 70 281 0 5-29 5h-31q-67 0-88-6-45-10-70-41T67 467q-7-22-10-26t-14-4h-3Z"/><path id="U" d="m60 749 4 1h22l28-24q94-85 137-212t43-264q0-68-10-131T261 12t-37-88-38-67-41-51-32-33-23-19l-4-4H63q-3 0-5 3t-3 9q1 1 11 13Q221-64 221 250T66 725q-10 12-11 13 0 8 5 11Z"/><path id="V" d="M56 347q0 13 14 20h637q15-8 15-20 0-11-14-19l-318-1H72q-16 5-16 20Zm0-194q0 15 16 20h636q14-10 14-20 0-13-15-20H70q-14 7-14 20Z"/><path id="W" d="m712 899 6-6v-28q0-11-14-19-77-53-127-136t-67-185q0-1-1-4-4-28-5-172V240q0-242-1-244-1-4-9-5t-50-1q-52 0-54 1-3 1-4 4-2 10-2 235v82q0 50-1 70 0 99 9 153t42 121q76 150 230 236l13 7h35Z"/><path id="X" d="m718-893-6-6h-35l-11 6q-124 68-198 179t-83 238q-1 10-1 194 0 285 1 287l4 4q3 1 55 1 42 0 50-1t9-5q1-2 1-243v-127q0-104 4-147t22-96q16-48 39-89t48-69 44-45 38-31 18-13 1-20v-17Z"/><path id="Y" d="M389 1159q2 1 66 1 41 0 43-1 3-1 4-4 2-10 2-231 0-233-1-242-9-133-78-243T243 259l-14-9 14-9q106-66 178-175t82-248q1-9 1-242v-205q0-29-5-30h-1q-2-1-54-1t-54 1q-3 1-4 4-2 10-2 230v143q0 106-7 166T342 10q-17 44-41 82t-46 63-41 41-31 26-12 10q-1 1-1 18t1 18q0 1 20 16t49 47 60 76 54 117 29 155q1 12 1 246 0 227 1 230l4 4Z"/><path id="Z" d="M384 150v116q0 38 5 43 2 1 66 1 41 0 43-1 4-1 5-11 1-15 1-148V12q0-20-5-21h-1q-2-1-54-1t-54 1q-4 1-5 11-1 15-1 148Z"/><path id="aa" d="M96 585q56 81 153 81 48 0 96-26t78-92q37-83 37-228 0-155-43-237-20-42-55-67t-61-31-51-7q-26 0-52 6t-61 32-55 67q-43 82-43 237 0 174 57 265Zm225 12q-30 32-71 32-42 0-72-32-25-26-33-72t-8-192q0-158 8-208t36-79q28-30 69-30 40 0 68 30 29 30 36 84t8 203q0 145-8 191t-33 73Z"/><path id="ab" d="M69 609q0 28 18 44t44 16q23-2 40-17t17-43q0-30-17-45t-42-15q-25 0-42 15t-18 45ZM247 0q-15 3-104 3h-37Q80 3 56 1L34 0h-8v46h16q28 0 49 3 9 4 11 11t2 42v191q0 52-2 66t-14 19q-14 7-47 7H30v23q0 23 2 23l10 1q10 1 28 2t36 2 36 2 29 3 11 1h3V62q5-10 12-12t35-4h23V0h-8Z"/><path id="ac" d="M273 0q-18 3-127 3Q43 3 34 0h-8v46h16q28 0 49 3 8 3 12 11 1 2 1 164v161H33v46h71v66l1 67 2 10q19 65 64 94t95 36h9q8 0 14 1 41-3 62-26t21-52q0-23-14-37t-37-14-37 14-14 37q0 20 18 40h-4q-4 1-11 1-28 0-50-21t-34-55q-6-20-7-95v-66h111v-46H185V225q0-162 1-164t3-4 5-3 5-3 7-2 7-1 9-1 9 0 10-1 10 0h31V0h-9Z"/><path id="ad"/><path id="ae" d="M109 429q-27 0-43 18t-16 44q0 71 53 123t132 52q91 0 152-56t62-145q0-43-20-82t-48-68-80-74q-36-31-100-92l-59-56 76-1q157 0 167 5 7 2 24 89v3h40v-3q-1-3-13-91T421 3V0H50v31q0 7 6 15t30 35q29 32 50 56 9 10 34 37t34 37 29 33 28 34 23 30 21 32 15 29 13 32 7 30 3 33q0 63-34 109t-97 46q-33 0-58-17t-35-33-10-19q0-1 5-1 18 0 37-14t19-46q0-25-16-42t-45-18Z"/><path id="af" d="M462 0q-18 3-129 3-116 0-134-3h-9v46h58q7 0 17 2t14 5 7 8q1 2 1 54v50H28v46l151 231q153 232 155 233 2 2 21 2h18l6-6V211h92v-46h-92V66q0-7 6-12 8-7 57-8h29V0h-9ZM293 211v334L74 212l109-1h110Z"/><path id="ag" d="M78 250q0 24 17 42t43 18q24 0 42-16t19-43q0-25-17-43t-43-18-43 17-18 43Z"/><path id="ah" d="M39 168q0 57 19 104t49 78 67 52 70 31 63 9h3q45 0 78-22t33-65q0-90-111-118-49-13-134-14-37 0-38-2 0-2-6-35t-7-58q0-47 21-74t63-28 93 19 92 66q9 10 12 10 4 0 13-9t10-14-9-16-30-27-46-31-63-25-76-10q-79 0-122 53T39 168Zm334 185q-6 52-68 52-33 0-61-14t-45-34-29-41-16-36-5-19q0-1 20-1 113 0 158 24t46 69Z"/><path id="ai" d="M52 289q7 42 54 97t116 56q35 0 64-18t43-45q42 63 101 63 37 0 64-22t28-59q0-29-14-47t-27-22-23-4q-19 0-31 11t-12 29q0 46 50 63-11 13-40 13-13 0-19-2-38-16-56-66-60-221-60-258 0-28 16-40t35-12q37 0 73 33t49 81q3 10 6 11t16 2h4q15 0 15-8 0-1-2-11-16-57-62-101T333-11q-70 0-106 63-41-62-94-62h-6q-49 0-70 26T35 71q0 32 19 52t45 20q43 0 43-42 0-20-12-35t-23-20-13-5l-3-1q0-1 6-4t16-7 19-3q36 0 62 45 9 16 23 68t28 108 16 66q5 27 5 39 0 28-15 40t-34 12q-40 0-75-32t-49-82q-2-9-5-10t-16-2H58q-6 6-6 11Z"/><path id="aj" d="M23 287q1 3 2 8t5 22 10 31 15 33 20 30 26 22 33 9q75 0 96-64l10 9q62 55 118 55 65 0 102-47t37-114q0-108-76-199T249-10q-22 0-39 6-11 5-23 15t-19 17l-7 8q-1-1-22-87t-21-87q0-6 8-7t37-3h25q6-7 6-9t-3-18q-3-12-6-15t-13-4h-11q-9 0-34 1t-62 1q-70 0-89-2h-8q-7 7-7 11 2 27 13 35h20q34 1 39 12 3 6 61 239t61 247q1 5 1 14 0 41-25 41-22 0-37-28t-23-61-12-36q-2-2-16-2H29q-6 6-6 9Zm155-185q22-76 74-76 30 0 58 23t46 58q18 34 36 108t19 110v6q0 74-61 74-11 0-22-3t-22-9-20-13-17-15-15-15-11-14-8-10l-3-4q0-1-3-14t-11-44-14-52q-26-106-26-110Z"/><path id="ak" d="M201-11q-75 0-121 49T34 156q0 65 30 123t82 101q76 61 155 61 32 0 40-1 13-3 26-7t35-16 36-30 26-49 12-70q0-107-86-193T201-11Zm-80 131q0-50 26-72t59-22q44 0 83 32t62 84q9 21 23 74t14 92q0 44-18 67-24 30-64 30-63 0-111-58-37-44-55-117t-19-110Z"/><path id="al" d="M21 287q1 6 3 16t12 38 20 47 33 37 46 17q36 0 60-18t30-34 6-21q0-2 1-2l11 11q61 64 139 64 54 0 87-27t34-79-38-157-38-127q0-26 17-26 6 0 9 1 29 5 52 38t35 80q2 8 20 8 20 0 20-8 0-1-4-15-8-29-22-57t-46-56-69-27q-47 0-68 27t-21 56q0 19 36 120t37 152q0 59-44 59h-5q-86 0-145-101l-7-12-33-134Q156 26 151 16q-13-27-43-27-13 0-21 6T76 7t-2 10q0 13 38 163t40 163q1 5 1 23 0 39-24 39-38 0-63-100-6-20-6-21-2-6-19-6H27q-6 6-6 9Z"/><path id="am" d="M26 385q-7 7-7 10 0 4 3 16t5 14q2 5 9 5t51 1h53l19 80q3 11 7 29t7 26 6 20 8 17 10 12 14 9 18 2q18-1 25-11t7-19q0-7-9-47t-20-79l-10-37q0-2 50-2h51q7-7 7-11 0-22-13-35H210l-36-145Q135 80 135 68q0-42 27-42 35 0 68 34t53 84q2 6 5 7t15 2h4q15 0 15-8 0-3-3-12-5-16-18-38t-34-47-51-42-61-17q-30 0-57 15T59 56q-2 8-2 27v18l35 140q35 141 36 142 0 2-51 2H26Z"/><path id="an" d="M56 237v13l14 20h299v150l1 150q10 13 19 13 13 0 20-15V270h298q15-8 15-20t-15-20H409V-68q-8-14-18-14h-4q-12 0-18 14v298H70q-14 7-14 20Z"/><path id="ao" d="M21 287q1 6 3 16t12 38 20 47 32 37 44 17 43-7 30-18 16-22 8-19l2-7q0-2 1-2l11 11q60 64 141 64 17 0 31-2t26-7 19-10 15-12 10-13 8-13 4-12 3-9 2-7l8 10q63 75 149 75 54 0 87-27t34-79q0-51-38-158T704 50q1-14 5-19t15-5q28 0 52 30t39 82q3 11 6 13t16 2q20 0 20-8 0-1-4-15-8-29-22-57t-46-56-69-27q-47 0-68 27t-21 56q0 19 36 120t37 152q0 59-44 59h-5q-86 0-145-101l-7-12-33-134Q433 26 428 16q-13-27-43-27-13 0-21 7T353 8t-3 10q0 11 34 143l36 146q3 15 3 38 0 59-44 59h-5q-86 0-145-101l-7-12-33-134Q156 26 151 16q-13-27-43-27-13 0-21 6T76 7t-2 10q0 13 38 164 39 154 39 161 3 15 3 27 0 36-25 36-22 0-37-28t-23-61-12-36q-2-2-16-2H27q-6 6-6 9Z"/><path id="ap" d="M33 157q0 101 76 192t171 92q51 0 90-49 16 30 46 30 13 0 23-8t10-20q0-13-37-160T374 68q0-25 7-33t21-9q9 1 20 9 21 20 41 96 6 20 10 21 2 1 10 1h4q19 0 19-9 0-6-5-27t-20-54-32-50Q436 0 417-8q-8-2-24-2-34 0-57 15t-30 31l-6 15q-1 1-4-1l-4-4q-59-56-120-56-55 0-97 40T33 157Zm318 171q0 6-5 22t-23 35-46 20q-35 0-67-31t-50-81q-29-79-41-164v-11q0-8-1-12 0-45 18-62t43-18q38 0 75 33t44 51q2 4 27 107t26 111Z"/><path id="aq" d="M184 600q0 24 19 42t44 19q18 0 30-12t13-30q0-23-20-42t-44-20q-15 0-28 10t-14 33ZM21 287q0 8 9 31t24 51 44 51 60 22q39 0 65-23t27-62q0-17-14-56t-40-105-42-113q-5-22-5-32 0-25 17-25 9 0 19 3t23 14 27 35 25 59q3 12 5 14t17 2q20 0 20-10 0-8-9-31t-25-51-45-50-62-22q-32 0-59 21T74 74q0 17 5 32t43 114q38 101 44 121t7 39q0 24-17 24h-2q-30 0-55-33t-38-84q-1-1-2-3t-1-3-2-2-3-1-4 0-8 0H27q-6 6-6 9Z"/><path id="ar" d="M131 289q0 32 16 65t56 61 97 27q62 0 90-27t29-60q0-32-17-47t-38-16q-13 0-24 8t-12 26q0 16 9 28t17 18 13 6q1 0 1 1 0 3-7 9t-25 11-39 6q-48 0-70-26t-23-53q0-25 19-35t55-17 52-15q66-29 66-96 0-28-11-56t-33-56-63-44-94-17q-77 0-109 29T53 87q0 39 21 56t44 17q15 0 28-9t14-31q0-26-18-44t-31-18q-2-1-3-1t-1-2q1-3 8-8t31-13 55-7q36 0 62 11t38 28 17 31 5 25q0 28-21 42t-48 17-59 15-47 35q-17 25-17 58Z"/><path id="as" d="M84 520q0 8 4 13t8 6l3 1q7 0 154-69t291-137l143-69q7-5 7-15t-7-15q-2-2-292-139L107-40h-6q-18 2-18 20v3q-1 7 15 16 19 10 150 72 78 37 130 61l248 118-248 118Q90 504 86 509q-2 4-2 11Z"/><path id="at" d="M127 463q-27 0-42 17t-16 44q0 55 48 98t116 43q35 0 44-1 74-12 113-53t40-89q0-52-34-101t-94-71l-3-2q0-1 9-3t29-9 38-21q82-53 82-140 0-79-62-138T238-22q-80 0-138 43T42 130q0 28 18 45t45 18q28 0 46-18t18-45q0-11-3-20t-7-16-11-12-12-8-10-4-8-3l-4-1q51-45 124-45 55 0 83 53 17 33 17 101v20q0 95-64 127-15 6-61 7l-42 1-3 2q-2 3-2 16 0 18 8 18 28 0 58 5 34 5 62 42t28 112v8q0 57-35 79-22 14-47 14-32 0-59-11t-38-23-11-12h3q3-1 8-2t10-5 12-7 10-11 8-15 3-20q0-22-14-39t-45-18Z"/><path id="au" d="M694-11v-8l-6-14-10-7q-7 0-154 69T234 166L90 235q-7 5-7 15 0 11 8 16 573 274 587 274 3 0 9-6t7-15-7-14q-1-1-270-129L151 250l266-126Q686-4 687-5q7-6 7-14Z"/><path id="av" d="M624 444q12-3 98-3 75 0 78 3h5v-62h-64L593 11l-3-3-4-4-2-2-3-2q-3-2-2-2t-4-1-4 0-4-1-6 0-8 0h-11q-17 0-24 10t-28 64q-16 40-27 67l-48 120-48-120q-10-26-26-65-21-55-28-65T289-4h-12q-18 0-24 2t-15 13L90 382H25v62h7q15-3 108-3 103 0 121 3h9v-62h-48l88-218 72 178-16 40h-63v62h7q12-3 97-3 101 0 116 3h8v-62h-25q-25 0-25-2 1-4 48-121t48-117l97 240h-57v62h7Z"/><path id="aw" d="m40 686 91 4q91 4 92 4h6V533l1-161 8 9q10 13 26 26t53 28 81 15q30 0 50-3t43-13 38-32 22-56q2-11 3-148V62h69V0h-9q-18 3-125 3-115 0-124-3h-9v62h69v213q0 73-9 98t-45 26q-45 0-83-29t-50-80q-2-9-3-119V62h69V0h-9q-18 3-124 3Q64 3 46 0h-9v62h69v391q0 66 1 81 0 59-2 71t-14 15q-14 4-41 4H37v62h3Z"/><path id="ax" d="M405 293h-31l-50 19-19 49q0 17 7 33 3 3 3 5-10 0-21-5t-28-19-28-46-16-80q-1-8-1-100V62h87V0h-10q-18 3-137 3Q47 3 38 0h-9v62h69v241q0 50-2 60t-13 13q-14 4-41 4H29v62h3l86 4q86 4 87 4h5v-36l1-36q36 71 104 71h6q63 0 92-27t29-62q0-28-18-47Z"/><path id="ay" d="M174 734q0 1 1 3t2 3 3 4 4 3 5 2 7 1q10-2 18-15v-945h159q28 0 38-3t11-17-11-17-42-4h-31q-24 0-40 1H190q-12 4-16 16v968Z"/><path id="az" d="M117 59q0-33 25-33 37 0 63 105 6 20 10 21 2 1 10 1h16q3 0 5-2t2-7q-1-6-3-16t-11-38-20-47-31-37-46-17q-36 0-67 22T38 85q0 12 1 17l65 258q63 255 63 263 0 3-1 5t-4 4-5 2-8 1-8 1-9 1-10 0h-13q-3 0-8 1t-6 3-1 6q0 2 2 14 5 19 11 21t72 6q15 1 34 2t30 3 11 1q12 0 12-8 0-11-73-300T118 83v-8q0-6-1-10v-6Z"/><path id="aA" d="M311 43q-15-13-44-28T206 0q-63 0-101 45T66 160q0 105 77 193t171 89q47 0 87-48l3 4q2 3 5 6t9 8 13 7 16 3q14 0 23-9t10-19q0-15-57-242T363-80q-18-54-77-89t-135-36q-141 0-141 68 0 26 18 46t46 20q15 0 28-9t14-31q0-10-2-19t-7-14-8-10-7-8l-2-2h1q10-3 60-3 38 0 60 12 23 11 43 33t28 47q6 19 16 62 13 48 13 56Zm73 285-4 11q-3 11-5 15t-6 14-10 14-13 11-18 9-22 3q-44 0-85-53-30-39-50-119t-20-116q0-79 62-79 56 0 110 70l8 10 53 210Z"/><path id="aB" d="M164 157q0-24-16-40t-39-16h-7q46-79 122-79 70 0 102 60 19 33 19 128 0 103-27 139-26 33-58 33h-6q-78 0-118-68-4-7-7-8t-15-2q-17 0-19 6-2 4-2 175v129q0 50 5 50 2 2 4 2 1 0 21-8t55-16 75-8q71 0 136 28 8 4 13 4 8 0 8-18v-13q-82-97-205-97-31 0-56 6l-10 2V374q19 14 30 22t36 16 51 8q81 0 137-65t56-154q0-92-64-157T229-22q-81 0-130 54T50 154q0 24 11 38t23 18 23 4q25 0 41-17t16-40Z"/><path id="aC" d="M42 313q0 163 81 258t180 95q69 0 99-36t30-80q0-25-14-40t-39-15q-23 0-38 14t-15 39q0 44 47 53-22 22-62 25-71 0-117-60-47-66-47-202l1-4q5 6 8 13 41 60 107 60h4q46 0 81-19 24-14 48-40t39-57q21-49 21-107v-18q0-23-5-43-11-59-64-115T253-22q-28 0-54 8t-56 30-51 59-36 97-14 141Zm215 84q-30 0-52-17t-34-45-17-57-6-62q0-83 12-119t38-58q24-18 53-18 51 0 78 38 13 18 18 45t5 105q0 80-5 107t-18 45q-27 36-72 36Z"/><path id="aD" d="M139-249h-2q-12 0-18 14v486l1 486q10 13 19 13 13 0 20-15v-970q-8-14-18-14h-2Z"/><path id="aE" d="M229 734q0 1 1 3t2 3 3 4 4 3 5 2 7 1q11-2 18-15v-970q-3-5-13-14l-109-1H77q-34 0-45 3t-11 17 11 17 40 4h27q20 0 34-1h96v944Z"/><path id="aF" d="m213 578-13-5q-14-5-40-10t-58-7H83v46h19q47 2 87 15t56 24 28 22q2 3 12 3 9 0 17-6V361l1-300q7-7 12-9t24-4 62-2h26V0h-11q-21 3-159 3-136 0-157-3H88v46h64q16 0 25 1t16 3 8 2 6 5 6 4v517Z"/><path id="aG" d="M202-349V850h40V-309h207v-40H202Z"/><path id="aH" d="M84 237v13l14 20h581q15-8 15-20t-15-20H98q-14 7-14 20Z"/><path id="aI" d="M229-309V850h40V-349H22v40h207Z"/><path id="aJ" d="M39 624v62h369q92 0 137-6t93-31q130-65 167-211 12-50 12-100 0-167-115-263-74-58-187-73-11-1-245-2H39v62h108v562H39Zm616-287v53q0 20-5 52t-11 52-23 46-36 40-54 27-75 16q-8 1-83 1h-70V62h109q38 0 65 3t68 18 66 46q23 27 34 66t13 67 2 75Z"/><linearGradient x1="1727.4287" gradientUnits="userSpaceOnUse" x2="1740.762" y1="807.9076" y2="807.9076" id="b" spreadMethod="reflect"><stop stop-color="#2ED6A1" offset="0%"/><stop stop-color="#25BF8F" offset="100%"/></linearGradient><linearGradient x1="1887.4287" gradientUnits="userSpaceOnUse" x2="1900.762" y1="807.9076" y2="807.9076" id="c" spreadMethod="reflect"><stop stop-color="#70CBFF" offset="0%"/><stop stop-color="#38B6FF" offset="100%"/></linearGradient><linearGradient x1="1907.4287" gradientUnits="userSpaceOnUse" x2="1920.762" y1="807.9076" y2="807.9076" id="d" spreadMethod="reflect"><stop stop-color="#70CBFF" offset="0%"/><stop stop-color="#38B6FF" offset="100%"/></linearGradient><linearGradient x1="1927.4287" gradientUnits="userSpaceOnUse" x2="1940.762" y1="807.9076" y2="807.9076" id="e" spreadMethod="reflect"><stop stop-color="#70CBFF" offset="0%"/><stop stop-color="#38B6FF" offset="100%"/></linearGradient><linearGradient x1="1947.4287" gradientUnits="userSpaceOnUse" x2="1960.762" y1="807.9076" y2="807.9076" id="f" spreadMethod="reflect"><stop stop-color="#70CBFF" offset="0%"/><stop stop-color="#38B6FF" offset="100%"/></linearGradient><linearGradient x1="1967.4287" gradientUnits="userSpaceOnUse" x2="1980.762" y1="807.9076" y2="807.9076" id="g" spreadMethod="reflect"><stop stop-color="#70CBFF" offset="0%"/><stop stop-color="#38B6FF" offset="100%"/></linearGradient><linearGradient x1="1867.4287" gradientUnits="userSpaceOnUse" x2="1880.762" y1="807.9076" y2="807.9076" id="h" spreadMethod="reflect"><stop stop-color="#FD714A" offset="0%"/><stop stop-color="#FC4816" offset="100%"/></linearGradient><linearGradient x1="1987.4287" gradientUnits="userSpaceOnUse" x2="2000.762" y1="807.9076" y2="807.9076" id="i" spreadMethod="reflect"><stop stop-color="#70CBFF" offset="0%"/><stop stop-color="#38B6FF" offset="100%"/></linearGradient><linearGradient x1="2007.4287" gradientUnits="userSpaceOnUse" x2="2020.762" y1="807.9076" y2="807.9076" id="j" spreadMethod="reflect"><stop stop-color="#70CBFF" offset="0%"/><stop stop-color="#38B6FF" offset="100%"/></linearGradient><linearGradient x1="2027.4287" gradientUnits="userSpaceOnUse" x2="2040.762" y1="807.9076" y2="807.9076" id="k" spreadMethod="reflect"><stop stop-color="#70CBFF" offset="0%"/><stop stop-color="#38B6FF" offset="100%"/></linearGradient><linearGradient x1="2047.4287" gradientUnits="userSpaceOnUse" x2="2060.762" y1="807.9076" y2="807.9076" id="l" spreadMethod="reflect"><stop stop-color="#70CBFF" offset="0%"/><stop stop-color="#38B6FF" offset="100%"/></linearGradient><linearGradient x1="2067.4287" gradientUnits="userSpaceOnUse" x2="2080.762" y1="807.9076" y2="807.9076" id="m" spreadMethod="reflect"><stop stop-color="#70CBFF" offset="0%"/><stop stop-color="#38B6FF" offset="100%"/></linearGradient><linearGradient x1="2087.4287" gradientUnits="userSpaceOnUse" x2="2100.762" y1="807.9076" y2="807.9076" id="n" spreadMethod="reflect"><stop stop-color="#70CBFF" offset="0%"/><stop stop-color="#38B6FF" offset="100%"/></linearGradient><linearGradient x1="2107.4287" gradientUnits="userSpaceOnUse" x2="2120.762" y1="807.9076" y2="807.9076" id="o" spreadMethod="reflect"><stop stop-color="#70CBFF" offset="0%"/><stop stop-color="#38B6FF" offset="100%"/></linearGradient><linearGradient x1="2127.4287" gradientUnits="userSpaceOnUse" x2="2140.762" y1="807.9076" y2="807.9076" id="p" spreadMethod="reflect"><stop stop-color="#70CBFF" offset="0%"/><stop stop-color="#38B6FF" offset="100%"/></linearGradient><linearGradient x1="2147.4287" gradientUnits="userSpaceOnUse" x2="2160.762" y1="807.9076" y2="807.9076" id="q" spreadMethod="reflect"><stop stop-color="#70CBFF" offset="0%"/><stop stop-color="#38B6FF" offset="100%"/></linearGradient><linearGradient x1="2167.4287" gradientUnits="userSpaceOnUse" x2="2180.762" y1="807.9076" y2="807.9076" id="r" spreadMethod="reflect"><stop stop-color="#70CBFF" offset="0%"/><stop stop-color="#38B6FF" offset="100%"/></linearGradient><linearGradient x1="2187.4287" gradientUnits="userSpaceOnUse" x2="2200.762" y1="807.9076" y2="807.9076" id="s" spreadMethod="reflect"><stop stop-color="#70CBFF" offset="0%"/><stop stop-color="#38B6FF" offset="100%"/></linearGradient><linearGradient x1="2207.4287" gradientUnits="userSpaceOnUse" x2="2220.762" y1="807.9076" y2="807.9076" id="t" spreadMethod="reflect"><stop stop-color="#70CBFF" offset="0%"/><stop stop-color="#38B6FF" offset="100%"/></linearGradient><linearGradient x1="2227.4287" gradientUnits="userSpaceOnUse" x2="2240.762" y1="807.9076" y2="807.9076" id="u" spreadMethod="reflect"><stop stop-color="#70CBFF" offset="0%"/><stop stop-color="#38B6FF" offset="100%"/></linearGradient><linearGradient x1="2247.4287" gradientUnits="userSpaceOnUse" x2="2260.762" y1="807.9076" y2="807.9076" id="v" spreadMethod="reflect"><stop stop-color="#70CBFF" offset="0%"/><stop stop-color="#38B6FF" offset="100%"/></linearGradient><linearGradient x1="2267.4287" gradientUnits="userSpaceOnUse" x2="2280.762" y1="807.9076" y2="807.9076" id="w" spreadMethod="reflect"><stop stop-color="#70CBFF" offset="0%"/><stop stop-color="#38B6FF" offset="100%"/></linearGradient><linearGradient x1="2287.4287" gradientUnits="userSpaceOnUse" x2="2300.762" y1="807.9076" y2="807.9076" id="x" spreadMethod="reflect"><stop stop-color="#70CBFF" offset="0%"/><stop stop-color="#38B6FF" offset="100%"/></linearGradient><linearGradient x1="2307.4287" gradientUnits="userSpaceOnUse" x2="2320.762" y1="807.9076" y2="807.9076" id="y" spreadMethod="reflect"><stop stop-color="#70CBFF" offset="0%"/><stop stop-color="#38B6FF" offset="100%"/></linearGradient><linearGradient x1="2327.4287" gradientUnits="userSpaceOnUse" x2="2340.762" y1="807.9076" y2="807.9076" id="z" spreadMethod="reflect"><stop stop-color="#70CBFF" offset="0%"/><stop stop-color="#38B6FF" offset="100%"/></linearGradient><linearGradient x1="1747.4287" gradientUnits="userSpaceOnUse" x2="1760.762" y1="807.9076" y2="807.9076" id="A" spreadMethod="reflect"><stop stop-color="#2ED6A1" offset="0%"/><stop stop-color="#25BF8F" offset="100%"/></linearGradient><linearGradient x1="1767.4287" gradientUnits="userSpaceOnUse" x2="1780.762" y1="807.9076" y2="807.9076" id="B" spreadMethod="reflect"><stop stop-color="#2ED6A1" offset="0%"/><stop stop-color="#25BF8F" offset="100%"/></linearGradient><linearGradient x1="1787.4287" gradientUnits="userSpaceOnUse" x2="1800.762" y1="807.9076" y2="807.9076" id="C" spreadMethod="reflect"><stop stop-color="#2ED6A1" offset="0%"/><stop stop-color="#25BF8F" offset="100%"/></linearGradient><linearGradient x1="1807.4287" gradientUnits="userSpaceOnUse" x2="1820.762" y1="807.9076" y2="807.9076" id="D" spreadMethod="reflect"><stop stop-color="#2ED6A1" offset="0%"/><stop stop-color="#25BF8F" offset="100%"/></linearGradient><linearGradient x1="1827.4287" gradientUnits="userSpaceOnUse" x2="1840.762" y1="807.9076" y2="807.9076" id="E" spreadMethod="reflect"><stop stop-color="#2ED6A1" offset="0%"/><stop stop-color="#25BF8F" offset="100%"/></linearGradient><linearGradient x1="1847.4287" gradientUnits="userSpaceOnUse" x2="1860.762" y1="807.9076" y2="807.9076" id="F" spreadMethod="reflect"><stop stop-color="#2ED6A1" offset="0%"/><stop stop-color="#25BF8F" offset="100%"/></linearGradient><linearGradient x1="1707.4287" gradientUnits="userSpaceOnUse" x2="1720.762" y1="807.9076" y2="807.9076" id="G" spreadMethod="reflect"><stop stop-color="#2ED6A1" offset="0%"/><stop stop-color="#25BF8F" offset="100%"/></linearGradient><clipPath clipPathUnits="userSpaceOnUse" id="a"><path d="M1670 710h701v534h-701V710Z"/></clipPath><clipPath clipPathUnits="userSpaceOnUse" id="H"><path d="M-74.7948-171.3617H178.175v1206.8413H-74.7948V-171.3617Z"/></clipPath><clipPath clipPathUnits="userSpaceOnUse" id="I"><path d="M-30.6527-171.3617h727.2883v1206.8413H-30.6527V-171.3617Z"/></clipPath><clipPath clipPathUnits="userSpaceOnUse" id="J"><path d="M-59.9071-213.1112h848.5568v659.0884H-59.9071v-659.0884Z"/></clipPath></defs><g data-mml-node="math" fill="currentColor" stroke-width="0" stroke="currentColor"><g data-mml-node="mtable"><g data-mml-node="mtr"><g data-mml-node="mtd"><g data-mml-node="mtext" transform="matrix(1 0 0 -1 214 -6074.4)"><use data-c="1D404" xlink:href="#K"/><use data-c="1D427" xlink:href="#L" transform="translate(756)"/><use data-c="1D41C" xlink:href="#M" transform="translate(1395)"/><use data-c="1D428" xlink:href="#N" transform="translate(1906)"/><use data-c="1D41D" xlink:href="#O" transform="translate(2481)"/><use data-c="1D41E" xlink:href="#P" transform="translate(3120)"/><use data-c="3A" xlink:href="#Q" transform="translate(3647)"/></g></g></g><g data-mml-node="mtr"><g data-mml-node="mtd"><use data-c="1D438" xlink:href="#R" data-mml-node="mi" transform="matrix(1 0 0 -1 1934 -3482.7)"/><use data-c="28" xlink:href="#S" data-mml-node="mo" transform="matrix(1 0 0 -1 2698 -3482.7)"/><use data-c="1D447" xlink:href="#T" data-mml-node="mi" transform="matrix(1 0 0 -1 3087 -3482.7)"/><use data-c="29" xlink:href="#U" data-mml-node="mo" transform="matrix(1 0 0 -1 3791 -3482.7)"/></g><g data-mml-node="mtd"><use data-c="3D" xlink:href="#V" data-mml-node="mo" transform="matrix(1 0 0 -1 4457.8 -3482.7)"/></g><g data-mml-node="mtd"><g data-mml-node="mrow"><g data-mml-node="mo" transform="matrix(1 0 0 -1 5513.8 -3482.7)"><use data-c="23A7" xlink:href="#W" transform="translate(0 1142.7)"/><use data-c="23A9" xlink:href="#X" transform="translate(0 -642.7)"/><use data-c="23A8" xlink:href="#Y"/><svg width="889" height="172.7" y="1060" viewBox="0 30.4 889 172.7"><use data-c="23AA" xlink:href="#Z" transform="scale(1 .849)"/></svg><svg width="889" height="172.7" y="-732.7" viewBox="0 30.4 889 172.7"><use data-c="23AA" xlink:href="#Z" transform="scale(1 .849)"/></svg></g><g data-mml-node="mtable"><g data-mml-node="mtr"><g data-mml-node="mtd"><use data-c="30" xlink:href="#aa" data-mml-node="mn" transform="matrix(1 0 0 -1 6402.8 -4774.4)"/></g><g data-mml-node="mtd"><g data-mml-node="mtext" transform="matrix(1 0 0 -1 21383.3 -4774.4)"><use data-c="69" xlink:href="#ab"/><use data-c="66" xlink:href="#ac" transform="translate(278)"/><use data-c="A0" xlink:href="#ad" transform="translate(584)"/></g><use data-c="1D447" xlink:href="#T" data-mml-node="mi" transform="matrix(1 0 0 -1 22217.3 -4774.4)"/><use data-c="3D" xlink:href="#V" data-mml-node="mo" transform="matrix(1 0 0 -1 23199.1 -4774.4)"/><use data-c="30" xlink:href="#aa" data-mml-node="mn" transform="matrix(1 0 0 -1 24254.9 -4774.4)"/></g></g><g data-mml-node="mtr"><g data-mml-node="mtd"><g data-mml-node="msup"><use data-c="32" xlink:href="#ae" data-mml-node="mn" transform="matrix(1 0 0 -1 6402.8 -3482.7)"/><g data-mml-node="TeXAtom" data-mjx-texclass="ORD"><g data-mml-node="mn" transform="matrix(.707 0 0 -.707 6935.8 -3845.7)"><use data-c="32" xlink:href="#ae"/><use data-c="34" xlink:href="#af" transform="translate(500)"/></g></g></g><use data-c="22C5" xlink:href="#ag" data-mml-node="mo" transform="matrix(1 0 0 -1 7915.1 -3482.7)"/><use data-c="1D452" xlink:href="#ah" data-mml-node="mi" transform="matrix(1 0 0 -1 8415.4 -3482.7)"/><use data-c="1D465" xlink:href="#ai" data-mml-node="mi" transform="matrix(1 0 0 -1 8881.4 -3482.7)"/><use data-c="1D45D" xlink:href="#aj" data-mml-node="mi" transform="matrix(1 0 0 -1 9453.4 -3482.7)"/><use data-c="1D45C" xlink:href="#ak" data-mml-node="mi" transform="matrix(1 0 0 -1 9956.4 -3482.7)"/><use data-c="1D45B" xlink:href="#al" data-mml-node="mi" transform="matrix(1 0 0 -1 10441.4 -3482.7)"/><use data-c="1D452" xlink:href="#ah" data-mml-node="mi" transform="matrix(1 0 0 -1 11041.4 -3482.7)"/><use data-c="1D45B" xlink:href="#al" data-mml-node="mi" transform="matrix(1 0 0 -1 11507.4 -3482.7)"/><use data-c="1D461" xlink:href="#am" data-mml-node="mi" transform="matrix(1 0 0 -1 12107.4 -3482.7)"/><use data-c="2B" xlink:href="#an" data-mml-node="mo" transform="matrix(1 0 0 -1 12690.6 -3482.7)"/><use data-c="1D45A" xlink:href="#ao" data-mml-node="mi" transform="matrix(1 0 0 -1 13690.8 -3482.7)"/><use data-c="1D44E" xlink:href="#ap" data-mml-node="mi" transform="matrix(1 0 0 -1 14568.8 -3482.7)"/><use data-c="1D45B" xlink:href="#al" data-mml-node="mi" transform="matrix(1 0 0 -1 15097.8 -3482.7)"/><use data-c="1D461" xlink:href="#am" data-mml-node="mi" transform="matrix(1 0 0 -1 15697.8 -3482.7)"/><use data-c="1D456" xlink:href="#aq" data-mml-node="mi" transform="matrix(1 0 0 -1 16058.8 -3482.7)"/><use data-c="1D460" xlink:href="#ar" data-mml-node="mi" transform="matrix(1 0 0 -1 16403.8 -3482.7)"/><use data-c="1D460" xlink:href="#ar" data-mml-node="mi" transform="matrix(1 0 0 -1 16872.8 -3482.7)"/><use data-c="1D44E" xlink:href="#ap" data-mml-node="mi" transform="matrix(1 0 0 -1 17341.8 -3482.7)"/></g><g data-mml-node="mtd"><g data-mml-node="mtext" transform="matrix(1 0 0 -1 21383.3 -3482.7)"><use data-c="69" xlink:href="#ab"/><use data-c="66" xlink:href="#ac" transform="translate(278)"/><use data-c="A0" xlink:href="#ad" transform="translate(584)"/></g><use data-c="1D447" xlink:href="#T" data-mml-node="mi" transform="matrix(1 0 0 -1 22217.3 -3482.7)"/><use data-c="3E" xlink:href="#as" data-mml-node="mo" transform="matrix(1 0 0 -1 23199.1 -3482.7)"/><use data-c="30" xlink:href="#aa" data-mml-node="mn" transform="matrix(1 0 0 -1 24254.9 -3482.7)"/></g></g><g data-mml-node="mtr"><g data-mml-node="mtd"><g data-mml-node="msup"><use data-c="32" xlink:href="#ae" data-mml-node="mn" transform="matrix(1 0 0 -1 6402.8 -2191)"/><g data-mml-node="TeXAtom" data-mjx-texclass="ORD"><g data-mml-node="mn" transform="matrix(.707 0 0 -.707 6935.8 -2554)"><use data-c="32" xlink:href="#ae"/><use data-c="34" xlink:href="#af" transform="translate(500)"/></g></g></g><use data-c="22C5" xlink:href="#ag" data-mml-node="mo" transform="matrix(1 0 0 -1 7915.1 -2191)"/><use data-c="1D452" xlink:href="#ah" data-mml-node="mi" transform="matrix(1 0 0 -1 8415.4 -2191)"/><use data-c="1D465" xlink:href="#ai" data-mml-node="mi" transform="matrix(1 0 0 -1 8881.4 -2191)"/><use data-c="1D45D" xlink:href="#aj" data-mml-node="mi" transform="matrix(1 0 0 -1 9453.4 -2191)"/><use data-c="1D45C" xlink:href="#ak" data-mml-node="mi" transform="matrix(1 0 0 -1 9956.4 -2191)"/><use data-c="1D45B" xlink:href="#al" data-mml-node="mi" transform="matrix(1 0 0 -1 10441.4 -2191)"/><use data-c="1D452" xlink:href="#ah" data-mml-node="mi" transform="matrix(1 0 0 -1 11041.4 -2191)"/><use data-c="1D45B" xlink:href="#al" data-mml-node="mi" transform="matrix(1 0 0 -1 11507.4 -2191)"/><use data-c="1D461" xlink:href="#am" data-mml-node="mi" transform="matrix(1 0 0 -1 12107.4 -2191)"/><use data-c="2B" xlink:href="#an" data-mml-node="mo" transform="matrix(1 0 0 -1 12690.6 -2191)"/><g data-mml-node="msup"><use data-c="32" xlink:href="#ae" data-mml-node="mn" transform="matrix(1 0 0 -1 13690.8 -2191)"/><g data-mml-node="TeXAtom" data-mjx-texclass="ORD"><g data-mml-node="mn" transform="matrix(.707 0 0 -.707 14223.8 -2554)"><use data-c="32" xlink:href="#ae"/><use data-c="33" xlink:href="#at" transform="translate(500)"/></g></g></g><use data-c="2B" xlink:href="#an" data-mml-node="mo" transform="matrix(1 0 0 -1 15203.1 -2191)"/><use data-c="1D45A" xlink:href="#ao" data-mml-node="mi" transform="matrix(1 0 0 -1 16203.3 -2191)"/><use data-c="1D44E" xlink:href="#ap" data-mml-node="mi" transform="matrix(1 0 0 -1 17081.3 -2191)"/><use data-c="1D45B" xlink:href="#al" data-mml-node="mi" transform="matrix(1 0 0 -1 17610.3 -2191)"/><use data-c="1D461" xlink:href="#am" data-mml-node="mi" transform="matrix(1 0 0 -1 18210.3 -2191)"/><use data-c="1D456" xlink:href="#aq" data-mml-node="mi" transform="matrix(1 0 0 -1 18571.3 -2191)"/><use data-c="1D460" xlink:href="#ar" data-mml-node="mi" transform="matrix(1 0 0 -1 18916.3 -2191)"/><use data-c="1D460" xlink:href="#ar" data-mml-node="mi" transform="matrix(1 0 0 -1 19385.3 -2191)"/><use data-c="1D44E" xlink:href="#ap" data-mml-node="mi" transform="matrix(1 0 0 -1 19854.3 -2191)"/></g><g data-mml-node="mtd"><g data-mml-node="mtext" transform="matrix(1 0 0 -1 21383.3 -2191)"><use data-c="69" xlink:href="#ab"/><use data-c="66" xlink:href="#ac" transform="translate(278)"/><use data-c="A0" xlink:href="#ad" transform="translate(584)"/></g><use data-c="1D447" xlink:href="#T" data-mml-node="mi" transform="matrix(1 0 0 -1 22217.3 -2191)"/><use data-c="3C" xlink:href="#au" data-mml-node="mo" transform="matrix(1 0 0 -1 23199.1 -2191)"/><use data-c="30" xlink:href="#aa" data-mml-node="mn" transform="matrix(1 0 0 -1 24254.9 -2191)"/></g></g></g></g></g></g><g data-mml-node="mtr"><g data-mml-node="mtd"><g data-mml-node="mtext" transform="matrix(1 0 0 -1 863 -891)"><use data-c="1D430" xlink:href="#av"/><use data-c="1D421" xlink:href="#aw" transform="translate(831)"/><use data-c="1D41E" xlink:href="#P" transform="translate(1470)"/><use data-c="1D42B" xlink:href="#ax" transform="translate(1997)"/><use data-c="1D41E" xlink:href="#P" transform="translate(2471)"/><use data-c="3A" xlink:href="#Q" transform="translate(2998)"/></g></g></g><g data-mml-node="mtr"><g data-mml-node="mtd"><use data-c="1D452" xlink:href="#ah" data-mml-node="mi" transform="matrix(1 0 0 -1 127 409)"/><use data-c="1D465" xlink:href="#ai" data-mml-node="mi" transform="matrix(1 0 0 -1 593 409)"/><use data-c="1D45D" xlink:href="#aj" data-mml-node="mi" transform="matrix(1 0 0 -1 1165 409)"/><use data-c="1D45C" xlink:href="#ak" data-mml-node="mi" transform="matrix(1 0 0 -1 1668 409)"/><use data-c="1D45B" xlink:href="#al" data-mml-node="mi" transform="matrix(1 0 0 -1 2153 409)"/><use data-c="1D452" xlink:href="#ah" data-mml-node="mi" transform="matrix(1 0 0 -1 2753 409)"/><use data-c="1D45B" xlink:href="#al" data-mml-node="mi" transform="matrix(1 0 0 -1 3219 409)"/><use data-c="1D461" xlink:href="#am" data-mml-node="mi" transform="matrix(1 0 0 -1 3819 409)"/></g><g data-mml-node="mtd"><use data-c="3D" xlink:href="#V" data-mml-node="mo" transform="matrix(1 0 0 -1 4457.8 409)"/></g><g data-mml-node="mtd"><g data-mml-node="mrow"><use data-c="230A" xlink:href="#ay" data-mml-node="mo" transform="matrix(1 0 0 -1 5513.8 409)"/><use data-c="1D459" xlink:href="#az" data-mml-node="mi" transform="matrix(1 0 0 -1 5957.8 409)"/><use data-c="1D45C" xlink:href="#ak" data-mml-node="mi" transform="matrix(1 0 0 -1 6255.8 409)"/><g data-mml-node="msub"><use data-c="1D454" xlink:href="#aA" data-mml-node="mi" transform="matrix(1 0 0 -1 6740.8 409)"/><g data-mml-node="TeXAtom" data-mjx-texclass="ORD"><g data-mml-node="mn" transform="matrix(.707 0 0 -.707 7250.8 559)"><use data-c="32" xlink:href="#ae"/><use data-c="35" xlink:href="#aB" transform="translate(500)"/><use data-c="36" xlink:href="#aC" transform="translate(1000)"/></g></g></g><use data-c="28" xlink:href="#S" data-mml-node="mo" transform="matrix(1 0 0 -1 8361.5 409)"/><use data-c="32" xlink:href="#ae" data-mml-node="mn" transform="matrix(1 0 0 -1 8750.5 409)"/><use data-c="22C5" xlink:href="#ag" data-mml-node="mo" transform="matrix(1 0 0 -1 9472.7 409)"/><g data-mml-node="TeXAtom" data-mjx-texclass="ORD"><use data-c="7C" xlink:href="#aD" data-mml-node="mo" transform="matrix(1 0 0 -1 9972.9 409.5)"/></g><use data-c="1D447" xlink:href="#T" data-mml-node="mi" transform="matrix(1 0 0 -1 10250.9 409)"/><g data-mml-node="TeXAtom" data-mjx-texclass="ORD"><use data-c="7C" xlink:href="#aD" data-mml-node="mo" transform="matrix(1 0 0 -1 10954.9 409.5)"/></g><use data-c="29" xlink:href="#U" data-mml-node="mo" transform="matrix(1 0 0 -1 11232.9 409)"/><use data-c="230B" xlink:href="#aE" data-mml-node="mo" transform="matrix(1 0 0 -1 11621.9 409)"/></g><use data-c="2B" xlink:href="#an" data-mml-node="mo" transform="matrix(1 0 0 -1 12288.1 409)"/><use data-c="31" xlink:href="#aF" data-mml-node="mn" transform="matrix(1 0 0 -1 13288.3 409)"/></g></g><g data-mml-node="mtr"><g data-mml-node="mtd"><use data-c="1D45A" xlink:href="#ao" data-mml-node="mi" transform="matrix(1 0 0 -1 0 1842.2)"/><use data-c="1D44E" xlink:href="#ap" data-mml-node="mi" transform="matrix(1 0 0 -1 878 1842.2)"/><use data-c="1D45B" xlink:href="#al" data-mml-node="mi" transform="matrix(1 0 0 -1 1407 1842.2)"/><use data-c="1D461" xlink:href="#am" data-mml-node="mi" transform="matrix(1 0 0 -1 2007 1842.2)"/><use data-c="1D456" xlink:href="#aq" data-mml-node="mi" transform="matrix(1 0 0 -1 2368 1842.2)"/><use data-c="1D460" xlink:href="#ar" data-mml-node="mi" transform="matrix(1 0 0 -1 2713 1842.2)"/><use data-c="1D460" xlink:href="#ar" data-mml-node="mi" transform="matrix(1 0 0 -1 3182 1842.2)"/><use data-c="1D44E" xlink:href="#ap" data-mml-node="mi" transform="matrix(1 0 0 -1 3651 1842.2)"/></g><g data-mml-node="mtd"><use data-c="3D" xlink:href="#V" data-mml-node="mo" transform="matrix(1 0 0 -1 4457.8 1842.2)"/></g><g data-mml-node="mtd"><g data-mml-node="mrow"><use data-c="230A" xlink:href="#aG" data-mml-node="mo" transform="matrix(1 0 0 -1 5513.8 1842.7)"/><g data-mml-node="TeXAtom" data-mjx-texclass="ORD"><use data-c="7C" xlink:href="#aD" data-mml-node="mo" transform="matrix(1 0 0 -1 5985.8 1842.7)"/></g><use data-c="1D447" xlink:href="#T" data-mml-node="mi" transform="matrix(1 0 0 -1 6263.8 1842.2)"/><g data-mml-node="TeXAtom" data-mjx-texclass="ORD"><use data-c="7C" xlink:href="#aD" data-mml-node="mo" transform="matrix(1 0 0 -1 6967.8 1842.7)"/></g><use data-c="22C5" xlink:href="#ag" data-mml-node="mo" transform="matrix(1 0 0 -1 7468 1842.2)"/><g data-mml-node="msup"><g data-mml-node="mn" transform="matrix(1 0 0 -1 7968.2 1842.2)"><use data-c="32" xlink:href="#ae"/><use data-c="35" xlink:href="#aB" transform="translate(500)"/><use data-c="36" xlink:href="#aC" transform="translate(1000)"/></g><g data-mml-node="TeXAtom" data-mjx-texclass="ORD"><use data-c="33" xlink:href="#at" data-mml-node="mn" transform="matrix(.707 0 0 -.707 9501.2 1429.2)"/><use data-c="2212" xlink:href="#aH" data-mml-node="mo" transform="matrix(.707 0 0 -.707 9854.7 1429.2)"/><use data-c="1D452" xlink:href="#ah" data-mml-node="mi" transform="matrix(.707 0 0 -.707 10404.746 1429.2)"/><use data-c="1D465" xlink:href="#ai" data-mml-node="mi" transform="matrix(.707 0 0 -.707 10734.208 1429.2)"/><use data-c="1D45D" xlink:href="#aj" data-mml-node="mi" transform="matrix(.707 0 0 -.707 11138.612 1429.2)"/><use data-c="1D45C" xlink:href="#ak" data-mml-node="mi" transform="matrix(.707 0 0 -.707 11494.233 1429.2)"/><use data-c="1D45B" xlink:href="#al" data-mml-node="mi" transform="matrix(.707 0 0 -.707 11837.128 1429.2)"/><use data-c="1D452" xlink:href="#ah" data-mml-node="mi" transform="matrix(.707 0 0 -.707 12261.328 1429.2)"/><use data-c="1D45B" xlink:href="#al" data-mml-node="mi" transform="matrix(.707 0 0 -.707 12590.79 1429.2)"/><use data-c="1D461" xlink:href="#am" data-mml-node="mi" transform="matrix(.707 0 0 -.707 13014.99 1429.2)"/></g></g><use data-c="230B" xlink:href="#aI" data-mml-node="mo" transform="matrix(1 0 0 -1 13320.8 1842.7)"/></g></g></g><g data-mml-node="mtr"><g data-mml-node="mtd"><g data-mml-node="mtext" transform="matrix(1 0 0 -1 200 4541.7)"><use data-c="1D403" xlink:href="#aJ"/><use data-c="1D41E" xlink:href="#P" transform="translate(882)"/><use data-c="1D41C" xlink:href="#M" transform="translate(1409)"/><use data-c="1D428" xlink:href="#N" transform="translate(1920)"/><use data-c="1D41D" xlink:href="#O" transform="translate(2495)"/><use data-c="1D41E" xlink:href="#P" transform="translate(3134)"/><use data-c="3A" xlink:href="#Q" transform="translate(3661)"/></g></g></g><g data-mml-node="mtr"><g data-mml-node="mtd"><use data-c="1D447" xlink:href="#T" data-mml-node="mi" transform="matrix(1 0 0 -1 3476 5974.9)"/></g><g data-mml-node="mtd"><use data-c="3D" xlink:href="#V" data-mml-node="mo" transform="matrix(1 0 0 -1 4457.8 5974.9)"/></g><g data-mml-node="mtd"><use data-c="28" xlink:href="#S" data-mml-node="mo" transform="matrix(1 0 0 -1 5513.8 5974.9)"/><use data-c="2212" xlink:href="#aH" data-mml-node="mo" transform="matrix(1 0 0 -1 5902.8 5974.9)"/><use data-c="31" xlink:href="#aF" data-mml-node="mn" transform="matrix(1 0 0 -1 6680.8 5974.9)"/><g data-mml-node="msup"><use data-c="29" xlink:href="#U" data-mml-node="mo" transform="matrix(1 0 0 -1 7180.8 5974.9)"/><g data-mml-node="TeXAtom" data-mjx-texclass="ORD"><use data-c="1D460" xlink:href="#ar" data-mml-node="mi" transform="matrix(.707 0 0 -.707 7602.8 5561.9)"/><use data-c="1D456" xlink:href="#aq" data-mml-node="mi" transform="matrix(.707 0 0 -.707 7934.383 5561.9)"/><use data-c="1D454" xlink:href="#aA" data-mml-node="mi" transform="matrix(.707 0 0 -.707 8178.298 5561.9)"/><use data-c="1D45B" xlink:href="#al" data-mml-node="mi" transform="matrix(.707 0 0 -.707 8515.537 5561.9)"/></g></g><use data-c="22C5" xlink:href="#ag" data-mml-node="mo" transform="matrix(1 0 0 -1 9212.2 5974.9)"/><g data-mml-node="mrow"><use data-c="230A" xlink:href="#aG" data-mml-node="mo" transform="matrix(1 0 0 -1 9712.4 5975.4)"/><use data-c="1D45A" xlink:href="#ao" data-mml-node="mi" transform="matrix(1 0 0 -1 10184.4 5974.9)"/><use data-c="1D44E" xlink:href="#ap" data-mml-node="mi" transform="matrix(1 0 0 -1 11062.4 5974.9)"/><use data-c="1D45B" xlink:href="#al" data-mml-node="mi" transform="matrix(1 0 0 -1 11591.4 5974.9)"/><use data-c="1D461" xlink:href="#am" data-mml-node="mi" transform="matrix(1 0 0 -1 12191.4 5974.9)"/><use data-c="1D456" xlink:href="#aq" data-mml-node="mi" transform="matrix(1 0 0 -1 12552.4 5974.9)"/><use data-c="1D460" xlink:href="#ar" data-mml-node="mi" transform="matrix(1 0 0 -1 12897.4 5974.9)"/><use data-c="1D460" xlink:href="#ar" data-mml-node="mi" transform="matrix(1 0 0 -1 13366.4 5974.9)"/><use data-c="1D44E" xlink:href="#ap" data-mml-node="mi" transform="matrix(1 0 0 -1 13835.4 5974.9)"/><use data-c="22C5" xlink:href="#ag" data-mml-node="mo" transform="matrix(1 0 0 -1 14586.6 5974.9)"/><g data-mml-node="msup"><g data-mml-node="mn" transform="matrix(1 0 0 -1 15086.8 5974.9)"><use data-c="32" xlink:href="#ae"/><use data-c="35" xlink:href="#aB" transform="translate(500)"/><use data-c="36" xlink:href="#aC" transform="translate(1000)"/></g><g data-mml-node="TeXAtom" data-mjx-texclass="ORD"><use data-c="1D452" xlink:href="#ah" data-mml-node="mi" transform="matrix(.707 0 0 -.707 16619.8 5561.9)"/><use data-c="1D465" xlink:href="#ai" data-mml-node="mi" transform="matrix(.707 0 0 -.707 16949.262 5561.9)"/><use data-c="1D45D" xlink:href="#aj" data-mml-node="mi" transform="matrix(.707 0 0 -.707 17353.666 5561.9)"/><use data-c="1D45C" xlink:href="#ak" data-mml-node="mi" transform="matrix(.707 0 0 -.707 17709.287 5561.9)"/><use data-c="1D45B" xlink:href="#al" data-mml-node="mi" transform="matrix(.707 0 0 -.707 18052.182 5561.9)"/><use data-c="1D452" xlink:href="#ah" data-mml-node="mi" transform="matrix(.707 0 0 -.707 18476.382 5561.9)"/><use data-c="1D45B" xlink:href="#al" data-mml-node="mi" transform="matrix(.707 0 0 -.707 18805.844 5561.9)"/><use data-c="1D461" xlink:href="#am" data-mml-node="mi" transform="matrix(.707 0 0 -.707 19230.044 5561.9)"/><use data-c="2212" xlink:href="#aH" data-mml-node="mo" transform="matrix(.707 0 0 -.707 19485.271 5561.9)"/><use data-c="33" xlink:href="#at" data-mml-node="mn" transform="matrix(.707 0 0 -.707 20035.317 5561.9)"/></g></g><use data-c="230B" xlink:href="#aI" data-mml-node="mo" transform="matrix(1 0 0 -1 20439.4 5975.4)"/></g></g></g></g></g></svg></g><path fill="none" d="M1870.762 786.0994v21.7656" clip-path="url(#a)" transform="translate(-1670 -710)" stroke-miterlimit="1.45" stroke-width="3" stroke-linecap="butt"/></g></svg>