<?xml version="1.0" encoding="UTF-8" standalone="no" ?>
<svg xmlns="http://www.w3.org/2000/svg" width="247.615" height="57.809" viewBox="0 -1342 8686.3 2028" xmlns:xlink="http://www.w3.org/1999/xlink">
  <defs>
    <path id="a" d="M234 637h-8q-25 0-30 1t-5 11q0 27 11 33 2 1 97 1h88q11 0 14-6 211-496 215-509l54 213q53 211 53 225 0 27-64 31-24 0-24 11 0 2 2 12 4 16 6 19t10 4q3 0 31-1t83-2q50 0 76 1t30 1q15 0 15-10 0-22-8-30-2-5-22-5-71-4-89-40L620 7q-2-7-21-7-14 0-17 2-3 3-129 303L326 604l-65-260Q196 88 196 79q5-33 72-33h10q6-5 6-8t-2-19q-4-13-10-19h-13q-31 2-108 2H63Q49 2 46 1q-15 0-15 9 0 4 3 16t5 14q2 6 23 6 68 3 88 39 4 6 71 277l68 272q-2 1-55 3z"/>
    <path id="b" d="M630 29q0-20-21-20-5 0-22 16t-94 93L389 222 284 117Q178 13 175 11q-4-2-7-2-8 0-14 6t-7 14q0 7 14 22t94 95l104 104-104 104q-81 81-94 95t-14 22q0 9 6 14t15 5q5 0 7-1 3-2 109-106l105-105 104 104q77 77 94 93t22 16q21 0 21-20 0-7-10-18t-98-98L418 250l104-105q84-84 96-97t12-19z"/>
    <path id="c" d="M42 46h14q39 0 47 14v64q0 19 1 43t0 50 0 55 0 57v213q0 26-1 44t0 17q-3 19-14 25t-45 9H26v23q0 23 2 23l10 1q10 1 29 2t37 2 37 2 30 3 11 1h3V379q0-317 1-319 4-8 12-11 21-3 49-3h16V0h-8l-23 1q-23 1-49 1t-38 1-38 0-50-2L34 0h-8v46h16z"/>
    <path id="d" d="M28 214q0 95 65 164t157 70q90 0 155-68t66-165q0-95-64-160T250-10q-97 0-159 67T28 214zM250 30q122 0 122 163v57q0 22-1 38t-7 38-16 36-31 28-49 20q-5 1-16 1-30 0-57-12-43-22-56-61t-13-92v-20q0-96 19-135 32-61 105-61z"/>
    <path id="e" d="M329 409q44 44 100 44 30 0 43-19t13-38q0-14-9-25t-27-11q-33 0-37 30-2 14 3 21 0 1 1 3v1q-28-3-53-22-8-5-8-7 0-1 4-5t9-12 11-18 9-26 4-33q0-62-49-105t-121-44q-50 0-99 28-11-18-11-38 0-35 26-52 9-6 17-6t72-2q84-1 108-6 61-9 96-41 39-39 39-98 0-67-78-103-60-31-142-31-83 0-143 31-78 35-78 100 0 36 21 60t42 33l11 6q-36 31-36 84 0 47 29 85-44 44-44 99 0 63 50 106t121 44q51 0 95-26l11-7zm-30-66q-5 28-26 44t-52 17q-29 0-50-16t-26-45q-3-17-3-51 0-44 7-65t30-35q17-10 43-10 22 0 38 7t23 18 11 20 5 15q3 16 3 50t-3 51zM403-75q0 25-14 41t-41 23-49 9-54 2h-27q-67 0-80-6-20-9-31-28T95-74q0-10 6-23t21-30 48-28 80-12q69 0 111 28t42 64z"/>
    <path id="f" d="M109 429q-27 0-43 18t-16 44q0 71 53 123t132 52q91 0 152-56t62-145q0-43-20-82t-48-68-80-74q-36-31-100-92l-59-56 76-1q157 0 167 5 7 2 24 89v3h40v-3q-1-3-13-91T421 3V0H50v31q0 7 6 15t30 35q29 32 50 56 9 10 34 37t34 37 29 33 28 34 23 30 21 32 15 29 13 32 7 30 3 33q0 63-34 109t-97 46q-33 0-58-17t-35-33-10-19q0-1 5-1 18 0 37-14t19-46q0-25-16-42t-45-18z"/>
    <path id="h" d="M39 168q0 57 19 104t49 78 67 52 70 31 63 9h3q45 0 78-22t33-65q0-90-111-118-49-13-134-14-37 0-38-2 0-2-6-35t-7-58q0-47 21-74t63-28 93 19 92 66q9 10 12 10 4 0 13-9t10-14-9-16-30-27-46-31-63-25-76-10q-79 0-122 53T39 168zm334 185q-6 52-68 52-33 0-61-14t-45-34-29-41-16-36-5-19q0-1 20-1 113 0 158 24t46 69z"/>
    <path id="i" d="M213 578l-13-5q-14-5-40-10t-58-7H83v46h19q47 2 87 15t56 24 28 22q2 3 12 3 9 0 17-6V361l1-300q7-7 12-9t24-4 62-2h26V0h-11q-21 3-159 3-136 0-157-3H88v46h64q16 0 25 1t16 3 8 2 6 5 6 4v517z"/>
    <path id="j" d="M287 628q0 7-57 9-24 0-31 1t-7 10q0 1 2 11 6 20 9 22t194 2q190-1 203-3 64-11 107-49t44-101q0-77-66-141-69-68-178-86-7-1-105-2h-95l-30-119Q247 66 247 59q0-4 1-5t7-4 17-2 33-2h31q6-9 6-11 0-16-7-30-5-5-16-5-3 0-37 1T182 2H87Q54 2 51 1 33 1 33 11q0 2 3 14 4 16 8 18t23 3q27 0 60 3 14 3 19 12 3 4 72 278t69 289zm358-74q0 13-2 21t-9 22-25 22-49 16q-7 1-80 2h-35q-18 0-29-1t-12 0q-13-1-18-9-2-6-19-77t-35-138-18-68q0-2 81-2h35q112 0 160 50 27 27 41 79t14 83z"/>
  </defs>
  <g data-mml-node="math" stroke="currentColor" fill="currentColor" stroke-width="0">
    <use xlink:href="#a" data-mml-node="mi" transform="scale(1 -1)"/>
    <use xlink:href="#b" data-mml-node="mo" transform="matrix(1 0 0 -1 1110.2 0)"/>
    <g data-mml-node="msub">
      <g data-mml-node="mi" transform="matrix(1 0 0 -1 2110.4 0)">
        <use xlink:href="#c"/>
        <use xlink:href="#d" transform="translate(278)"/>
        <use xlink:href="#e" transform="translate(778)"/>
      </g>
      <g data-mml-node="TeXAtom">
        <use xlink:href="#f" data-mml-node="mn" transform="matrix(.707 0 0 -.707 3388.4 241.4)"/>
      </g>
    </g>
    <use xlink:href="#g" data-mml-node="mo" transform="matrix(1 0 0 -1 3792 0)"/>
    <use xlink:href="#h" data-mml-node="mi" transform="matrix(1 0 0 -1 3958.7 0)"/>
    <use xlink:href="#b" data-mml-node="mo" transform="matrix(1 0 0 -1 4646.9 0)"/>
    <g data-mml-node="msub">
      <g data-mml-node="mi" transform="matrix(1 0 0 -1 5647.1 0)">
        <use xlink:href="#c"/>
        <use xlink:href="#d" transform="translate(278)"/>
        <use xlink:href="#e" transform="translate(778)"/>
      </g>
      <g data-mml-node="TeXAtom">
        <use xlink:href="#f" data-mml-node="mn" transform="matrix(.707 0 0 -.707 6925.1 241.4)"/>
      </g>
    </g>
    <use xlink:href="#g" data-mml-node="mo" transform="matrix(1 0 0 -1 7328.7 0)"/>
    <g data-mml-node="mfrac">
      <use xlink:href="#i" data-mml-node="mn" transform="matrix(1 0 0 -1 7840.8 -676)"/>
      <use xlink:href="#j" data-mml-node="mi" transform="matrix(1 0 0 -1 7715.3 686)"/>
      <path stroke="none" d="M7615.3-220h951v-60h-951z"/>
    </g>
  </g>
</svg>
