<?xml version="1.0" encoding="UTF-8" standalone="no" ?>
<svg xmlns="http://www.w3.org/2000/svg" width="246.519" height="85.491" viewBox="0 -1749.5 8647.6 2999" xmlns:xlink="http://www.w3.org/1999/xlink">
  <defs>
    <path id="a" d="M234 637h-8q-25 0-30 1t-5 11q0 27 11 33 2 1 97 1h88q11 0 14-6 211-496 215-509l54 213q53 211 53 225 0 27-64 31-24 0-24 11 0 2 2 12 4 16 6 19t10 4q3 0 31-1t83-2q50 0 76 1t30 1q15 0 15-10 0-22-8-30-2-5-22-5-71-4-89-40L620 7q-2-7-21-7-14 0-17 2-3 3-129 303L326 604l-65-260Q196 88 196 79q5-33 72-33h10q6-5 6-8t-2-19q-4-13-10-19h-13q-31 2-108 2H63Q49 2 46 1q-15 0-15 9 0 4 3 16t5 14q2 6 23 6 68 3 88 39 4 6 71 277l68 272q-2 1-55 3z"/>
    <path id="b" d="M758-1237v-3l-6-9h-16q-18 0-19 1-6 3-45 49Q237-706 237 251t435 1449q25 30 44 49 2 1 19 1h17q6-6 6-9 0-4-18-28t-51-69-70-107-79-157-77-204Q348 802 348 251q0-493 93-850t303-619q14-19 14-22z"/>
    <path id="c" d="M231 637q-27 0-32 1t-5 11q0 27 11 33 1 1 130 1 259 0 273-2 63-10 105-45t43-92q0-64-58-115t-133-69l-10-3q64-9 105-46t42-92q0-73-72-141T453 1q-7-1-211-1Q42 0 39 2q-4 3-4 8 0 7 2 14 5 19 10 21 4 1 15 1h6q27 0 60 3 14 3 19 12 3 4 72 278t69 289q0 7-57 9zm418-93q0 30-15 56t-49 34q-7 2-92 3h-42q-22 0-35-1h-13q-15-1-19-10-2-4-32-120 0-3-1-6l-31-126h81q81 0 93 2 60 10 107 58t48 110zm-54-315q0 44-23 73t-60 34q-6 1-83 1-118 0-119-1 0-2-17-73t-35-141l-18-70q0-4 12-4t81-2q89 0 96 1 62 7 114 58t52 124z"/>
    <path id="d" d="M56 237v13l14 20h299v150l1 150q10 13 19 13 13 0 20-15V270h298q15-8 15-20t-15-20H409V-68q-8-14-18-14h-4q-12 0-18 14v298H70q-14 7-14 20z"/>
    <path id="e" d="M213 578l-13-5q-14-5-40-10t-58-7H83v46h19q47 2 87 15t56 24 28 22q2 3 12 3 9 0 17-6V361l1-300q7-7 12-9t24-4 62-2h26V0h-11q-21 3-159 3-136 0-157-3H88v46h64q16 0 25 1t16 3 8 2 6 5 6 4v517z"/>
    <path id="f" d="M84 237v13l14 20h581q15-8 15-20t-15-20H98q-14 7-14 20z"/>
    <path id="g" d="M39 168q0 57 19 104t49 78 67 52 70 31 63 9h3q45 0 78-22t33-65q0-90-111-118-49-13-134-14-37 0-38-2 0-2-6-35t-7-58q0-47 21-74t63-28 93 19 92 66q9 10 12 10 4 0 13-9t10-14-9-16-30-27-46-31-63-25-76-10q-79 0-122 53T39 168zm334 185q-6 52-68 52-33 0-61-14t-45-34-29-41-16-36-5-19q0-1 20-1 113 0 158 24t46 69z"/>
    <path id="h" d="M109 429q-27 0-43 18t-16 44q0 71 53 123t132 52q91 0 152-56t62-145q0-43-20-82t-48-68-80-74q-36-31-100-92l-59-56 76-1q157 0 167 5 7 2 24 89v3h40v-3q-1-3-13-91T421 3V0H50v31q0 7 6 15t30 35q29 32 50 56 9 10 34 37t34 37 29 33 28 34 23 30 21 32 15 29 13 32 7 30 3 33q0 63-34 109t-97 46q-33 0-58-17t-35-33-10-19q0-1 5-1 18 0 37-14t19-46q0-25-16-42t-45-18z"/>
    <path id="i" d="M289 629q0 6-57 8-24 0-31 1t-7 10q0 1 2 11 1 3 2 7t1 5 2 5 2 3 4 2 5 2 8 0 12 1h30q24 0 45-1h91q12 0 16-5 1-4 37-282l36-279 23 37q24 36 64 100t88 140q175 279 177 281l3 3q2 2 4 3l6 2h136q23 0 29 1 34 0 34-11 0-5-3-17t-3-13q-4-6-37-6-40-1-51-3t-18-11q-3-5-72-283T797 59q0-4 1-5t7-4 17-2 33-2h31q6-9 6-11 0-16-7-30-5-5-16-5-5 0-41 1t-92 1h-92q-31 0-35-1-17 0-17 10 0 2 2 14 4 16 8 18t23 3q27 0 60 3 14 3 19 12 2 4 38 146t71 283 35 141L654 322Q458 10 453 5l-4-2q-5-3-16-3-15 0-18 7-2 4-41 310l-39 307-68-270Q200 88 200 79q6-33 72-33h10q6-5 7-9t-3-18q-4-16-8-18-4-1-11-1h-12q-10 0-34 1t-64 1q-30 0-62-1T58 0Q43 0 39 2t-4 9q0 2 3 14t5 15q2 6 22 6 70 0 89 40 4 6 69 268t66 275z"/>
    <path id="j" d="M33 1741q0 9 18 9h14q8 0 16-7t38-43q435-493 435-1449 0-958-435-1450-43-51-53-51h-4q-3 0-6 1h-3q-2 0-4-1-16 0-16 11 0 3 17 25t48 64 65 98 75 142 73 183q132 392 132 978 0 151-7 281t-31 299-66 311-115 296-174 278q-17 21-17 25z"/>
  </defs>
  <g data-mml-node="math" stroke="currentColor" fill="currentColor" stroke-width="0">
    <use xlink:href="#a" data-mml-node="mi" transform="scale(1 -1)"/>
    <g data-mml-node="mrow">
      <use xlink:href="#b" data-mml-node="mo" transform="matrix(1 0 0 -1 888 0)"/>
      <use xlink:href="#c" data-mml-node="mi" transform="matrix(1 0 0 -1 1680 0)"/>
      <use xlink:href="#d" data-mml-node="mo" transform="matrix(1 0 0 -1 2661.2 0)"/>
      <g data-mml-node="mfrac">
        <use xlink:href="#e" data-mml-node="mn" transform="matrix(1 0 0 -1 5508.5 -676)"/>
        <g data-mml-node="mrow">
          <use xlink:href="#e" data-mml-node="mn" transform="matrix(1 0 0 -1 3881.4 1124.6)"/>
          <use xlink:href="#f" data-mml-node="mo" transform="matrix(1 0 0 -1 4603.6 1124.6)"/>
          <g data-mml-node="msup">
            <use xlink:href="#g" data-mml-node="mi" transform="matrix(1 0 0 -1 5603.8 1124.6)"/>
            <g data-mml-node="TeXAtom">
              <use xlink:href="#f" data-mml-node="mo" transform="matrix(.707 0 0 -.707 6069.8 761.6)"/>
              <g data-mml-node="mfrac">
                <g data-mml-node="msup">
                  <use xlink:href="#h" data-mml-node="mn" transform="matrix(.49985 0 0 -.49985 6775.386 483.042)"/>
                  <use xlink:href="#c" data-mml-node="mi" transform="matrix(.49985 0 0 -.49985 7025.31 301.597)"/>
                </g>
                <use xlink:href="#i" data-mml-node="mi" transform="matrix(.49985 0 0 -.49985 6839.864 1005.515)"/>
                <path stroke="none" d="M6704.686 606.06h795.8v-42.42h-795.8z"/>
              </g>
            </g>
          </g>
        </g>
        <path stroke="none" d="M3781.4-220h3954.2v-60H3781.4z"/>
      </g>
      <use xlink:href="#j" data-mml-node="mo" transform="matrix(1 0 0 -1 7855.6 0)"/>
    </g>
  </g>
</svg>
