<?xml version="1.0" encoding="UTF-8" standalone="no" ?>
<svg xmlns="http://www.w3.org/2000/svg" width="554.06" height="114.673" viewBox="0 -2261.2 19436.2 4022.5" xmlns:xlink="http://www.w3.org/1999/xlink">
  <defs>
    <path id="a" d="M213 578l-13-5q-14-5-40-10t-58-7H83v46h19q47 2 87 15t56 24 28 22q2 3 12 3 9 0 17-6V361l1-300q7-7 12-9t24-4 62-2h26V0h-11q-21 3-159 3-136 0-157-3H88v46h64q16 0 25 1t16 3 8 2 6 5 6 4v517z"/>
    <path id="b" d="M56 237v13l14 20h299v150l1 150q10 13 19 13 13 0 20-15V270h298q15-8 15-20t-15-20H409V-68q-8-14-18-14h-4q-12 0-18 14v298H70q-14 7-14 20z"/>
    <path id="c" d="M109 429q-27 0-43 18t-16 44q0 71 53 123t132 52q91 0 152-56t62-145q0-43-20-82t-48-68-80-74q-36-31-100-92l-59-56 76-1q157 0 167 5 7 2 24 89v3h40v-3q-1-3-13-91T421 3V0H50v31q0 7 6 15t30 35q29 32 50 56 9 10 34 37t34 37 29 33 28 34 23 30 21 32 15 29 13 32 7 30 3 33q0 63-34 109t-97 46q-33 0-58-17t-35-33-10-19q0-1 5-1 18 0 37-14t19-46q0-25-16-42t-45-18z"/>
    <path id="d" d="M231 637q-27 0-32 1t-5 11q0 27 11 33 1 1 130 1 259 0 273-2 63-10 105-45t43-92q0-64-58-115t-133-69l-10-3q64-9 105-46t42-92q0-73-72-141T453 1q-7-1-211-1Q42 0 39 2q-4 3-4 8 0 7 2 14 5 19 10 21 4 1 15 1h6q27 0 60 3 14 3 19 12 3 4 72 278t69 289q0 7-57 9zm418-93q0 30-15 56t-49 34q-7 2-92 3h-42q-22 0-35-1h-13q-15-1-19-10-2-4-32-120 0-3-1-6l-31-126h81q81 0 93 2 60 10 107 58t48 110zm-54-315q0 44-23 73t-60 34q-6 1-83 1-118 0-119-1 0-2-17-73t-35-141l-18-70q0-4 12-4t81-2q89 0 96 1 62 7 114 58t52 124z"/>
    <path id="e" d="M289 629q0 6-57 8-24 0-31 1t-7 10q0 1 2 11 1 3 2 7t1 5 2 5 2 3 4 2 5 2 8 0 12 1h30q24 0 45-1h91q12 0 16-5 1-4 37-282l36-279 23 37q24 36 64 100t88 140q175 279 177 281l3 3q2 2 4 3l6 2h136q23 0 29 1 34 0 34-11 0-5-3-17t-3-13q-4-6-37-6-40-1-51-3t-18-11q-3-5-72-283T797 59q0-4 1-5t7-4 17-2 33-2h31q6-9 6-11 0-16-7-30-5-5-16-5-5 0-41 1t-92 1h-92q-31 0-35-1-17 0-17 10 0 2 2 14 4 16 8 18t23 3q27 0 60 3 14 3 19 12 2 4 38 146t71 283 35 141L654 322Q458 10 453 5l-4-2q-5-3-16-3-15 0-18 7-2 4-41 310l-39 307-68-270Q200 88 200 79q6-33 72-33h10q6-5 7-9t-3-18q-4-16-8-18-4-1-11-1h-12q-10 0-34 1t-64 1q-30 0-62-1T58 0Q43 0 39 2t-4 9q0 2 3 14t5 15q2 6 22 6 70 0 89 40 4 6 69 268t66 275z"/>
    <path id="f" d="M42 46h14q39 0 47 14v64q0 19 1 43t0 50 0 55 0 57v213q0 26-1 44t0 17q-3 19-14 25t-45 9H26v23q0 23 2 23l10 1q10 1 29 2t37 2 37 2 30 3 11 1h3V379q0-317 1-319 4-8 12-11 21-3 49-3h16V0h-8l-23 1q-23 1-49 1t-38 1-38 0-50-2L34 0h-8v46h16z"/>
    <path id="g" d="M41 46h14q39 0 47 14v62q0 17 1 39t0 42v66q0 35-1 59v23q-3 19-14 25t-45 9H25v23q0 23 2 23l10 1q10 1 28 2t37 2q17 1 36 2t29 3 11 1h3v-40q0-38 1-38t5 5 12 15 19 18 29 19 38 16q20 5 51 5 114-4 127-113 1-7 1-139v-86q0-38 2-45t11-10q21-3 49-3h16V0h-8l-24 1q-23 1-50 1t-38 1Q319 3 310 0h-8v46h16q61 0 61 16 1 2 1 138-1 135-2 143-6 28-20 42t-24 17-26 2q-45 0-79-34-27-27-34-55t-8-83V108q0-30 1-40t3-13 9-6q21-3 49-3h16V0h-8l-23 1q-24 1-51 1t-38 1Q42 3 33 0h-8v46h16z"/>
    <path id="i" d="M95 178q-6 0-14 8t-9 14 31 30 66 50 38 29q2 2 5 2h1q6 0 14-17t54-117q19-43 31-69l85-185q1 0 104 213t206 429 107 221q6 14 20 14 7 0 12-6t7-12v-6L620 293 385-193q-4-7-19-7-9 0-12 3-2 2-98 212l-96 210-16-11q-15-12-31-24t-18-12z"/>
    <path id="j" d="M56 347q0 13 14 20h637q15-8 15-20 0-11-14-19l-318-1H72q-16 5-16 20zm0-194q0 15 16 20h636q14-10 14-20 0-13-15-20H70q-14 7-14 20z"/>
    <path id="k" d="M370 305h-21l-36 15-16 38q0 23 15 38 5 5 5 6t-10 2q-26 4-49 4-49 0-80-32-47-47-47-157 0-82 31-129 41-61 110-61 41 0 66 26t36 62q2 8 5 10t16 2h14q6-6 6-9 0-4-4-16t-16-33-29-38-48-31-69-13q-86 0-150 64T34 214q0 104 65 169t151 65 120-27 34-64q0-23-17-37z"/>
    <path id="l" d="M28 214q0 95 65 164t157 70q90 0 155-68t66-165q0-95-64-160T250-10q-97 0-159 67T28 214zM250 30q122 0 122 163v57q0 22-1 38t-7 38-16 36-31 28-49 20q-5 1-16 1-30 0-57-12-43-22-56-61t-13-92v-20q0-96 19-135 32-61 105-61z"/>
    <path id="m" d="M295 316q0 40-27 69t-78 29q-36 0-62-13-30-19-30-52-1-5 0-13t16-24 43-25q18-5 44-9t44-9 32-13q17-8 33-20t32-41 17-62q0-62-38-102T198-10h-8q-52 0-96 36l-8-7-9-9Q71 4 65-1L54-11H42q-3 0-9 6v137q0 21 2 25t10 5h9q12 0 16-4t5-12 7-27 19-42q35-51 97-51 97 0 97 78 0 29-18 47-20 24-83 36t-83 23q-36 17-57 46t-21 62q0 39 17 66t43 40 50 18 44 5h11q40 0 70-15l15-8 9 7q10 9 22 17h12q3 0 9-6V310l-6-6h-28q-6 6-6 12z"/>
    <path id="n" d="M41 46h14q39 0 47 14v107q0 24 1 50t0 55 0 57v153q0 34-1 60t0 44 0 17q-3 19-14 25t-45 9H25v23q0 23 2 23l10 1q10 1 29 2t37 2 37 2 30 3 11 1h3V367q60 75 144 75 123 0 135-113 1-7 1-139v-86q0-38 2-45t11-10q21-3 49-3h16V0h-8l-24 1q-23 1-50 1t-38 1Q319 3 310 0h-8v46h16q61 0 61 16 1 2 1 138-1 135-2 143-6 28-20 42t-24 17-26 2q-45 0-79-34-27-27-34-55t-8-83V108q0-30 1-40t3-13 9-6q21-3 49-3h16V0h-8l-23 1q-24 1-51 1t-38 1Q42 3 33 0h-8v46h16z"/>
    <path id="o" d="M1218 514q0 11 16 11h13q2 0 4-1t2-1 2-3 2-3 3-5q37-74 98-131t111-81 96-37q17-5 17-13t-9-11-37-11-58-24q-144-70-218-216-4-9-7-10t-15-2q-20 0-20 7 0 4 5 17 35 69 86 123l10 10H70q-14 7-14 20 0 15 16 20h1291l10 8q39 30 117 69-1 1-18 9t-45 24-54 36l-10 8H710l-3 1-317-1H72q-16 5-16 20 0 13 14 20h1249l-10 10q-33 35-62 81t-29 56z"/>
    <path id="p" d="M55 319q0 41 17 74t42 51 49 28 42 10h8q6 0 10 1 39 0 73-15t97-55l50-32q59-35 110-35 56 0 96 29t45 79q0 11 4 20t10 9q14 0 14-31 0-66-47-114t-120-49q-41 0-87 21t-80 47-80 47-84 22q-60 0-99-33t-42-75q-2-29-14-29-14 0-14 30zm0-234q0 41 17 74t42 51 49 28 42 10h8q6 0 10 1 39 0 73-15t97-55l50-32q59-35 110-35 56 0 96 29t45 79q0 29 14 29t14-32q0-64-47-113T555 55q-41 0-87 21t-80 47-80 47-84 22q-60 0-99-33T83 84q-3-29-14-29-14 0-14 30z"/>
    <path id="q" d="M96 585q56 81 153 81 48 0 96-26t78-92q37-83 37-228 0-155-43-237-20-42-55-67t-61-31-51-7q-26 0-52 6t-61 32-55 67q-43 82-43 237 0 174 57 265zm225 12q-30 32-71 32-42 0-72-32-25-26-33-72t-8-192q0-158 8-208t36-79q28-30 69-30 40 0 68 30 29 30 36 84t8 203q0 145-8 191t-33 73z"/>
    <path id="r" d="M78 60q0 24 17 42t43 18q24 0 42-16t19-43q0-25-17-43T139 0 96 17 78 60z"/>
    <path id="s" d="M42 313q0 163 81 258t180 95q69 0 99-36t30-80q0-25-14-40t-39-15q-23 0-38 14t-15 39q0 44 47 53-22 22-62 25-71 0-117-60-47-66-47-202l1-4q5 6 8 13 41 60 107 60h4q46 0 81-19 24-14 48-40t39-57q21-49 21-107v-18q0-23-5-43-11-59-64-115T253-22q-28 0-54 8t-56 30-51 59-36 97-14 141zm215 84q-30 0-52-17t-34-45-17-57-6-62q0-83 12-119t38-58q24-18 53-18 51 0 78 38 13 18 18 45t5 105q0 80-5 107t-18 45q-27 36-72 36z"/>
    <path id="t" d="M55 458q1 2 17 109l16 107q0 2 20 2h20v-4q0-10 15-17t52-9 169-2h121v-39l-68-93-30-40q-21-28-27-37t-21-32-20-36-14-37-13-46-8-54-6-68-3-82V52q0-14-1-24v-9q-4-17-19-29t-34-12q-11 0-21 3T179 0t-11 40q0 158 97 328 20 32 84 121l46 63h-93q-174 0-183-6-6-3-11-24t-10-43l-3-21v-3H55v3z"/>
    <path id="u" d="M352 287q-48-76-120-76-78 0-128 59T44 396q-2 16-2 40v8q0 93 69 162 60 60 132 60h6q4 0 8-1h4q12 0 25-2t37-12 47-32 43-59q43-88 43-226 0-140-60-237-35-56-84-87T208-22q-61 0-100 29T68 93t53 56q22 0 37-14t15-39q0-18-9-31t-16-16-13-5l-4-1q0-2 7-6t26-10 42-5h6q60 0 101 64 39 56 39 194v7zm-108-39q48 0 77 49t30 133q0 78-8 112-2 10-6 20t-14 26-30 27-47 10q-38 0-65-27-21-22-27-52t-7-105q0-83 5-112t20-47q25-34 72-34z"/>
    <path id="v" d="M462 0q-18 3-129 3-116 0-134-3h-9v46h58q7 0 17 2t14 5 7 8q1 2 1 54v50H28v46l151 231q153 232 155 233 2 2 21 2h18l6-6V211h92v-46h-92v-51-48q0-7 6-12 8-7 57-8h29V0h-9zM293 211v334L74 212l109-1h110z"/>
    <path id="w" d="M117 59q0-33 25-33 37 0 63 105 6 20 10 21 2 1 10 1h16q3 0 5-2t2-7q-1-6-3-16t-11-38-20-47-31-37-46-17q-36 0-67 22T38 85q0 12 1 17l65 258q63 255 63 263 0 3-1 5t-4 4-5 2-8 1-8 1-9 1-10 0h-13q-3 0-8 1t-6 3-1 6q0 2 2 14 5 19 11 21t72 6q15 1 34 2t30 3 11 1q12 0 12-8 0-11-73-300T118 83v-8q0-6-1-10v-6z"/>
    <path id="x" d="M201-11q-75 0-121 49T34 156q0 65 30 123t82 101q76 61 155 61 32 0 40-1 13-3 26-7t35-16 36-30 26-49 12-70q0-107-86-193T201-11zm-80 131q0-50 26-72t59-22q44 0 83 32t62 84q9 21 23 74t14 92q0 44-18 67-24 30-64 30-63 0-111-58-37-44-55-117t-19-110z"/>
    <path id="y" d="M311 43q-15-13-44-28T206 0q-63 0-101 45T66 160q0 105 77 193t171 89q47 0 87-48l3 4q2 3 5 6t9 8 13 7 16 3q14 0 23-9t10-19q0-15-57-242T363-80q-18-54-77-89t-135-36q-141 0-141 68 0 26 18 46t46 20q15 0 28-9t14-31q0-10-2-19t-7-14-8-10-7-8l-2-2h1q10-3 60-3 38 0 60 12 23 11 43 33t28 47q6 19 16 62 13 48 13 56zm73 285l-4 11q-3 11-5 15t-6 14-10 14-13 11-18 9-22 3q-44 0-85-53-30-39-50-119t-20-116q0-79 62-79 56 0 110 70l8 10 53 210z"/>
    <path id="z" d="M84 237v13l14 20h581q15-8 15-20t-15-20H98q-14 7-14 20z"/>
    <path id="A" d="M164 157q0-24-16-40t-39-16h-7q46-79 122-79 70 0 102 60 19 33 19 128 0 103-27 139-26 33-58 33h-6q-78 0-118-68-4-7-7-8t-15-2q-17 0-19 6-2 4-2 175v129q0 50 5 50 2 2 4 2 1 0 21-8t55-16 75-8q71 0 136 28 8 4 13 4 8 0 8-18v-13q-82-97-205-97-31 0-56 6l-10 2V374q19 14 30 22t36 16 51 8q81 0 137-65t56-154q0-92-64-157T229-22q-81 0-130 54T50 154q0 24 11 38t23 18 23 4q25 0 41-17t16-40z"/>
    <path id="B" d="M70 417v77l54 124 124 48q71 0 126-42t55-109q0-30-11-56t-26-42-31-28-26-18-11-8l14-9 28-20q14-10 16-11 75-59 75-149 0-79-58-137T249-22q-90 0-148 51T43 155q0 108 129 180l-18 13q-21 13-27 20-57 49-57 126zm216-31l6 4 9 6q3 2 10 7t12 10 11 12 11 13 10 16 9 17 5 20 2 22q0 43-29 73t-67 38q-7 1-33 1-41 0-77-26t-37-65q0-23 13-42t26-29 50-32q7-5 11-7l58-38zM250 21q58 0 100 34t42 82q0 17-5 32t-12 25-22 22-23 18-29 19-27 17q-14 9-30 19t-26 17l-8 5q-6 0-29-17t-48-55-26-82q0-59 43-97t100-39z"/>
    <path id="C" d="M127 463q-27 0-42 17t-16 44q0 55 48 98t116 43q35 0 44-1 74-12 113-53t40-89q0-52-34-101t-94-71l-3-2q0-1 9-3t29-9 38-21q82-53 82-140 0-79-62-138T238-22q-80 0-138 43T42 130q0 28 18 45t45 18q28 0 46-18t18-45q0-11-3-20t-7-16-11-12-12-8-10-4-8-3l-4-1q51-45 124-45 55 0 83 53 17 33 17 101v20q0 95-64 127-15 6-61 7l-42 1-3 2q-2 3-2 16 0 18 8 18 28 0 58 5 34 5 62 42t28 112v8q0 57-35 79-22 14-47 14-32 0-59-11t-38-23-11-12h3q3-1 8-2t10-5 12-7 10-11 8-15 3-20q0-22-14-39t-45-18z"/>
    <path id="D" d="M630 29q0-20-21-20-5 0-22 16t-94 93L389 222 284 117Q178 13 175 11q-4-2-7-2-8 0-14 6t-7 14q0 7 14 22t94 95l104 104-104 104q-81 81-94 95t-14 22q0 9 6 14t15 5q5 0 7-1 3-2 109-106l105-105 104 104q77 77 94 93t22 16q21 0 21-20 0-7-10-18t-98-98L418 250l104-105q84-84 96-97t12-19z"/>
  </defs>
  <g data-mml-node="math" stroke="currentColor" fill="currentColor" stroke-width="0">
    <g data-mml-node="mtable">
      <g data-mml-node="mtr">
        <g data-mml-node="mtd">
          <use xlink:href="#a" data-mml-node="mn" transform="matrix(1 0 0 -1 0 -1269.1)"/>
          <use xlink:href="#b" data-mml-node="mo" transform="matrix(1 0 0 -1 722.2 -1269.1)"/>
          <g data-mml-node="mfrac">
            <g data-mml-node="msup">
              <use xlink:href="#c" data-mml-node="mn" transform="matrix(.707 0 0 -.707 1942.4 -1663.1)"/>
              <use xlink:href="#d" data-mml-node="mi" transform="matrix(.49985 0 0 -.49985 2295.9 -1919.741)"/>
            </g>
            <use xlink:href="#e" data-mml-node="mi" transform="matrix(.707 0 0 -.707 1955 -924.1)"/>
            <path stroke="none" d="M1842.4-1489.1h968.4v-60h-968.4z"/>
          </g>
          <g data-mml-node="mi" transform="matrix(1 0 0 -1 2930.9 -1269.1)">
            <use xlink:href="#f"/>
            <use xlink:href="#g" transform="translate(278)"/>
          </g>
          <use xlink:href="#h" data-mml-node="mo" transform="matrix(1 0 0 -1 3764.9 -1269.1)"/>
          <g data-mml-node="TeXAtom">
            <g data-mml-node="msqrt">
              <use xlink:href="#c" data-mml-node="mn" transform="matrix(1 0 0 -1 4764.5 -1269.1)"/>
              <use xlink:href="#i" data-mml-node="mo" transform="matrix(1 0 0 -1 3931.5 -1324.6)"/>
              <path stroke="none" d="M4764.5-2064.6h500v-60h-500z"/>
            </g>
          </g>
          <use xlink:href="#j" data-mml-node="mo" transform="matrix(1 0 0 -1 5542.3 -1269.1)"/>
          <g data-mml-node="mi" transform="matrix(1 0 0 -1 6598.1 -1269.1)">
            <use xlink:href="#k"/>
            <use xlink:href="#l" transform="translate(444)"/>
            <use xlink:href="#m" transform="translate(944)"/>
            <use xlink:href="#n" transform="translate(1338)"/>
          </g>
          <use xlink:href="#h" data-mml-node="mo" transform="matrix(1 0 0 -1 8492.1 -1269.1)"/>
          <g data-mml-node="TeXAtom">
            <g data-mml-node="mfrac">
              <g data-mml-node="msup">
                <use xlink:href="#c" data-mml-node="mn" transform="matrix(.707 0 0 -.707 8878.7 -1663.1)"/>
                <use xlink:href="#d" data-mml-node="mi" transform="matrix(.49985 0 0 -.49985 9232.2 -1919.741)"/>
              </g>
              <use xlink:href="#e" data-mml-node="mi" transform="matrix(.707 0 0 -.707 8891.3 -924.1)"/>
              <path stroke="none" d="M8778.7-1489.1h968.4v-60h-968.4z"/>
            </g>
          </g>
          <use xlink:href="#o" data-mml-node="mo" transform="matrix(1 0 0 -1 10422.7 -1269.1)"/>
          <g data-mml-node="mfrac">
            <g data-mml-node="msup">
              <use xlink:href="#c" data-mml-node="mn" transform="matrix(.707 0 0 -.707 12836.3 -1663.1)"/>
              <use xlink:href="#d" data-mml-node="mi" transform="matrix(.49985 0 0 -.49985 13189.8 -1919.741)"/>
            </g>
            <use xlink:href="#e" data-mml-node="mi" transform="matrix(.707 0 0 -.707 12848.9 -924.1)"/>
            <path stroke="none" d="M12736.3-1489.1h968.4v-60h-968.4z"/>
          </g>
          <use xlink:href="#p" data-mml-node="mo" transform="matrix(1 0 0 -1 14102.4 -1269.1)"/>
          <g data-mml-node="mn" transform="matrix(1 0 0 -1 15158.2 -1269.1)">
            <use xlink:href="#q"/>
            <use xlink:href="#r" transform="translate(500)"/>
            <use xlink:href="#s" transform="translate(778)"/>
            <use xlink:href="#s" transform="translate(1278)"/>
            <use xlink:href="#t" transform="translate(1778)"/>
            <use xlink:href="#u" transform="translate(2278)"/>
            <use xlink:href="#v" transform="translate(2778)"/>
            <use xlink:href="#a" transform="translate(3278)"/>
            <use xlink:href="#s" transform="translate(3778)"/>
          </g>
        </g>
      </g>
      <g data-mml-node="mtr">
        <g data-mml-node="mtd">
          <use xlink:href="#d" data-mml-node="mi" transform="matrix(1 0 0 -1 0 120.6)"/>
          <use xlink:href="#p" data-mml-node="mo" transform="matrix(1 0 0 -1 1036.8 120.6)"/>
          <use xlink:href="#w" data-mml-node="mi" transform="matrix(1 0 0 -1 2092.6 120.6)"/>
          <use xlink:href="#x" data-mml-node="mi" transform="matrix(1 0 0 -1 2390.6 120.6)"/>
          <g data-mml-node="msub">
            <use xlink:href="#y" data-mml-node="mi" transform="matrix(1 0 0 -1 2875.6 120.6)"/>
            <g data-mml-node="TeXAtom">
              <use xlink:href="#c" data-mml-node="mn" transform="matrix(.707 0 0 -.707 3352.6 270.6)"/>
            </g>
          </g>
          <g data-mml-node="TeXAtom">
            <use xlink:href="#e" data-mml-node="mi" transform="matrix(1 0 0 -1 3756.1 120.6)"/>
          </g>
          <use xlink:href="#z" data-mml-node="mo" transform="matrix(1 0 0 -1 5029.3 120.6)"/>
          <g data-mml-node="mn" transform="matrix(1 0 0 -1 6029.6 120.6)">
            <use xlink:href="#q"/>
            <use xlink:href="#r" transform="translate(500)"/>
            <use xlink:href="#A" transform="translate(778)"/>
            <use xlink:href="#B" transform="translate(1278)"/>
            <use xlink:href="#c" transform="translate(1778)"/>
            <use xlink:href="#c" transform="translate(2278)"/>
            <use xlink:href="#q" transform="translate(2778)"/>
            <use xlink:href="#s" transform="translate(3278)"/>
            <use xlink:href="#a" transform="translate(3778)"/>
          </g>
        </g>
      </g>
      <g data-mml-node="mtr">
        <g data-mml-node="mtd">
          <use xlink:href="#e" data-mml-node="mi" transform="matrix(1 0 0 -1 0 1511.2)"/>
          <use xlink:href="#p" data-mml-node="mo" transform="matrix(1 0 0 -1 1328.8 1511.2)"/>
          <g data-mml-node="mn" transform="matrix(1 0 0 -1 2384.6 1511.2)">
            <use xlink:href="#a"/>
            <use xlink:href="#r" transform="translate(500)"/>
            <use xlink:href="#v" transform="translate(778)"/>
            <use xlink:href="#u" transform="translate(1278)"/>
            <use xlink:href="#t" transform="translate(1778)"/>
            <use xlink:href="#a" transform="translate(2278)"/>
            <use xlink:href="#C" transform="translate(2778)"/>
            <use xlink:href="#t" transform="translate(3278)"/>
          </g>
          <use xlink:href="#D" data-mml-node="mo" transform="matrix(1 0 0 -1 6384.8 1511.2)"/>
          <g data-mml-node="msup">
            <use xlink:href="#c" data-mml-node="mn" transform="matrix(1 0 0 -1 7162.8 1511.2)"/>
            <g data-mml-node="TeXAtom">
              <use xlink:href="#d" data-mml-node="mi" transform="matrix(.707 0 0 -.707 7662.8 1148.2)"/>
            </g>
          </g>
        </g>
      </g>
    </g>
  </g>
</svg>
