<?xml version="1.0" encoding="UTF-8" standalone="no" ?><svg xmlns="http://www.w3.org/2000/svg" width="515.61" height="274.05" viewBox="0 -4287.6 15193.3 8075.2" xmlns:xlink="http://www.w3.org/1999/xlink"><defs><path id="a" d="M308 24q59 0 108 52t50 121q0 63-52 87-106 27-136 37t-42 20q-60 42-60 121 0 61 32 111t65 75q29 25 70 40t64 16h18q96 0 139-64 1 0 13 13t26 29 20 22h4q3 0 5 1 13 0 13-7t-28-121-32-118-16-3q-20 0-20 9 0 6 1 10 0 3 1 19t2 26q0 34-9 59t-18 37-25 25q-36 21-82 21-57 0-106-46t-50-106q0-30 15-52t41-31q4-2 70-19t67-18q34-11 66-48t32-100q0-26-8-56-5-22-18-49t-36-59-66-60-94-38q-12-2-34-2-99 0-154 55l-10 11-28-31Q83-14 78-18t-13-4q-13 0-13 8 0 3 58 235 2 6 20 6h13q6-6 6-11 0-2-1-9t-4-21-2-33q2-39 18-66t43-40 52-18 53-5Z"/><path id="b" d="M118-162q2 0 6-2t11-3 12-1q13 0 24 13t16 29q10 27 34 153t46 240 22 115v3h-47q-47 0-50 2-4 3-4 10l7 28q2 5 8 5t47 1q48 0 48 1 0 2 9 50t12 58q37 165 146 165 37-2 61-22t24-53q0-36-21-52t-42-17q-44 0-44 42 0 19 11 33t24 21l9 5q-16 6-30 6-12 0-23-10t-15-28q-7-29-16-78t-16-83-7-36q0-2 55-2 45 0 52-1t11-6q1-4-2-17t-5-16q-2-5-9-5t-54-1h-56l-23-122Q301 15 282-47q-27-85-70-126-37-32-73-32-32 0-58 19t-26 54q0 37 21 54t42 17q44 0 44-42 0-19-11-33t-24-21l-9-5Z"/><path id="c" d="M21 287q0 8 9 31t25 52 44 50 59 22q46 0 69-25t23-59q0-18-34-112t-34-141q0-43 14-60t42-18 53 17 37 34l11 17q2 4 38 152 30 120 36 140t14 29q17 15 36 15 17 0 25-10t8-19L420 84q-1-5-1-16 0-25 7-33t21-9q22 3 35 31t30 88q2 8 20 8 19 0 19-9-1-5-2-14t-9-32-17-43-25-38-36-25q-8-2-24-2-66 0-91 56-2-1-11-10t-18-15-22-15-29-12-34-5q-44 0-78 18-52 31-52 106 0 57 35 149t35 117v14q0 3-4 7t-11 4h-4q-23 0-42-19t-30-41-17-42-8-22q-2-2-16-2H27q-6 6-6 9Z"/><path id="d" d="M117 59q0-33 25-33 37 0 63 105 6 20 10 21 2 1 10 1h16q3 0 5-2t2-7q-1-6-3-16t-11-38-20-47-31-37-46-17q-36 0-67 22T38 85q0 12 1 17l65 258q63 255 63 263 0 3-1 5t-4 4-5 2-8 1-8 1-9 1-10 0h-13q-3 0-8 1t-6 3-1 6q0 2 2 14 5 19 11 21t72 6q15 1 34 2t30 3 11 1q12 0 12-8 0-11-73-300T118 83v-8q0-6-1-10v-6Z"/><path id="e" d="M94 250q0 69 10 131t23 107 37 88 38 67 42 52 33 34 25 21h17q14 0 14-9 0-3-17-21t-41-53-49-86-42-138-17-193 17-192 41-139 49-86 42-53 17-21q0-9-15-9h-16l-28 24q-94 85-137 212T94 250Z"/><path id="f" d="M137 683q1 0 72 5t73 6q12 0 12-9 0-11-36-151-38-148-38-151 0-2 7 5 61 54 130 54 54 0 87-27t34-79q0-51-38-158T402 50q1-14 5-19t15-5q28 0 52 30t39 82q3 11 6 13t16 2q20 0 20-8 0-1-4-15-16-59-51-97-34-43-81-43h-5q-47 0-68 27t-21 57q0 16 36 118t37 153q0 59-44 59h-5q-83 0-144-98l-7-13-34-135Q132 28 127 16q-13-27-44-27-14 0-24 9T48 16q0 14 73 304l74 296q0 13-7 16t-39 5h-21q-6 6-6 8t2 19q5 19 13 19Z"/><path id="g" d="m60 749 4 1h22l28-24q94-85 137-212t43-264q0-68-10-131T261 12t-37-88-38-67-41-51-32-33-23-19l-4-4H63q-3 0-5 3t-3 9q1 1 11 13Q221-64 221 250T66 725q-10 12-11 13 0 8 5 11Z"/><path id="h" d="M56 347q0 13 14 20h637q15-8 15-20 0-11-14-19l-318-1H72q-16 5-16 20Zm0-194q0 15 16 20h636q14-10 14-20 0-13-15-20H70q-14 7-14 20Z"/><path id="i" d="m712 899 6-6v-28q0-11-14-19-77-53-127-136t-67-185q0-1-1-4-4-28-5-172V240q0-242-1-244-1-4-9-5t-50-1q-52 0-54 1-3 1-4 4-2 10-2 235v82q0 50-1 70 0 99 9 153t42 121q76 150 230 236l13 7h35Z"/><path id="j" d="m718-893-6-6h-35l-11 6q-124 68-198 179t-83 238q-1 10-1 194 0 285 1 287l4 4q3 1 55 1 42 0 50-1t9-5q1-2 1-243v-127q0-104 4-147t22-96q16-48 39-89t48-69 44-45 38-31 18-13 1-20v-17Z"/><path id="k" d="M389 1159q2 1 66 1 41 0 43-1 3-1 4-4 2-10 2-231 0-233-1-242-9-133-78-243T243 259l-14-9 14-9q106-66 178-175t82-248q1-9 1-242v-205q0-29-5-30h-1q-2-1-54-1t-54 1q-3 1-4 4-2 10-2 230v143q0 106-7 166T342 10q-17 44-41 82t-46 63-41 41-31 26-12 10q-1 1-1 18t1 18q0 1 20 16t49 47 60 76 54 117 29 155q1 12 1 246 0 227 1 230l4 4Z"/><path id="l" d="M384 150v116q0 38 5 43 2 1 66 1 41 0 43-1 4-1 5-11 1-15 1-148V12q0-20-5-21h-1q-2-1-54-1t-54 1q-4 1-5 11-1 15-1 148Z"/><path id="m" d="M96 585q56 81 153 81 48 0 96-26t78-92q37-83 37-228 0-155-43-237-20-42-55-67t-61-31-51-7q-26 0-52 6t-61 32-55 67q-43 82-43 237 0 174 57 265Zm225 12q-30 32-71 32-42 0-72-32-25-26-33-72t-8-192q0-158 8-208t36-79q28-30 69-30 40 0 68 30 29 30 36 84t8 203q0 145-8 191t-33 73Z"/><path id="n" d="M69 609q0 28 18 44t44 16q23-2 40-17t17-43q0-30-17-45t-42-15q-25 0-42 15t-18 45ZM247 0q-15 3-104 3h-37Q80 3 56 1L34 0h-8v46h16q28 0 49 3 9 4 11 11t2 42v191q0 52-2 66t-14 19q-14 7-47 7H30v23q0 23 2 23l10 1q10 1 28 2t36 2 36 2 29 3 11 1h3V62q5-10 12-12t35-4h23V0h-8Z"/><path id="o" d="M273 0q-18 3-127 3Q43 3 34 0h-8v46h16q28 0 49 3 8 3 12 11 1 2 1 164v161H33v46h71v66l1 67 2 10q19 65 64 94t95 36h9q8 0 14 1 41-3 62-26t21-52q0-23-14-37t-37-14-37 14-14 37q0 20 18 40h-4q-4 1-11 1-28 0-50-21t-34-55q-6-20-7-95v-66h111v-46H185V225q0-162 1-164t3-4 5-3 5-3 7-2 7-1 9-1 9 0 10-1 10 0h31V0h-9Z"/><path id="q" d="M674 636q8 0 14-6t6-15-7-14q-1-1-270-129L151 346l248-118Q687 92 691 87q3-6 3-11 0-18-18-20h-6L382 192Q92 329 90 331q-7 5-7 17 1 11 13 17 8 4 286 135t283 134q4 2 9 2ZM84-118q0 10 15 20h579q16-6 16-20 0-12-15-20H98q-14 7-14 20Z"/><path id="r" d="M78 35v25l16 43 43 18q28 0 50-25t23-88q0-35-9-68t-21-57-26-41-24-27-13-9q-4 0-13 9t-9 13q0 4 11 16t25 30 26 50 16 73V9l-1-1q-2-1-5-2t-6-3-9-2-12-1q-27 0-44 17Z"/><path id="s" d="M287 628q0 7-57 9-24 0-31 1t-7 10q0 1 2 11 6 20 9 22t194 2q190-1 203-3 64-11 107-49t44-101q0-77-66-141-69-68-178-86-7-1-105-2h-95l-30-119Q247 66 247 59q0-4 1-5t7-4 17-2 33-2h31q6-9 6-11 0-16-7-30-5-5-16-5-3 0-37 1T182 2H87Q54 2 51 1 33 1 33 11q0 2 3 14 4 16 8 18t23 3q27 0 60 3 14 3 19 12 3 4 72 278t69 289Zm358-74q0 13-2 21t-9 22-25 22-49 16q-7 1-80 2h-35q-18 0-29-1t-12 0q-13-1-18-9-2-6-19-77t-35-138-18-68q0-2 81-2h35q112 0 160 50 27 27 41 79t14 83Z"/><path id="t" d="m213 578-13-5q-14-5-40-10t-58-7H83v46h19q47 2 87 15t56 24 28 22q2 3 12 3 9 0 17-6V361l1-300q7-7 12-9t24-4 62-2h26V0h-11q-21 3-159 3-136 0-157-3H88v46h64q16 0 25 1t16 3 8 2 6 5 6 4v517Z"/><path id="u" d="M202-349V850h40V-309h207v-40H202Z"/><path id="v" d="M43 1q-17 0-17 9 0 2 3 14 5 19 10 21 3 1 15 1h6q60 0 76 7 1 0 2 1 5 2 11 23t49 196q12 45 18 71 70 280 70 282-2 4-2 5-10 6-71 6h-20q-9 6-4 25 4 15 6 18t14 3h4q72-2 146-2 122 0 128 2h10q7-7 7-11t-3-17-7-16q-3-2-23-2-31 0-64-3-14-3-19-11-7-14-51-191-11-47-22-91-70-276-70-282 0-7 10-9t52-4h32q6-8 6-9t-3-18q-4-13-10-19h-16q-37 2-137 2H65Q47 2 43 1Z"/><path id="w" d="M229-309V850h40V-349H22v40h207Z"/><path id="x" d="M84 520q0 8 4 13t8 6l3 1q7 0 154-69t291-137l143-69q7-5 7-15t-7-15q-2-2-292-139L107-40h-6q-18 2-18 20v3q-1 7 15 16 19 10 150 72 78 37 130 61l248 118-248 118Q90 504 86 509q-2 4-2 11Z"/><path id="y" d="M52 289q7 42 54 97t116 56q35 0 64-18t43-45q42 63 101 63 37 0 64-22t28-59q0-29-14-47t-27-22-23-4q-19 0-31 11t-12 29q0 46 50 63-11 13-40 13-13 0-19-2-38-16-56-66-60-221-60-258 0-28 16-40t35-12q37 0 73 33t49 81q3 10 6 11t16 2h4q15 0 15-8 0-1-2-11-16-57-62-101T333-11q-70 0-106 63-41-62-94-62h-6q-49 0-70 26T35 71q0 32 19 52t45 20q43 0 43-42 0-20-12-35t-23-20-13-5l-3-1q0-1 6-4t16-7 19-3q36 0 62 45 9 16 23 68t28 108 16 66q5 27 5 39 0 28-15 40t-34 12q-40 0-75-32t-49-82q-2-9-5-10t-16-2H58q-6 6-6 11Z"/><path id="z" d="m661-1243-6-6h-33l-18 9q-101 50-170 133t-86 198q-2 12-2 410l-1 401-2 16q-8 85-56 169T157 223q-11 9-12 13t-1 14q0 15 1 18t12 10q85 55 131 139t55 166l2 17 1 401q0 397 2 409 31 212 252 329l22 11h33l6-6v-34q0-2-4-5t-9-5-18-10-28-22q-13-9-28-25t-43-50-47-85-25-110q-1-9-1-397 0-387-1-396-16-170-156-289-47-39-99-65l48-29q10-6 51-37Q443 66 457-104q1-9 1-397 0-387 1-396 4-47 19-91t31-72 39-54 32-35 22-18q18-16 32-25t19-10 6-5 2-13v-23Z"/><path id="A" d="M34 159q0 109 86 196t186 87q56 0 88-24t33-63q0-29-19-49t-48-21q-19 0-30 10t-11 30 11 34 22 21 14 6h1q0 2-6 6t-21 8-34 4q-30 0-57-14-21-9-43-31-44-44-64-124t-21-116q0-46 26-69 22-24 58-24h4q112 0 185 85 9 10 12 10 4 0 13-9t10-14-9-15-29-28-45-30-64-25-80-11q-75 0-121 48T34 159Z"/><path id="B" d="M224-649v1799h51V-598h236v-51H224Z"/><path id="C" d="M84 237v13l14 20h581q15-8 15-20t-15-20H98q-14 7-14 20Z"/><path id="D" d="M630 29q0-20-21-20-5 0-22 16t-94 93L389 222 284 117Q178 13 175 11q-4-2-7-2-8 0-14 6t-7 14q0 7 14 22t94 95l104 104-104 104q-81 81-94 95t-14 22q0 9 6 14t15 5q5 0 7-1 3-2 109-106l105-105 104 104q77 77 94 93t22 16q21 0 21-20 0-7-10-18t-98-98L418 250l104-105q84-84 96-97t12-19Z"/><path id="E" d="M230 637q-27 0-32 1t-5 11q0 27 11 33 2 1 174 1 172-1 186-3 56-8 94-28t54-46 21-43 6-34q0-45-29-84t-67-60-67-34-38-13l7-5q67-38 67-110 0-11-5-61t-5-82v-9q0-18 1-28t11-18 26-9q28 0 46 22t26 47q5 14 8 17t15 3q20 0 20-12 0-18-24-57-38-57-90-57h-9q-61 0-101 25t-44 78q0 27 15 84t15 73q0 51-43 74-15 7-25 8t-71 2h-69l-32-130Q244 61 244 59q0-4 1-5t7-4 17-2 33-2h31q6-8 6-9t-3-18q-4-13-10-19h-15q-36 2-131 2H71Q54 2 50 1q-17 0-17 9 0 2 3 14 5 19 10 21 4 1 15 1h6q27 0 60 3 14 3 19 12 3 4 72 278t69 289q0 7-57 9Zm400-83q0 32-21 54t-86 28h-23q-21 0-38 1h-22q-47 0-54-10-1-3-34-133t-33-133q0-1 69-1 78 1 104 7 64 10 100 59 16 23 27 60t11 68Z"/><path id="F" d="M21 287q1 6 3 16t12 38 20 47 32 37 44 17 43-7 30-18 16-22 8-19l2-7q0-2 1-2l11 11q60 64 141 64 17 0 31-2t26-7 19-10 15-12 10-13 8-13 4-12 3-9 2-7l8 10q63 75 149 75 54 0 87-27t34-79q0-51-38-158T704 50q1-14 5-19t15-5q28 0 52 30t39 82q3 11 6 13t16 2q20 0 20-8 0-1-4-15-8-29-22-57t-46-56-69-27q-47 0-68 27t-21 56q0 19 36 120t37 152q0 59-44 59h-5q-86 0-145-101l-7-12-33-134Q433 26 428 16q-13-27-43-27-13 0-21 7T353 8t-3 10q0 11 34 143l36 146q3 15 3 38 0 59-44 59h-5q-86 0-145-101l-7-12-33-134Q156 26 151 16q-13-27-43-27-13 0-21 6T76 7t-2 10q0 13 38 164 39 154 39 161 3 15 3 27 0 36-25 36-22 0-37-28t-23-61-12-36q-2-2-16-2H27q-6 6-6 9Z"/><path id="G" d="M366 683q1 0 72 5t73 6q12 0 12-8 0-7-73-302T375 83t-1-15q0-42 28-42 9 1 20 9 21 20 41 96 6 20 10 21 2 1 10 1h8q15 0 15-8 0-5-3-16-13-50-30-81T445 8 417-8q-8-2-24-2-34 0-57 15t-30 31l-6 15q-1 1-4-1l-4-4q-59-56-120-56-55 0-97 40T33 157q0 48 20 98t48 86q47 57 94 79t85 22q56 0 84-42 5-6 5-4 1 4 27 109t28 111q0 13-7 16t-39 5h-21q-6 6-6 8t2 19q5 19 13 19Zm-14-357q-23 79-75 79-35 0-67-31t-50-81q-29-79-41-164v-11q0-8-1-12 0-45 18-62t43-18q54 0 111 72l8 11 54 217Z"/><path id="H" d="M252-598v1748h51V-649H16v51h236Z"/><path id="I" d="M83 616q0 8 6 14t10 6q8 0 154-68t290-137 144-70q7-5 7-15t-7-15q-2-2-292-139L107 56h-6q-18 2-18 20v3q-1 7 15 16 19 10 150 72 78 37 130 61l248 118-266 126q-69 33-160 76-88 41-102 49t-15 19Zm1-734q0 10 15 20h579q16-6 16-20 0-12-15-20H98q-14 7-14 20Z"/></defs><g data-mml-node="math" stroke="currentColor" fill="currentColor" stroke-width="0"><g data-mml-node="mtable"><g data-mml-node="mtr"><g data-mml-node="mtd"><g data-mml-node="msub"><use xlink:href="#a" data-mml-node="mi" transform="matrix(1 0 0 -1 0 -2220.5)"/><g data-mml-node="TeXAtom"><use xlink:href="#b" data-mml-node="mi" transform="matrix(.707 0 0 -.707 613 -2070.5)"/><use xlink:href="#c" data-mml-node="mi" transform="matrix(.707 0 0 -.707 1001.85 -2070.5)"/><use xlink:href="#d" data-mml-node="mi" transform="matrix(.707 0 0 -.707 1406.254 -2070.5)"/><use xlink:href="#d" data-mml-node="mi" transform="matrix(.707 0 0 -.707 1616.94 -2070.5)"/></g></g><use xlink:href="#e" data-mml-node="mo" transform="matrix(1 0 0 -1 1877.8 -2220.5)"/><use xlink:href="#f" data-mml-node="mi" transform="matrix(1 0 0 -1 2266.8 -2220.5)"/><use xlink:href="#g" data-mml-node="mo" transform="matrix(1 0 0 -1 2842.8 -2220.5)"/></g><g data-mml-node="mtd"><use xlink:href="#h" data-mml-node="mo" transform="matrix(1 0 0 -1 3509.6 -2220.5)"/></g><g data-mml-node="mtd"><g data-mml-node="mrow"><g data-mml-node="mo" transform="matrix(1 0 0 -1 4565.4 -2220.5)"><use xlink:href="#i" transform="translate(0 1168.1)"/><use xlink:href="#j" transform="translate(0 -668.1)"/><use xlink:href="#k"/><svg width="889" height="198.1" y="1060" viewBox="0 34.9 889 198.1"><use xlink:href="#l" transform="scale(1 .974)"/></svg><svg width="889" height="198.1" y="-758.1" viewBox="0 34.9 889 198.1"><use xlink:href="#l" transform="scale(1 .974)"/></svg></g><g data-mml-node="mtable"><g data-mml-node="mtr"><g data-mml-node="mtd"><use xlink:href="#m" data-mml-node="mn" transform="matrix(1 0 0 -1 5454.4 -3537.6)"/></g><g data-mml-node="mtd"><g data-mml-node="mtext" transform="matrix(1 0 0 -1 9573.7 -3537.6)"><use xlink:href="#n"/><use xlink:href="#o" transform="translate(278)"/><use xlink:href="#p" transform="translate(584)"/></g><use xlink:href="#f" data-mml-node="mi" transform="matrix(1 0 0 -1 10407.7 -3537.6)"/><use xlink:href="#q" data-mml-node="mo" transform="matrix(1 0 0 -1 11261.5 -3537.6)"/><use xlink:href="#m" data-mml-node="mn" transform="matrix(1 0 0 -1 12317.3 -3537.6)"/><use xlink:href="#r" data-mml-node="mo" transform="matrix(1 0 0 -1 12817.3 -3537.6)"/></g></g><g data-mml-node="mtr"><g data-mml-node="mtd"><use xlink:href="#s" data-mml-node="mi" transform="matrix(1 0 0 -1 5454.4 -2337.6)"/></g><g data-mml-node="mtd"><g data-mml-node="mtext" transform="matrix(1 0 0 -1 9573.7 -2337.6)"><use xlink:href="#n"/><use xlink:href="#o" transform="translate(278)"/><use xlink:href="#p" transform="translate(584)"/></g><use xlink:href="#f" data-mml-node="mi" transform="matrix(1 0 0 -1 10407.7 -2337.6)"/><use xlink:href="#h" data-mml-node="mo" transform="matrix(1 0 0 -1 11261.5 -2337.6)"/><use xlink:href="#t" data-mml-node="mn" transform="matrix(1 0 0 -1 12317.3 -2337.6)"/><use xlink:href="#r" data-mml-node="mo" transform="matrix(1 0 0 -1 12817.3 -2337.6)"/></g></g><g data-mml-node="mtr"><g data-mml-node="mtd"><use xlink:href="#b" data-mml-node="mi" transform="matrix(1 0 0 -1 5454.4 -1002.9)"/><use xlink:href="#e" data-mml-node="mo" transform="matrix(1 0 0 -1 6004.4 -1002.9)"/><g data-mml-node="mrow"><use xlink:href="#u" data-mml-node="mo" transform="matrix(1 0 0 -1 6393.4 -1002.9)"/><g data-mml-node="mfrac"><use xlink:href="#f" data-mml-node="mi" transform="matrix(.707 0 0 -.707 7085.4 -1396.9)"/><use xlink:href="#v" data-mml-node="mi" transform="matrix(.707 0 0 -.707 7110.9 -657.9)"/><path stroke="none" d="M6985.4-1222.9h607.3v-60h-607.3z"/></g><use xlink:href="#w" data-mml-node="mo" transform="matrix(1 0 0 -1 7712.7 -1002.9)"/></g><use xlink:href="#g" data-mml-node="mo" transform="matrix(1 0 0 -1 8184.7 -1002.9)"/></g><g data-mml-node="mtd"><g data-mml-node="mtext" transform="matrix(1 0 0 -1 9573.7 -1002.9)"><use xlink:href="#n"/><use xlink:href="#o" transform="translate(278)"/><use xlink:href="#p" transform="translate(584)"/></g><use xlink:href="#f" data-mml-node="mi" transform="matrix(1 0 0 -1 10407.7 -1002.9)"/><use xlink:href="#x" data-mml-node="mo" transform="matrix(1 0 0 -1 11261.5 -1002.9)"/><use xlink:href="#t" data-mml-node="mn" transform="matrix(1 0 0 -1 12317.3 -1002.9)"/><use xlink:href="#r" data-mml-node="mo" transform="matrix(1 0 0 -1 12817.3 -1002.9)"/></g></g></g></g></g></g><g data-mml-node="mtr"><g data-mml-node="mtd"><use xlink:href="#b" data-mml-node="mi" transform="matrix(1 0 0 -1 1331.8 2538.1)"/><use xlink:href="#e" data-mml-node="mo" transform="matrix(1 0 0 -1 1881.8 2538.1)"/><use xlink:href="#y" data-mml-node="mi" transform="matrix(1 0 0 -1 2270.8 2538.1)"/><use xlink:href="#g" data-mml-node="mo" transform="matrix(1 0 0 -1 2842.8 2538.1)"/></g><g data-mml-node="mtd"><use xlink:href="#h" data-mml-node="mo" transform="matrix(1 0 0 -1 3509.6 2538.1)"/></g><g data-mml-node="mtd"><g data-mml-node="mrow"><use xlink:href="#z" data-mml-node="mo" transform="matrix(1 0 0 -1 4565.4 2538.1)"/><g data-mml-node="mtable"><g data-mml-node="mtr"><g data-mml-node="mtd"><g data-mml-node="msub"><use xlink:href="#A" data-mml-node="mi" transform="matrix(1 0 0 -1 5371.4 1538.6)"/><g data-mml-node="TeXAtom"><use xlink:href="#m" data-mml-node="mn" transform="matrix(.707 0 0 -.707 5804.4 1688.6)"/></g></g></g><g data-mml-node="mtd"><g data-mml-node="mtext" transform="matrix(1 0 0 -1 11675.8 1538.6)"><use xlink:href="#n"/><use xlink:href="#o" transform="translate(278)"/><use xlink:href="#p" transform="translate(584)"/></g><use xlink:href="#y" data-mml-node="mi" transform="matrix(1 0 0 -1 12509.8 1538.6)"/><use xlink:href="#h" data-mml-node="mo" transform="matrix(1 0 0 -1 13359.6 1538.6)"/><use xlink:href="#m" data-mml-node="mn" transform="matrix(1 0 0 -1 14415.4 1538.6)"/><use xlink:href="#r" data-mml-node="mo" transform="matrix(1 0 0 -1 14915.4 1538.6)"/></g></g><g data-mml-node="mtr"><g data-mml-node="mtd"><g data-mml-node="mrow"><use xlink:href="#B" data-mml-node="mo" transform="matrix(1 0 0 -1 5371.4 3138.1)"/><g data-mml-node="mfrac"><g data-mml-node="mrow"><use xlink:href="#b" data-mml-node="mi" transform="matrix(.707 0 0 -.707 6119.4 2621.3)"/><use xlink:href="#e" data-mml-node="mo" transform="matrix(.707 0 0 -.707 6508.25 2621.3)"/><use xlink:href="#y" data-mml-node="mi" transform="matrix(.707 0 0 -.707 6783.273 2621.3)"/><use xlink:href="#C" data-mml-node="mo" transform="matrix(.707 0 0 -.707 7187.677 2621.3)"/><use xlink:href="#t" data-mml-node="mn" transform="matrix(.707 0 0 -.707 7737.723 2621.3)"/><use xlink:href="#g" data-mml-node="mo" transform="matrix(.707 0 0 -.707 8091.223 2621.3)"/><use xlink:href="#D" data-mml-node="mo" transform="matrix(.707 0 0 -.707 8366.246 2621.3)"/><g data-mml-node="msub"><use xlink:href="#E" data-mml-node="mi" transform="matrix(.707 0 0 -.707 8916.292 2621.3)"/><g data-mml-node="TeXAtom"><use xlink:href="#F" data-mml-node="mi" transform="matrix(.49985 0 0 -.49985 9452.905 2727.35)"/></g></g></g><g data-mml-node="msub"><use xlink:href="#E" data-mml-node="mi" transform="matrix(.707 0 0 -.707 7607.6 3483.1)"/><g data-mml-node="TeXAtom"><use xlink:href="#G" data-mml-node="mi" transform="matrix(.49985 0 0 -.49985 8144.213 3589.15)"/></g></g><path stroke="none" d="M6019.4 2918.1h4008.4v-60H6019.4z"/></g><use xlink:href="#H" data-mml-node="mo" transform="matrix(1 0 0 -1 10147.8 3138.1)"/></g></g><g data-mml-node="mtd"><g data-mml-node="mtext" transform="matrix(1 0 0 -1 11675.8 3138.1)"><use xlink:href="#n"/><use xlink:href="#o" transform="translate(278)"/><use xlink:href="#p" transform="translate(584)"/></g><use xlink:href="#y" data-mml-node="mi" transform="matrix(1 0 0 -1 12509.8 3138.1)"/><use xlink:href="#I" data-mml-node="mo" transform="matrix(1 0 0 -1 13359.6 3138.1)"/><use xlink:href="#t" data-mml-node="mn" transform="matrix(1 0 0 -1 14415.4 3138.1)"/><use xlink:href="#r" data-mml-node="mo" transform="matrix(1 0 0 -1 14915.4 3138.1)"/></g></g></g></g></g></g></g></g></svg>