<?xml version="1.0" encoding="UTF-8" standalone="no" ?><svg xmlns="http://www.w3.org/2000/svg" width="814.065" height="463.5" viewBox="0 -7078.8 23987.9 13657.7" xmlns:xlink="http://www.w3.org/1999/xlink"><defs><path id="a" d="M308 24q59 0 108 52t50 121q0 63-52 87-106 27-136 37t-42 20q-60 42-60 121 0 61 32 111t65 75q29 25 70 40t64 16h18q96 0 139-64 1 0 13 13t26 29 20 22h4q3 0 5 1 13 0 13-7t-28-121-32-118-16-3q-20 0-20 9 0 6 1 10 0 3 1 19t2 26q0 34-9 59t-18 37-25 25q-36 21-82 21-57 0-106-46t-50-106q0-30 15-52t41-31q4-2 70-19t67-18q34-11 66-48t32-100q0-26-8-56-5-22-18-49t-36-59-66-60-94-38q-12-2-34-2-99 0-154 55l-10 11-28-31Q83-14 78-18t-13-4q-13 0-13 8 0 3 58 235 2 6 20 6h13q6-6 6-11 0-2-1-9t-4-21-2-33q2-39 18-66t43-40 52-18 53-5Z"/><path id="b" d="M23 287q1 3 2 8t5 22 10 31 15 33 20 30 26 22 33 9q75 0 96-64l10 9q62 55 118 55 65 0 102-47t37-114q0-108-76-199T249-10q-22 0-39 6-11 5-23 15t-19 17l-7 8q-1-1-22-87t-21-87q0-6 8-7t37-3h25q6-7 6-9t-3-18q-3-12-6-15t-13-4h-11q-9 0-34 1t-62 1q-70 0-89-2h-8q-7 7-7 11 2 27 13 35h20q34 1 39 12 3 6 61 239t61 247q1 5 1 14 0 41-25 41-22 0-37-28t-23-61-12-36q-2-2-16-2H29q-6 6-6 9Zm155-185q22-76 74-76 30 0 58 23t46 58q18 34 36 108t19 110v6q0 74-61 74-11 0-22-3t-22-9-20-13-17-15-15-15-11-14-8-10l-3-4q0-1-3-14t-11-44-14-52q-26-106-26-110Z"/><path id="c" d="M201-11q-75 0-121 49T34 156q0 65 30 123t82 101q76 61 155 61 32 0 40-1 13-3 26-7t35-16 36-30 26-49 12-70q0-107-86-193T201-11Zm-80 131q0-50 26-72t59-22q44 0 83 32t62 84q9 21 23 74t14 92q0 44-18 67-24 30-64 30-63 0-111-58-37-44-55-117t-19-110Z"/><path id="d" d="M580 385q0 21 19 39t42 19q18 0 33-18t16-57q0-29-19-115-15-56-27-92t-35-81-55-68-72-23q-44 0-78 16t-49 43q-1-1-3-4-41-55-100-55-26 0-50 6t-47 19-37 39-14 63q0 54 34 146t35 117v14q0 3-4 7t-11 4h-4q-23 0-42-19t-30-41-17-42-8-22q-2-2-16-2H27q-6 6-6 9 0 6 8 28t23 51 44 52 65 23q43 0 66-25t23-58q0-18-33-108t-33-139q0-46 21-65t53-20q43 0 76 61l5 9v32q0 6 1 8t1 7 1 9 3 13 3 17 6 24 8 32 11 43q29 114 33 123 13 27 43 27 19 0 26-10t8-19q0-13-29-128t-32-132q-2-11-2-35v-7q0-15 3-29t19-29 45-16q71 0 113 122 9 23 20 65t12 60q0 33-13 52t-26 32-13 28Z"/><path id="e" d="M94 250q0 69 10 131t23 107 37 88 38 67 42 52 33 34 25 21h17q14 0 14-9 0-3-17-21t-41-53-49-86-42-138-17-193 17-192 41-139 49-86 42-53 17-21q0-9-15-9h-16l-28 24q-94 85-137 212T94 250Z"/><path id="f" d="M137 683q1 0 72 5t73 6q12 0 12-9 0-11-36-151-38-148-38-151 0-2 7 5 61 54 130 54 54 0 87-27t34-79q0-51-38-158T402 50q1-14 5-19t15-5q28 0 52 30t39 82q3 11 6 13t16 2q20 0 20-8 0-1-4-15-16-59-51-97-34-43-81-43h-5q-47 0-68 27t-21 57q0 16 36 118t37 153q0 59-44 59h-5q-83 0-144-98l-7-13-34-135Q132 28 127 16q-13-27-44-27-14 0-24 9T48 16q0 14 73 304l74 296q0 13-7 16t-39 5h-21q-6 6-6 8t2 19q5 19 13 19Z"/><path id="g" d="M78 35v25l16 43 43 18q28 0 50-25t23-88q0-35-9-68t-21-57-26-41-24-27-13-9q-4 0-13 9t-9 13q0 4 11 16t25 30 26 50 16 73V9l-1-1q-2-1-5-2t-6-3-9-2-12-1q-27 0-44 17Z"/><path id="h" d="M173 380q0 25-19 25-24 0-50-29t-43-89q-1-1-2-3t-1-3-2-2-3-1-4 0-8 0H27q-6 6-6 9 0 7 8 29t24 52 44 51 63 22q42 0 65-24t24-56q0-17-3-26 0-6-15-44t-31-89-18-89q0-27 5-44 13-43 63-43 37 0 69 34t50 79 29 83 11 55q0 23-8 40t-18 26-18 18-8 22q0 22 19 41t41 19q19 0 34-18t16-58q0-27-12-83t-37-125-71-119-106-51q-64 0-102 33-37 32-37 95 0 31 8 64t41 117q22 64 22 82Z"/><path id="i" d="m60 749 4 1h22l28-24q94-85 137-212t43-264q0-68-10-131T261 12t-37-88-38-67-41-51-32-33-23-19l-4-4H63q-3 0-5 3t-3 9q1 1 11 13Q221-64 221 250T66 725q-10 12-11 13 0 8 5 11Z"/><path id="j" d="M56 347q0 13 14 20h637q15-8 15-20 0-11-14-19l-318-1H72q-16 5-16 20Zm0-194q0 15 16 20h636q14-10 14-20 0-13-15-20H70q-14 7-14 20Z"/><path id="k" d="m712 899 6-6v-28q0-11-14-19-77-53-127-136t-67-185q0-1-1-4-4-28-5-172V240q0-242-1-244-1-4-9-5t-50-1q-52 0-54 1-3 1-4 4-2 10-2 235v82q0 50-1 70 0 99 9 153t42 121q76 150 230 236l13 7h35Z"/><path id="l" d="m718-893-6-6h-35l-11 6q-124 68-198 179t-83 238q-1 10-1 194 0 285 1 287l4 4q3 1 55 1 42 0 50-1t9-5q1-2 1-243v-127q0-104 4-147t22-96q16-48 39-89t48-69 44-45 38-31 18-13 1-20v-17Z"/><path id="m" d="M389 1159q2 1 66 1 41 0 43-1 3-1 4-4 2-10 2-231 0-233-1-242-9-133-78-243T243 259l-14-9 14-9q106-66 178-175t82-248q1-9 1-242v-205q0-29-5-30h-1q-2-1-54-1t-54 1q-3 1-4 4-2 10-2 230v143q0 106-7 166T342 10q-17 44-41 82t-46 63-41 41-31 26-12 10q-1 1-1 18t1 18q0 1 20 16t49 47 60 76 54 117 29 155q1 12 1 246 0 227 1 230l4 4Z"/><path id="n" d="M384 150v116q0 38 5 43 2 1 66 1 41 0 43-1 4-1 5-11 1-15 1-148V12q0-20-5-21h-1q-2-1-54-1t-54 1q-4 1-5 11-1 15-1 148Z"/><path id="o" d="M96 585q56 81 153 81 48 0 96-26t78-92q37-83 37-228 0-155-43-237-20-42-55-67t-61-31-51-7q-26 0-52 6t-61 32-55 67q-43 82-43 237 0 174 57 265Zm225 12q-30 32-71 32-42 0-72-32-25-26-33-72t-8-192q0-158 8-208t36-79q28-30 69-30 40 0 68 30 29 30 36 84t8 203q0 145-8 191t-33 73Z"/><path id="p" d="M69 609q0 28 18 44t44 16q23-2 40-17t17-43q0-30-17-45t-42-15q-25 0-42 15t-18 45ZM247 0q-15 3-104 3h-37Q80 3 56 1L34 0h-8v46h16q28 0 49 3 9 4 11 11t2 42v191q0 52-2 66t-14 19q-14 7-47 7H30v23q0 23 2 23l10 1q10 1 28 2t36 2 36 2 29 3 11 1h3V62q5-10 12-12t35-4h23V0h-8Z"/><path id="q" d="M273 0q-18 3-127 3Q43 3 34 0h-8v46h16q28 0 49 3 8 3 12 11 1 2 1 164v161H33v46h71v66l1 67 2 10q19 65 64 94t95 36h9q8 0 14 1 41-3 62-26t21-52q0-23-14-37t-37-14-37 14-14 37q0 20 18 40h-4q-4 1-11 1-28 0-50-21t-34-55q-6-20-7-95v-66h111v-46H185V225q0-162 1-164t3-4 5-3 5-3 7-2 7-1 9-1 9 0 10-1 10 0h31V0h-9Z"/><path id="s" d="M674 636q8 0 14-6t6-15-7-14q-1-1-270-129L151 346l248-118Q687 92 691 87q3-6 3-11 0-18-18-20h-6L382 192Q92 329 90 331q-7 5-7 17 1 11 13 17 8 4 286 135t283 134q4 2 9 2ZM84-118q0 10 15 20h579q16-6 16-20 0-12-15-20H98q-14 7-14 20Z"/><path id="t" d="M118-162q2 0 6-2t11-3 12-1q13 0 24 13t16 29q10 27 34 153t46 240 22 115v3h-47q-47 0-50 2-4 3-4 10l7 28q2 5 8 5t47 1q48 0 48 1 0 2 9 50t12 58q37 165 146 165 37-2 61-22t24-53q0-36-21-52t-42-17q-44 0-44 42 0 19 11 33t24 21l9 5q-16 6-30 6-12 0-23-10t-15-28q-7-29-16-78t-16-83-7-36q0-2 55-2 45 0 52-1t11-6q1-4-2-17t-5-16q-2-5-9-5t-54-1h-56l-23-122Q301 15 282-47q-27-85-70-126-37-32-73-32-32 0-58 19t-26 54q0 37 21 54t42 17q44 0 44-42 0-19-11-33t-24-21l-9-5Z"/><path id="u" d="M21 287q0 8 9 31t25 52 44 50 59 22q46 0 69-25t23-59q0-18-34-112t-34-141q0-43 14-60t42-18 53 17 37 34l11 17q2 4 38 152 30 120 36 140t14 29q17 15 36 15 17 0 25-10t8-19L420 84q-1-5-1-16 0-25 7-33t21-9q22 3 35 31t30 88q2 8 20 8 19 0 19-9-1-5-2-14t-9-32-17-43-25-38-36-25q-8-2-24-2-66 0-91 56-2-1-11-10t-18-15-22-15-29-12-34-5q-44 0-78 18-52 31-52 106 0 57 35 149t35 117v14q0 3-4 7t-11 4h-4q-23 0-42-19t-30-41-17-42-8-22q-2-2-16-2H27q-6 6-6 9Z"/><path id="v" d="M117 59q0-33 25-33 37 0 63 105 6 20 10 21 2 1 10 1h16q3 0 5-2t2-7q-1-6-3-16t-11-38-20-47-31-37-46-17q-36 0-67 22T38 85q0 12 1 17l65 258q63 255 63 263 0 3-1 5t-4 4-5 2-8 1-8 1-9 1-10 0h-13q-3 0-8 1t-6 3-1 6q0 2 2 14 5 19 11 21t72 6q15 1 34 2t30 3 11 1q12 0 12-8 0-11-73-300T118 83v-8q0-6-1-10v-6Z"/><path id="w" d="m213 578-13-5q-14-5-40-10t-58-7H83v46h19q47 2 87 15t56 24 28 22q2 3 12 3 9 0 17-6V361l1-300q7-7 12-9t24-4 62-2h26V0h-11q-21 3-159 3-136 0-157-3H88v46h64q16 0 25 1t16 3 8 2 6 5 6 4v517Z"/><path id="x" d="M224-649v1799h51V-598h236v-51H224Z"/><path id="y" d="M630 29q0-20-21-20-5 0-22 16t-94 93L389 222 284 117Q178 13 175 11q-4-2-7-2-8 0-14 6t-7 14q0 7 14 22t94 95l104 104-104 104q-81 81-94 95t-14 22q0 9 6 14t15 5q5 0 7-1 3-2 109-106l105-105 104 104q77 77 94 93t22 16q21 0 21-20 0-7-10-18t-98-98L418 250l104-105q84-84 96-97t12-19Z"/><path id="z" d="M252-598v1748h51V-649H16v51h236Z"/><path id="A" d="M109 429q-27 0-43 18t-16 44q0 71 53 123t132 52q91 0 152-56t62-145q0-43-20-82t-48-68-80-74q-36-31-100-92l-59-56 76-1q157 0 167 5 7 2 24 89v3h40v-3q-1-3-13-91T421 3V0H50v31q0 7 6 15t30 35q29 32 50 56 9 10 34 37t34 37 29 33 28 34 23 30 21 32 15 29 13 32 7 30 3 33q0 63-34 109t-97 46q-33 0-58-17t-35-33-10-19q0-1 5-1 18 0 37-14t19-46q0-25-16-42t-45-18Z"/><path id="B" d="M694-11v-8l-6-14-10-7q-7 0-154 69T234 166L90 235q-7 5-7 15 0 11 8 16 573 274 587 274 3 0 9-6t7-15-7-14q-1-1-270-129L151 250l266-126Q686-4 687-5q7-6 7-14Z"/><path id="C" d="M228 637q-34 0-36 4-1 2-1 8 0 24 11 33 2 1 17 1 41-2 136-2h63q29 0 45 1t20 0q16 0 16-10 0-2-2-14-5-17-10-20h-14q-4 0-9-1t-9 0q-39-1-50-3t-18-11q-3-4-32-123-7-26-15-58t-12-47l-4-15q0-2 145-2h145l1 3q0 3 31 123 28 115 28 123t-57 10q-23 0-30 2t-7 9q0 2 2 12 4 17 6 19t16 3q5 0 42-1t94-1q62 0 95 1t36 1q17 0 17-10 0-27-12-34h-14q-4 0-9-1t-9 0q-39-1-50-3t-18-11q-3-5-72-283T634 58q0-7 4-7 8-3 54-5h31q6-8 6-9t-3-18q-4-13-10-19h-15q-37 2-134 2H458q-17 0-21-1-17 0-17 9 0 5 3 14 5 19 10 21 4 1 15 1h6q27 0 60 3 6 1 8 1t6 5 6 9 6 18 7 28 11 43q7 28 11 45 33 132 33 133t-145 1H312l-33-135Q245 63 245 58q0-7 8-9t50-3h31q6-8 6-9t-3-18q-4-13-10-19h-15q-37 2-134 2H69Q52 2 48 1q-17 0-17 9 0 2 3 14 5 19 10 21 4 1 15 1h6q27 0 60 3 14 3 19 12 3 4 72 278t69 289q0 7-57 9Z"/><path id="D" d="M131 289q0 32 16 65t56 61 97 27q62 0 90-27t29-60q0-32-17-47t-38-16q-13 0-24 8t-12 26q0 16 9 28t17 18 13 6q1 0 1 1 0 3-7 9t-25 11-39 6q-48 0-70-26t-23-53q0-25 19-35t55-17 52-15q66-29 66-96 0-28-11-56t-33-56-63-44-94-17q-77 0-109 29T53 87q0 39 21 56t44 17q15 0 28-9t14-31q0-26-18-44t-31-18q-2-1-3-1t-1-2q1-3 8-8t31-13 55-7q36 0 62 11t38 28 17 31 5 25q0 28-21 42t-48 17-59 15-47 35q-17 25-17 58Z"/><path id="E" d="M83 616q0 8 6 14t10 6q8 0 154-68t290-137 144-70q7-5 7-15t-7-15q-2-2-292-139L107 56h-6q-18 2-18 20v3q-1 7 15 16 19 10 150 72 78 37 130 61l248 118-266 126q-69 33-160 76-88 41-102 49t-15 19Zm1-734q0 10 15 20h579q16-6 16-20 0-12-15-20H98q-14 7-14 20Z"/><path id="G" d="M64 349q0 50 43 77t148 27q91 0 147-30t71-82q5-14 5-31t1-114V77q14-14 50-15 20 0 24-5t5-26q0-22-6-26t-38-5h-33Q375 0 367 56l-11-10Q300-6 210-6 130-6 81 30t-49 91q0 67 79 105t221 46h18v20q0 21-2 35t-11 34-31 30-58 11-54-3h-5q15-23 15-45 0-27-17-48t-53-22q-37 0-53 21t-17 44Zm100-228q0-32 22-54t52-22q36 0 69 18t39 45l4 9v109h-3q-99-8-141-37t-42-68Z"/><path id="H" d="M40 442q177 8 178 8h6v-43l1-42q8 13 20 26t44 31 73 26q12 2 36 2 30 0 50-3t43-13 38-32 22-56q2-11 3-148V62h69V0h-9q-18 3-125 3-115 0-124-3h-9v62h69v213q0 73-9 98t-45 26q-45 0-83-29t-50-80q-2-9-3-119V62h69V0h-9q-18 3-124 3Q64 3 46 0h-9v62h69v241q0 50-2 60t-13 13q-14 4-41 4H37v62h3Z"/><path id="I" d="m351 686 91 4q91 4 92 4h6V253q0-74-1-90 0-66 2-80t14-17q14-4 41-4h13V31q0-31-1-31-20 0-98-3t-98-3q-1 0-1 22v22l-10-7Q337-6 265-6 159-6 99 58T38 224q0 41 13 79t41 72 73 54 107 20q87 0 145-37v143q0 42-2 52t-13 13q-14 4-41 4h-13v62h3Zm60-336q-49 49-120 49-13 0-35-7t-38-21q-23-20-29-51t-7-82v-17q0-42 1-62t8-44 21-41q29-28 76-28 70 0 116 54l7 9v241Z"/><path id="J" d="M21 287q1 6 3 16t12 38 20 47 32 37 44 17 43-7 30-18 16-22 8-19l2-7q0-2 1-2l11 11q60 64 141 64 17 0 31-2t26-7 19-10 15-12 10-13 8-13 4-12 3-9 2-7l8 10q63 75 149 75 54 0 87-27t34-79q0-51-38-158T704 50q1-14 5-19t15-5q28 0 52 30t39 82q3 11 6 13t16 2q20 0 20-8 0-1-4-15-8-29-22-57t-46-56-69-27q-47 0-68 27t-21 56q0 19 36 120t37 152q0 59-44 59h-5q-86 0-145-101l-7-12-33-134Q433 26 428 16q-13-27-43-27-13 0-21 7T353 8t-3 10q0 11 34 143l36 146q3 15 3 38 0 59-44 59h-5q-86 0-145-101l-7-12-33-134Q156 26 151 16q-13-27-43-27-13 0-21 6T76 7t-2 10q0 13 38 164 39 154 39 161 3 15 3 27 0 36-25 36-22 0-37-28t-23-61-12-36q-2-2-16-2H27q-6 6-6 9Z"/><path id="K" d="M319-644v1799h84V-560h263v-84H319Z"/><path id="L" d="M319 0v602h84V0h-84Z"/><path id="M" d="M246-949v2399h62V-887h263v-62H246Z"/><path id="N" d="M274-887v2337h62V-949H11v62h263Z"/><path id="O" d="M73 647q0 10 4 23t12 13q1 0 72 5t73 6q12 0 12-9t-34-143q-8-34-17-70t-15-54l-4-19q0-3 6 3 49 40 101 40 62 0 100-46t39-116q0-111-79-201T173-11q-50 0-91 38T40 150v9q0 21 8 58t49 197q50 197 50 209t-38 14H83q-3 0-7 3t-3 7Zm263-322v6q0 74-61 74-17 0-35-8t-33-21-26-24-18-22l-6-8-21-86q-22-86-22-122 0-48 24-72 16-16 40-16 33 0 67 32 25 23 40 56t33 105q18 72 18 106Z"/><path id="P" d="M263-560v1715h84V-644H0v84h263Z"/><path id="Q" d="M263 0v602h84V0h-84Z"/><path id="R" d="M26 385q-7 7-7 10 0 4 3 16t5 14q2 5 9 5t51 1h53l19 80q3 11 7 29t7 26 6 20 8 17 10 12 14 9 18 2q18-1 25-11t7-19q0-7-9-47t-20-79l-10-37q0-2 50-2h51q7-7 7-11 0-22-13-35H210l-36-145Q135 80 135 68q0-42 27-42 35 0 68 34t53 84q2 6 5 7t15 2h4q15 0 15-8 0-3-3-12-5-16-18-38t-34-47-51-42-61-17q-30 0-57 15T59 56q-2 8-2 27v18l35 140q35 141 36 142 0 2-51 2H26Z"/><path id="S" d="M39 168q0 57 19 104t49 78 67 52 70 31 63 9h3q45 0 78-22t33-65q0-90-111-118-49-13-134-14-37 0-38-2 0-2-6-35t-7-58q0-47 21-74t63-28 93 19 92 66q9 10 12 10 4 0 13-9t10-14-9-16-30-27-46-31-63-25-76-10q-79 0-122 53T39 168Zm334 185q-6 52-68 52-33 0-61-14t-45-34-29-41-16-36-5-19q0-1 20-1 113 0 158 24t46 69Z"/><path id="T" d="m661-1243-6-6h-33l-18 9q-101 50-170 133t-86 198q-2 12-2 410l-1 401-2 16q-8 85-56 169T157 223q-11 9-12 13t-1 14q0 15 1 18t12 10q85 55 131 139t55 166l2 17 1 401q0 397 2 409 31 212 252 329l22 11h33l6-6v-34q0-2-4-5t-9-5-18-10-28-22q-13-9-28-25t-43-50-47-85-25-110q-1-9-1-397 0-387-1-396-16-170-156-289-47-39-99-65l48-29q10-6 51-37Q443 66 457-104q1-9 1-397 0-387 1-396 4-47 19-91t31-72 39-54 32-35 22-18q18-16 32-25t19-10 6-5 2-13v-23Z"/><path id="U" d="M84 237v13l14 20h581q15-8 15-20t-15-20H98q-14 7-14 20Z"/><path id="V" d="M70 417v77l54 124 124 48q71 0 126-42t55-109q0-30-11-56t-26-42-31-28-26-18-11-8l14-9 28-20q14-10 16-11 75-59 75-149 0-79-58-137T249-22q-90 0-148 51T43 155q0 108 129 180l-18 13q-21 13-27 20-57 49-57 126Zm216-31 6 4 9 6q3 2 10 7t12 10 11 12 11 13 10 16 9 17 5 20 2 22q0 43-29 73t-67 38q-7 1-33 1-41 0-77-26t-37-65q0-23 13-42t26-29 50-32q7-5 11-7l58-38ZM250 21q58 0 100 34t42 82q0 17-5 32t-12 25-22 22-23 18-29 19-27 17q-14 9-30 19t-26 17l-8 5q-6 0-29-17t-48-55-26-82q0-59 43-97t100-39Z"/></defs><g data-mml-node="math" stroke="currentColor" fill="currentColor" stroke-width="0"><g data-mml-node="mtable"><g data-mml-node="mtr"><g data-mml-node="mtd"><g data-mml-node="msub"><use xlink:href="#a" data-mml-node="mi" transform="matrix(1 0 0 -1 0 -2220.5)"/><g data-mml-node="TeXAtom"><use xlink:href="#b" data-mml-node="mi" transform="matrix(.707 0 0 -.707 613 -2070.5)"/><use xlink:href="#c" data-mml-node="mi" transform="matrix(.707 0 0 -.707 968.621 -2070.5)"/><use xlink:href="#d" data-mml-node="mi" transform="matrix(.707 0 0 -.707 1311.516 -2070.5)"/></g></g><use xlink:href="#e" data-mml-node="mo" transform="matrix(1 0 0 -1 1867.9 -2220.5)"/><use xlink:href="#f" data-mml-node="mi" transform="matrix(1 0 0 -1 2256.9 -2220.5)"/><use xlink:href="#g" data-mml-node="mo" transform="matrix(1 0 0 -1 2832.9 -2220.5)"/><use xlink:href="#h" data-mml-node="mi" transform="matrix(1 0 0 -1 3277.6 -2220.5)"/><use xlink:href="#i" data-mml-node="mo" transform="matrix(1 0 0 -1 3762.6 -2220.5)"/></g><g data-mml-node="mtd"><use xlink:href="#j" data-mml-node="mo" transform="matrix(1 0 0 -1 4429.4 -2220.5)"/></g><g data-mml-node="mtd"><g data-mml-node="mrow"><g data-mml-node="mo" transform="matrix(1 0 0 -1 5485.1 -2220.5)"><use xlink:href="#k" transform="translate(0 3959.3)"/><use xlink:href="#l" transform="translate(0 -3459.3)"/><use xlink:href="#m"/><svg width="889" height="2989.3" y="1060" viewBox="0 526.8 889 2989.3"><use xlink:href="#n" transform="scale(1 14.702)"/></svg><svg width="889" height="2989.3" y="-3549.3" viewBox="0 526.8 889 2989.3"><use xlink:href="#n" transform="scale(1 14.702)"/></svg></g><g data-mml-node="mtable"><g data-mml-node="mtr"><g data-mml-node="mtd"><use xlink:href="#o" data-mml-node="mn" transform="matrix(1 0 0 -1 6374.1 -6328.8)"/></g><g data-mml-node="mtd"><g data-mml-node="mtext" transform="matrix(1 0 0 -1 14099.3 -6328.8)"><use xlink:href="#p"/><use xlink:href="#q" transform="translate(278)"/><use xlink:href="#r" transform="translate(584)"/></g><use xlink:href="#f" data-mml-node="mi" transform="matrix(1 0 0 -1 14933.3 -6328.8)"/><use xlink:href="#s" data-mml-node="mo" transform="matrix(1 0 0 -1 15787.1 -6328.8)"/><use xlink:href="#o" data-mml-node="mn" transform="matrix(1 0 0 -1 16842.9 -6328.8)"/><use xlink:href="#g" data-mml-node="mo" transform="matrix(1 0 0 -1 17342.9 -6328.8)"/></g></g><g data-mml-node="mtr"><g data-mml-node="mtd"><g data-mml-node="msub"><use xlink:href="#a" data-mml-node="mi" transform="matrix(1 0 0 -1 6374.1 -5128.8)"/><g data-mml-node="TeXAtom"><use xlink:href="#t" data-mml-node="mi" transform="matrix(.707 0 0 -.707 6987.1 -4978.8)"/><use xlink:href="#u" data-mml-node="mi" transform="matrix(.707 0 0 -.707 7375.95 -4978.8)"/><use xlink:href="#v" data-mml-node="mi" transform="matrix(.707 0 0 -.707 7780.354 -4978.8)"/><use xlink:href="#v" data-mml-node="mi" transform="matrix(.707 0 0 -.707 7991.04 -4978.8)"/></g></g><use xlink:href="#e" data-mml-node="mo" transform="matrix(1 0 0 -1 8251.9 -5128.8)"/><use xlink:href="#w" data-mml-node="mn" transform="matrix(1 0 0 -1 8640.9 -5128.8)"/><use xlink:href="#i" data-mml-node="mo" transform="matrix(1 0 0 -1 9140.9 -5128.8)"/></g><g data-mml-node="mtd"><g data-mml-node="mtext" transform="matrix(1 0 0 -1 14099.3 -5128.8)"><use xlink:href="#p"/><use xlink:href="#q" transform="translate(278)"/><use xlink:href="#r" transform="translate(584)"/></g><use xlink:href="#f" data-mml-node="mi" transform="matrix(1 0 0 -1 14933.3 -5128.8)"/><use xlink:href="#j" data-mml-node="mo" transform="matrix(1 0 0 -1 15787.1 -5128.8)"/><use xlink:href="#w" data-mml-node="mn" transform="matrix(1 0 0 -1 16842.9 -5128.8)"/><use xlink:href="#g" data-mml-node="mo" transform="matrix(1 0 0 -1 17342.9 -5128.8)"/></g></g><g data-mml-node="mtr"><g data-mml-node="mtd"><g data-mml-node="mrow"><use xlink:href="#x" data-mml-node="mo" transform="matrix(1 0 0 -1 6374.1 -3484.4)"/><g data-mml-node="mfrac"><g data-mml-node="mrow"><g data-mml-node="msub"><use xlink:href="#a" data-mml-node="mi" transform="matrix(.707 0 0 -.707 7122.1 -4033)"/><g data-mml-node="TeXAtom"><use xlink:href="#t" data-mml-node="mi" transform="matrix(.49985 0 0 -.49985 7555.491 -3926.95)"/><use xlink:href="#u" data-mml-node="mi" transform="matrix(.49985 0 0 -.49985 7830.408 -3926.95)"/><use xlink:href="#v" data-mml-node="mi" transform="matrix(.49985 0 0 -.49985 8116.322 -3926.95)"/><use xlink:href="#v" data-mml-node="mi" transform="matrix(.49985 0 0 -.49985 8265.277 -3926.95)"/></g></g><use xlink:href="#e" data-mml-node="mo" transform="matrix(.707 0 0 -.707 8449.705 -4033)"/><use xlink:href="#f" data-mml-node="mi" transform="matrix(.707 0 0 -.707 8724.728 -4033)"/><use xlink:href="#i" data-mml-node="mo" transform="matrix(.707 0 0 -.707 9131.96 -4033)"/><use xlink:href="#y" data-mml-node="mo" transform="matrix(.707 0 0 -.707 9406.983 -4033)"/><use xlink:href="#w" data-mml-node="mn" transform="matrix(.707 0 0 -.707 9957.029 -4033)"/></g><g data-mml-node="mn" transform="matrix(.707 0 0 -.707 8363 -3139.4)"><use xlink:href="#w"/><use xlink:href="#o" transform="translate(500)"/></g><path stroke="none" d="M7022.1-3704.4H10411v-60H7022.1z"/></g><use xlink:href="#z" data-mml-node="mo" transform="matrix(1 0 0 -1 10531 -3484.4)"/></g></g><g data-mml-node="mtd"><g data-mml-node="mtext" transform="matrix(1 0 0 -1 14099.3 -3484.4)"><use xlink:href="#p"/><use xlink:href="#q" transform="translate(278)"/><use xlink:href="#r" transform="translate(584)"/></g><use xlink:href="#A" data-mml-node="mn" transform="matrix(1 0 0 -1 14933.3 -3484.4)"/><use xlink:href="#s" data-mml-node="mo" transform="matrix(1 0 0 -1 15711.1 -3484.4)"/><use xlink:href="#f" data-mml-node="mi" transform="matrix(1 0 0 -1 16766.9 -3484.4)"/><use xlink:href="#B" data-mml-node="mo" transform="matrix(1 0 0 -1 17620.6 -3484.4)"/><g data-mml-node="msub"><use xlink:href="#C" data-mml-node="mi" transform="matrix(1 0 0 -1 18676.4 -3484.4)"/><g data-mml-node="TeXAtom"><use xlink:href="#D" data-mml-node="mi" transform="matrix(.707 0 0 -.707 19507.4 -3334.4)"/><use xlink:href="#h" data-mml-node="mi" transform="matrix(.707 0 0 -.707 19838.983 -3334.4)"/></g></g><use xlink:href="#g" data-mml-node="mo" transform="matrix(1 0 0 -1 20232 -3484.4)"/></g></g><g data-mml-node="mtr"><g data-mml-node="mtd"><use xlink:href="#o" data-mml-node="mn" transform="matrix(1 0 0 -1 6374.1 -1884.9)"/></g><g data-mml-node="mtd"><g data-mml-node="mtext" transform="matrix(1 0 0 -1 14099.3 -1884.9)"><use xlink:href="#p"/><use xlink:href="#q" transform="translate(278)"/><use xlink:href="#r" transform="translate(584)"/></g><use xlink:href="#f" data-mml-node="mi" transform="matrix(1 0 0 -1 14933.3 -1884.9)"/><use xlink:href="#E" data-mml-node="mo" transform="matrix(1 0 0 -1 15787.1 -1884.9)"/><g data-mml-node="msub"><use xlink:href="#C" data-mml-node="mi" transform="matrix(1 0 0 -1 16842.9 -1884.9)"/><g data-mml-node="TeXAtom"><use xlink:href="#D" data-mml-node="mi" transform="matrix(.707 0 0 -.707 17673.9 -1734.9)"/><use xlink:href="#h" data-mml-node="mi" transform="matrix(.707 0 0 -.707 18005.483 -1734.9)"/></g></g><g data-mml-node="TeXAtom"><g data-mml-node="mtext" transform="matrix(1 0 0 -1 18398.4 -1884.9)"><use xlink:href="#F"/><use xlink:href="#G" transform="translate(250)"/><use xlink:href="#H" transform="translate(809)"/><use xlink:href="#I" transform="translate(1448)"/><use xlink:href="#F" transform="translate(2087)"/></g></g><use xlink:href="#h" data-mml-node="mi" transform="matrix(1 0 0 -1 20735.4 -1884.9)"/><use xlink:href="#B" data-mml-node="mo" transform="matrix(1 0 0 -1 21498.2 -1884.9)"/><g data-mml-node="msub"><use xlink:href="#h" data-mml-node="mi" transform="matrix(1 0 0 -1 22554 -1884.9)"/><g data-mml-node="TeXAtom"><use xlink:href="#J" data-mml-node="mi" transform="matrix(.707 0 0 -.707 23039 -1734.9)"/></g></g><use xlink:href="#g" data-mml-node="mo" transform="matrix(1 0 0 -1 23709.8 -1884.9)"/></g></g><g data-mml-node="mtr"><g data-mml-node="mtd"><g data-mml-node="mrow"><g data-mml-node="mo" transform="matrix(1 0 0 -1 6374.1 601.5)"><use xlink:href="#K" transform="translate(104 -892.3)"/><svg width="667" height="1873.7" y="162.7" x="104" viewBox="0 468.4 667 1873.7"><use xlink:href="#L" transform="scale(1 4.669)"/></svg></g><g data-mml-node="mfrac"><g data-mml-node="mrow"><g data-mml-node="mrow"><use xlink:href="#M" data-mml-node="mo" transform="matrix(.707 0 0 -.707 7469.1 -409.9)"/><g data-mml-node="mfrac"><g data-mml-node="mrow"><g data-mml-node="msub"><use xlink:href="#a" data-mml-node="mi" transform="matrix(.49985 0 0 -.49985 8036.821 -928.414)"/><g data-mml-node="TeXAtom"><use xlink:href="#t" data-mml-node="mi" transform="matrix(.49985 0 0 -.49985 8343.228 -752.767)"/><use xlink:href="#u" data-mml-node="mi" transform="matrix(.49985 0 0 -.49985 8618.145 -752.767)"/><use xlink:href="#v" data-mml-node="mi" transform="matrix(.49985 0 0 -.49985 8904.059 -752.767)"/><use xlink:href="#v" data-mml-node="mi" transform="matrix(.49985 0 0 -.49985 9053.014 -752.767)"/></g></g><use xlink:href="#e" data-mml-node="mo" transform="matrix(.49985 0 0 -.49985 9226.961 -928.414)"/><use xlink:href="#f" data-mml-node="mi" transform="matrix(.49985 0 0 -.49985 9421.403 -928.414)"/><use xlink:href="#i" data-mml-node="mo" transform="matrix(.49985 0 0 -.49985 9709.316 -928.414)"/><use xlink:href="#y" data-mml-node="mo" transform="matrix(.49985 0 0 -.49985 9903.757 -928.414)"/><use xlink:href="#w" data-mml-node="mn" transform="matrix(.49985 0 0 -.49985 10292.64 -928.414)"/></g><g data-mml-node="mn" transform="matrix(.49985 0 0 -.49985 9039.913 -165.985)"><use xlink:href="#w"/><use xlink:href="#o" transform="translate(500)"/></g><path stroke="none" d="M7966.121-565.44h2647.503v-42.42H7966.12z"/></g><use xlink:href="#N" data-mml-node="mo" transform="matrix(.707 0 0 -.707 10698.464 -409.9)"/></g><use xlink:href="#y" data-mml-node="mo" transform="matrix(.707 0 0 -.707 11110.645 -409.9)"/><use xlink:href="#h" data-mml-node="mi" transform="matrix(.707 0 0 -.707 11660.69 -409.9)"/></g><g data-mml-node="msub"><use xlink:href="#h" data-mml-node="mi" transform="matrix(.707 0 0 -.707 9440.3 946.5)"/><g data-mml-node="TeXAtom"><use xlink:href="#O" data-mml-node="mi" transform="matrix(.49985 0 0 -.49985 9783.195 1052.55)"/></g></g><path stroke="none" d="M7369.1 381.5h4735.2v-60H7369.1z"/></g><g data-mml-node="mo" transform="matrix(1 0 0 -1 12224.3 601.5)"><use xlink:href="#P" transform="translate(104 -892.3)"/><svg width="667" height="1873.7" y="162.7" x="104" viewBox="0 468.4 667 1873.7"><use xlink:href="#Q" transform="scale(1 4.669)"/></svg></g></g></g><g data-mml-node="mtd"><g data-mml-node="mtext" transform="matrix(1 0 0 -1 14099.3 601.5)"><use xlink:href="#p"/><use xlink:href="#q" transform="translate(278)"/><use xlink:href="#r" transform="translate(584)"/></g><use xlink:href="#f" data-mml-node="mi" transform="matrix(1 0 0 -1 14933.3 601.5)"/><use xlink:href="#E" data-mml-node="mo" transform="matrix(1 0 0 -1 15787.1 601.5)"/><g data-mml-node="msub"><use xlink:href="#C" data-mml-node="mi" transform="matrix(1 0 0 -1 16842.9 601.5)"/><g data-mml-node="TeXAtom"><use xlink:href="#D" data-mml-node="mi" transform="matrix(.707 0 0 -.707 17673.9 751.5)"/><use xlink:href="#h" data-mml-node="mi" transform="matrix(.707 0 0 -.707 18005.483 751.5)"/></g></g><g data-mml-node="TeXAtom"><g data-mml-node="mtext" transform="matrix(1 0 0 -1 18398.4 601.5)"><use xlink:href="#F"/><use xlink:href="#G" transform="translate(250)"/><use xlink:href="#H" transform="translate(809)"/><use xlink:href="#I" transform="translate(1448)"/><use xlink:href="#F" transform="translate(2087)"/></g></g><use xlink:href="#h" data-mml-node="mi" transform="matrix(1 0 0 -1 20735.4 601.5)"/><use xlink:href="#E" data-mml-node="mo" transform="matrix(1 0 0 -1 21498.2 601.5)"/><g data-mml-node="msub"><use xlink:href="#h" data-mml-node="mi" transform="matrix(1 0 0 -1 22554 601.5)"/><g data-mml-node="TeXAtom"><use xlink:href="#J" data-mml-node="mi" transform="matrix(.707 0 0 -.707 23039 751.5)"/></g></g><use xlink:href="#g" data-mml-node="mo" transform="matrix(1 0 0 -1 23709.8 601.5)"/></g></g></g></g></g></g><g data-mml-node="mtr"><g data-mml-node="mtd"><g data-mml-node="msub"><use xlink:href="#a" data-mml-node="mi" transform="matrix(1 0 0 -1 863.9 5329.3)"/><g data-mml-node="TeXAtom"><use xlink:href="#h" data-mml-node="mi" transform="matrix(.707 0 0 -.707 1476.9 5479.3)"/><use xlink:href="#c" data-mml-node="mi" transform="matrix(.707 0 0 -.707 1819.795 5479.3)"/><use xlink:href="#R" data-mml-node="mi" transform="matrix(.707 0 0 -.707 2162.69 5479.3)"/><use xlink:href="#S" data-mml-node="mi" transform="matrix(.707 0 0 -.707 2417.917 5479.3)"/></g></g><use xlink:href="#e" data-mml-node="mo" transform="matrix(1 0 0 -1 2797.6 5329.3)"/><use xlink:href="#f" data-mml-node="mi" transform="matrix(1 0 0 -1 3186.6 5329.3)"/><use xlink:href="#i" data-mml-node="mo" transform="matrix(1 0 0 -1 3762.6 5329.3)"/></g><g data-mml-node="mtd"><use xlink:href="#j" data-mml-node="mo" transform="matrix(1 0 0 -1 4429.4 5329.3)"/></g><g data-mml-node="mtd"><g data-mml-node="mrow"><use xlink:href="#T" data-mml-node="mo" transform="matrix(1 0 0 -1 5485.1 5329.3)"/><g data-mml-node="mtable"><g data-mml-node="mtr"><g data-mml-node="mtd"><use xlink:href="#o" data-mml-node="mn" transform="matrix(1 0 0 -1 6291.1 4329.8)"/></g><g data-mml-node="mtd"><g data-mml-node="mtext" transform="matrix(1 0 0 -1 11976 4329.8)"><use xlink:href="#p"/><use xlink:href="#q" transform="translate(278)"/><use xlink:href="#r" transform="translate(584)"/></g><use xlink:href="#o" data-mml-node="mn" transform="matrix(1 0 0 -1 12810 4329.8)"/><use xlink:href="#s" data-mml-node="mo" transform="matrix(1 0 0 -1 13587.8 4329.8)"/><use xlink:href="#f" data-mml-node="mi" transform="matrix(1 0 0 -1 14643.6 4329.8)"/><use xlink:href="#B" data-mml-node="mo" transform="matrix(1 0 0 -1 15497.3 4329.8)"/><g data-mml-node="msub"><use xlink:href="#C" data-mml-node="mi" transform="matrix(1 0 0 -1 16553.1 4329.8)"/><g data-mml-node="TeXAtom"><use xlink:href="#D" data-mml-node="mi" transform="matrix(.707 0 0 -.707 17384.1 4479.8)"/><use xlink:href="#h" data-mml-node="mi" transform="matrix(.707 0 0 -.707 17715.683 4479.8)"/></g></g><use xlink:href="#U" data-mml-node="mo" transform="matrix(1 0 0 -1 18330.9 4329.8)"/><use xlink:href="#w" data-mml-node="mn" transform="matrix(1 0 0 -1 19331.1 4329.8)"/><use xlink:href="#g" data-mml-node="mo" transform="matrix(1 0 0 -1 19831.1 4329.8)"/></g></g><g data-mml-node="mtr"><g data-mml-node="mtd"><g data-mml-node="mrow"><use xlink:href="#x" data-mml-node="mo" transform="matrix(1 0 0 -1 6291.1 5929.3)"/><g data-mml-node="mfrac"><g data-mml-node="mrow"><g data-mml-node="msub"><use xlink:href="#a" data-mml-node="mi" transform="matrix(.707 0 0 -.707 7039.1 5380.7)"/><g data-mml-node="TeXAtom"><use xlink:href="#t" data-mml-node="mi" transform="matrix(.49985 0 0 -.49985 7472.491 5486.75)"/><use xlink:href="#u" data-mml-node="mi" transform="matrix(.49985 0 0 -.49985 7747.408 5486.75)"/><use xlink:href="#v" data-mml-node="mi" transform="matrix(.49985 0 0 -.49985 8033.322 5486.75)"/><use xlink:href="#v" data-mml-node="mi" transform="matrix(.49985 0 0 -.49985 8182.277 5486.75)"/></g></g><use xlink:href="#e" data-mml-node="mo" transform="matrix(.707 0 0 -.707 8366.705 5380.7)"/><use xlink:href="#f" data-mml-node="mi" transform="matrix(.707 0 0 -.707 8641.728 5380.7)"/><use xlink:href="#i" data-mml-node="mo" transform="matrix(.707 0 0 -.707 9048.96 5380.7)"/><use xlink:href="#y" data-mml-node="mo" transform="matrix(.707 0 0 -.707 9323.983 5380.7)"/><use xlink:href="#V" data-mml-node="mn" transform="matrix(.707 0 0 -.707 9874.029 5380.7)"/></g><g data-mml-node="mrow"><g data-mml-node="mn" transform="matrix(.707 0 0 -.707 7708.5 6274.3)"><use xlink:href="#w"/><use xlink:href="#o" transform="translate(500)"/></g><use xlink:href="#y" data-mml-node="mo" transform="matrix(.707 0 0 -.707 8415.5 6274.3)"/><g data-mml-node="msub"><use xlink:href="#h" data-mml-node="mi" transform="matrix(.707 0 0 -.707 8965.546 6274.3)"/><g data-mml-node="TeXAtom"><use xlink:href="#O" data-mml-node="mi" transform="matrix(.49985 0 0 -.49985 9308.441 6380.35)"/></g></g></g><path stroke="none" d="M6939.1 5709.3H10328v-60H6939.1z"/></g><use xlink:href="#z" data-mml-node="mo" transform="matrix(1 0 0 -1 10448 5929.3)"/></g></g><g data-mml-node="mtd"><g data-mml-node="mtext" transform="matrix(1 0 0 -1 11976 5929.3)"><use xlink:href="#p"/><use xlink:href="#q" transform="translate(278)"/><use xlink:href="#r" transform="translate(584)"/></g><use xlink:href="#f" data-mml-node="mi" transform="matrix(1 0 0 -1 12810 5929.3)"/><use xlink:href="#E" data-mml-node="mo" transform="matrix(1 0 0 -1 13663.8 5929.3)"/><g data-mml-node="msub"><use xlink:href="#C" data-mml-node="mi" transform="matrix(1 0 0 -1 14719.6 5929.3)"/><g data-mml-node="TeXAtom"><use xlink:href="#D" data-mml-node="mi" transform="matrix(.707 0 0 -.707 15550.6 6079.3)"/><use xlink:href="#h" data-mml-node="mi" transform="matrix(.707 0 0 -.707 15882.183 6079.3)"/></g></g><use xlink:href="#U" data-mml-node="mo" transform="matrix(1 0 0 -1 16497.4 5929.3)"/><use xlink:href="#w" data-mml-node="mn" transform="matrix(1 0 0 -1 17497.6 5929.3)"/><use xlink:href="#g" data-mml-node="mo" transform="matrix(1 0 0 -1 17997.6 5929.3)"/></g></g></g></g></g></g></g></g></svg>